<?xml version="1.0" encoding="UTF-8"?>
<svg xmlns="http://www.w3.org/2000/svg" viewBox="0 0 1255.05 596.04">
  <defs>
    <style>
      .cls-1, .cls-2, .cls-3, .cls-4, .cls-5, .cls-6, .cls-7, .cls-8, .cls-9, .cls-10, .cls-11, .cls-12, .cls-13, .cls-14, .cls-15, .cls-16, .cls-17, .cls-18, .cls-19, .cls-20, .cls-21, .cls-22, .cls-23 {
        fill: none;
      }

      .cls-1, .cls-2, .cls-5, .cls-9, .cls-10, .cls-11, .cls-12, .cls-14, .cls-15, .cls-20 {
        stroke: #3a4f8a;
      }

      .cls-1, .cls-21 {
        stroke-width: 19.08px;
      }

      .cls-2, .cls-6, .cls-22 {
        stroke-width: 1.91px;
      }

      .cls-24 {
        letter-spacing: -.04em;
      }

      .cls-24, .cls-25, .cls-26, .cls-27, .cls-28, .cls-29, .cls-30, .cls-31, .cls-32, .cls-33, .cls-34, .cls-35, .cls-36, .cls-37, .cls-38, .cls-39, .cls-40, .cls-41 {
        isolation: isolate;
      }

      .cls-24, .cls-25, .cls-26, .cls-27, .cls-28, .cls-29, .cls-30, .cls-31, .cls-32, .cls-33, .cls-34, .cls-35, .cls-36, .cls-37, .cls-38, .cls-39, .cls-41 {
        font-family: Arial-BoldMT, Arial;
        font-weight: 700;
      }

      .cls-24, .cls-25, .cls-27, .cls-28, .cls-29, .cls-42, .cls-30, .cls-31, .cls-33, .cls-34, .cls-35, .cls-36, .cls-37, .cls-38, .cls-39, .cls-41 {
        fill: #000;
      }

      .cls-24, .cls-33 {
        font-size: 6px;
      }

      .cls-3, .cls-7, .cls-8, .cls-13, .cls-16, .cls-18, .cls-19, .cls-21, .cls-22 {
        stroke: #4d66ac;
      }

      .cls-3, .cls-14, .cls-17 {
        stroke-width: 3.82px;
      }

      .cls-25 {
        letter-spacing: -.08em;
      }

      .cls-25, .cls-30, .cls-35, .cls-37 {
        font-size: 7px;
      }

      .cls-26, .cls-32 {
        fill: #7b7b7b;
        font-size: 12px;
      }

      .cls-26, .cls-37 {
        letter-spacing: -.02em;
      }

      .cls-27 {
        letter-spacing: -.04em;
      }

      .cls-27, .cls-28, .cls-38 {
        font-size: 8px;
      }

      .cls-4, .cls-5, .cls-13 {
        stroke-width: 5.72px;
      }

      .cls-4, .cls-6, .cls-17, .cls-23 {
        stroke: #437db3;
      }

      .cls-7, .cls-10 {
        stroke-width: 11.45px;
      }

      .cls-8, .cls-11 {
        stroke-width: 13.36px;
      }

      .cls-9 {
        stroke-width: 9.54px;
      }

      .cls-43 {
        mix-blend-mode: multiply;
      }

      .cls-29 {
        letter-spacing: -.04em;
      }

      .cls-29, .cls-34, .cls-36, .cls-39, .cls-41 {
        font-size: 9px;
      }

      .cls-42 {
        stroke-width: 0px;
      }

      .cls-31 {
        font-size: 10px;
      }

      .cls-12 {
        stroke-width: 22.9px;
      }

      .cls-34 {
        letter-spacing: -.09em;
      }

      .cls-35 {
        letter-spacing: -.06em;
      }

      .cls-15 {
        stroke-width: 15.27px;
      }

      .cls-16, .cls-23 {
        stroke-width: 7.63px;
      }

      .cls-36 {
        letter-spacing: -.02em;
      }

      .cls-18 {
        stroke-width: 24.81px;
      }

      .cls-38 {
        letter-spacing: -.07em;
      }

      .cls-19 {
        stroke-width: 41.98px;
      }

      .cls-20 {
        stroke-width: 17.17px;
      }

      .cls-41 {
        letter-spacing: -.06em;
      }
    </style>
  </defs>
  <g class="cls-40">
    <g id="Capa_1" data-name="Capa 1">
      <g>
        <rect class="cls-42" x="1123.02" y="16.03" width="5" height="1.91"/>
        <rect class="cls-42" x="1123.02" y="22.94" width="5" height="1.91"/>
        <rect class="cls-42" x="1123.02" y="29.85" width="5" height="1.91"/>
        <rect class="cls-42" x="1123.02" y="36.76" width="5" height="1.91"/>
        <rect class="cls-42" x="1123.02" y="43.67" width="5" height="1.91"/>
        <rect class="cls-42" x="1123.02" y="50.57" width="5" height="1.91"/>
        <rect class="cls-42" x="1123.02" y="57.48" width="5" height="3.82"/>
        <rect class="cls-42" x="1123.02" y="66.3" width="5" height="3.82"/>
        <rect class="cls-42" x="1123.02" y="75.12" width="5" height="3.82"/>
        <rect class="cls-42" x="1123.02" y="83.93" width="5" height="3.82"/>
        <rect class="cls-42" x="1123.02" y="92.75" width="5" height="3.82"/>
        <rect class="cls-42" x="1123.02" y="101.56" width="5" height="3.82"/>
        <rect class="cls-42" x="1123.02" y="110.38" width="5" height="3.82"/>
        <rect class="cls-42" x="1123.02" y="119.2" width="5" height="5.72"/>
        <rect class="cls-42" x="1123.02" y="129.92" width="5" height="5.72"/>
        <rect class="cls-42" x="1123.02" y="140.65" width="5" height="5.72"/>
        <rect class="cls-42" x="1123.02" y="151.37" width="5" height="5.72"/>
        <rect class="cls-42" x="1123.02" y="162.1" width="5" height="5.72"/>
        <rect class="cls-42" x="1123.02" y="172.82" width="5" height="7.63"/>
        <rect class="cls-42" x="1123.02" y="185.45" width="5" height="7.63"/>
        <rect class="cls-42" x="1123.02" y="198.09" width="5" height="7.63"/>
        <rect class="cls-42" x="1123.02" y="210.72" width="5" height="7.63"/>
        <rect class="cls-42" x="1123.02" y="223.35" width="5" height="9.54"/>
        <rect class="cls-42" x="1123.02" y="237.89" width="5" height="11.45"/>
        <rect class="cls-42" x="1123.02" y="254.34" width="5" height="11.45"/>
        <rect class="cls-42" x="1123.02" y="270.79" width="5" height="11.45"/>
        <rect class="cls-42" x="1123.02" y="287.24" width="5" height="13.36"/>
        <rect class="cls-42" x="1123.02" y="305.6" width="5" height="13.36"/>
        <rect class="cls-42" x="1123.02" y="323.96" width="5" height="13.36"/>
        <rect class="cls-42" x="1123.02" y="342.31" width="5" height="15.27"/>
        <rect class="cls-42" x="1123.02" y="362.58" width="5" height="17.17"/>
        <rect class="cls-42" x="1123.02" y="384.75" width="5" height="17.17"/>
        <rect class="cls-42" x="1123.02" y="406.93" width="5" height="19.08"/>
        <rect class="cls-42" x="1123.02" y="431.01" width="5" height="20.99"/>
        <rect class="cls-42" x="1123.02" y="457" width="5" height="22.9"/>
        <rect class="cls-42" x="1123.02" y="484.9" width="5" height="24.81"/>
        <rect class="cls-42" x="1123.02" y="514.7" width="5" height="28.62"/>
        <rect class="cls-42" x="148.02" y="103.53" width="5" height="45.8"/>
        <rect class="cls-42" x="1123.02" y="548.33" width="5" height="47.71"/>
        <rect class="cls-42" x="148.02" y="154.33" width="5" height="154.57"/>
        <rect class="cls-42" x="148.02" y="313.9" width="5" height="194.64"/>
      </g>
      <g class="cls-43">
        <path class="cls-20" d="M153.02,429.34c485,0,485-58.18,970-58.18"/>
      </g>
      <g class="cls-43">
        <path class="cls-14" d="M153.02,319.62c485,0,485-260.23,970-260.23"/>
      </g>
      <g class="cls-43">
        <path class="cls-4" d="M153.02,142.65c485,0,485,374.92,970,374.92"/>
      </g>
      <g class="cls-43">
        <path class="cls-16" d="M153.02,175.32c485,0,485,1.32,970,1.32"/>
      </g>
      <g class="cls-43">
        <path class="cls-16" d="M153.02,182.95c485,0,485,6.32,970,6.32"/>
      </g>
      <g class="cls-43">
        <path class="cls-5" d="M153.02,337.75c485,0,485-215.69,970-215.69"/>
      </g>
      <g class="cls-43">
        <path class="cls-2" d="M153.02,507.58c485,0,485,87.5,970,87.5"/>
      </g>
      <g class="cls-43">
        <path class="cls-11" d="M153.02,398.81c485,0,485-104.89,970-104.89"/>
      </g>
      <g class="cls-43">
        <path class="cls-19" d="M153.02,287.91c485,0,485,285.23,970,285.23"/>
      </g>
      <g class="cls-43">
        <path class="cls-18" d="M153.02,254.51c485,0,485,242.79,970,242.79"/>
      </g>
      <g class="cls-43">
        <path class="cls-21" d="M153.02,232.57c485,0,485,207.98,970,207.98"/>
      </g>
      <g class="cls-43">
        <path class="cls-7" d="M153.02,203.94c485,0,485,109.29,970,109.29"/>
      </g>
      <g class="cls-43">
        <path class="cls-12" d="M153.02,495.18c485,0,485,36.7,970,36.7"/>
      </g>
      <g class="cls-43">
        <path class="cls-9" d="M153.02,442.7c485,0,485-45.54,970-45.54"/>
      </g>
      <g class="cls-43">
        <path class="cls-1" d="M153.02,474.19c485,0,485-3.83,970-3.83"/>
      </g>
      <g class="cls-43">
        <path class="cls-23" d="M153.02,128.34c485,0,485,260.23,970,260.23"/>
      </g>
      <g class="cls-43">
        <path class="cls-15" d="M153.02,455.1c485,0,485-36.73,970-36.73"/>
      </g>
      <g class="cls-43">
        <path class="cls-14" d="M153.02,323.44c485,0,485-255.23,970-255.23"/>
      </g>
      <g class="cls-43">
        <path class="cls-17" d="M153.02,134.06c485,0,485,274.77,970,274.77"/>
      </g>
      <g class="cls-43">
        <path class="cls-6" d="M153.02,108.3c485,0,485,22.57,970,22.57"/>
      </g>
      <g class="cls-43">
        <path class="cls-17" d="M153.02,147.42c485,0,485,402.81,970,402.81"/>
      </g>
      <g class="cls-43">
        <path class="cls-2" d="M153.02,326.3c485,0,485-248.32,970-248.32"/>
      </g>
      <g class="cls-43">
        <path class="cls-13" d="M153.02,189.63c485,0,485,13.22,970,13.22"/>
      </g>
      <g class="cls-43">
        <path class="cls-6" d="M153.02,115.94c485,0,485,83.1,970,83.1"/>
      </g>
      <g class="cls-43">
        <path class="cls-8" d="M153.02,216.35c485,0,485,114.29,970,114.29"/>
      </g>
      <g class="cls-43">
        <path class="cls-14" d="M153.02,346.34c485,0,485-201.87,970-201.87"/>
      </g>
      <g class="cls-43">
        <path class="cls-9" d="M153.02,366.37c485,0,485-121.8,970-121.8"/>
      </g>
      <g class="cls-43">
        <path class="cls-15" d="M153.02,413.12c485,0,485-63.18,970-63.18"/>
      </g>
      <g class="cls-43">
        <path class="cls-6" d="M153.02,119.75c485,0,485,119.09,970,119.09"/>
      </g>
      <g class="cls-43">
        <path class="cls-10" d="M153.02,376.87c485,0,485-116.8,970-116.8"/>
      </g>
      <g class="cls-43">
        <path class="cls-14" d="M153.02,342.52c485,0,485-208.78,970-208.78"/>
      </g>
      <g class="cls-43">
        <path class="cls-22" d="M153.02,159.1c485,0,485-83.03,970-83.03"/>
      </g>
      <g class="cls-43">
        <path class="cls-17" d="M153.02,137.88c485,0,485,321.03,970,321.03"/>
      </g>
      <g class="cls-43">
        <path class="cls-22" d="M153.02,155.28c485,0,485-138.3,970-138.3"/>
      </g>
      <g class="cls-43">
        <path class="cls-9" d="M153.02,387.36c485,0,485-109.89,970-109.89"/>
      </g>
      <g class="cls-43">
        <path class="cls-6" d="M153.02,104.49c485,0,485-80.59,970-80.59"/>
      </g>
      <g class="cls-43">
        <path class="cls-2" d="M153.02,314.85c485,0,485-284.05,970-284.05"/>
      </g>
      <g class="cls-43">
        <path class="cls-3" d="M153.02,169.6c485,0,485-14.41,970-14.41"/>
      </g>
      <g class="cls-43">
        <path class="cls-9" d="M153.02,356.83c485,0,485-128.71,970-128.71"/>
      </g>
      <g class="cls-43">
        <path class="cls-6" d="M153.02,110.21c485,0,485,31.39,970,31.39"/>
      </g>
      <g class="cls-43">
        <path class="cls-6" d="M153.02,114.03c485,0,485,49.02,970,49.02"/>
      </g>
      <g class="cls-43">
        <path class="cls-22" d="M153.02,157.19c485,0,485-119.48,970-119.48"/>
      </g>
      <g class="cls-43">
        <path class="cls-14" d="M153.02,350.15c485,0,485-184.24,970-184.24"/>
      </g>
      <g class="cls-43">
        <path class="cls-6" d="M153.02,121.66c485,0,485,150.08,970,150.08"/>
      </g>
      <g class="cls-43">
        <path class="cls-3" d="M153.02,161.96c485,0,485-76.12,970-76.12"/>
      </g>
      <g class="cls-43">
        <path class="cls-6" d="M153.02,112.12c485,0,485,40.21,970,40.21"/>
      </g>
      <g class="cls-43">
        <path class="cls-2" d="M153.02,463.69c485,0,485-12.64,970-12.64"/>
      </g>
      <g class="cls-43">
        <path class="cls-14" d="M153.02,329.16c485,0,485-234.5,970-234.5"/>
      </g>
      <g class="cls-43">
        <path class="cls-13" d="M153.02,195.36c485,0,485,20.13,970,20.13"/>
      </g>
      <g class="cls-43">
        <path class="cls-6" d="M153.02,117.84c485,0,485,93.83,970,93.83"/>
      </g>
      <g class="cls-43">
        <path class="cls-3" d="M153.02,165.78c485,0,485-62.31,970-62.31"/>
      </g>
      <g class="cls-43">
        <path class="cls-14" d="M153.02,332.98c485,0,485-220.69,970-220.69"/>
      </g>
      <g class="cls-43">
        <path class="cls-6" d="M153.02,123.57c485,0,485,182.98,970,182.98"/>
      </g>
      <g class="cls-43">
        <path class="cls-6" d="M153.02,106.4c485,0,485-61.78,970-61.78"/>
      </g>
      <g class="cls-43">
        <path class="cls-2" d="M153.02,316.76c485,0,485-265.23,970-265.23"/>
      </g>
      <g class="cls-40">
        <g class="cls-40">
          <text class="cls-33" transform="translate(1132.35 18.37)"><tspan x="0" y="0">Santibañez Boric, Mónica</tspan></text>
        </g>
      </g>
      <g class="cls-40">
        <g class="cls-40">
          <text class="cls-33" transform="translate(1132.35 25.28)"><tspan x="0" y="0">Ruiz Balart, Macarena</tspan></text>
        </g>
      </g>
      <g class="cls-40">
        <g class="cls-40">
          <text class="cls-33" transform="translate(1132.35 32.28)"><tspan x="0" y="0">Stange Marcus, Hans</tspan></text>
        </g>
      </g>
      <g class="cls-40">
        <g class="cls-40">
          <text class="cls-33" transform="translate(1132.35 39.09)"><tspan x="0" y="0">Molina Oyarzún, Raúl</tspan></text>
        </g>
      </g>
      <g class="cls-40">
        <g class="cls-40">
          <text class="cls-33" transform="translate(1132.35 45.57)"><tspan x="0" y="0">Silva Roquefort, Rebeca</tspan></text>
        </g>
      </g>
      <g class="cls-40">
        <g class="cls-40">
          <text class="cls-33" transform="translate(1132.79 52.48)"><tspan x="0" y="0">Mora Briones,</tspan></text>
          <text class="cls-24" transform="translate(1172.8 52.48)"><tspan x="0" y="0"> </tspan></text>
          <text class="cls-33" transform="translate(1174.24 52.48)"><tspan x="0" y="0">Alfredo</tspan></text>
        </g>
      </g>
      <g class="cls-40">
        <g class="cls-40">
          <text class="cls-37" transform="translate(1132.77 61.3)"><tspan x="0" y="0">V</tspan></text>
          <text class="cls-30" transform="translate(1137.31 61.3)"><tspan x="0" y="0">ico Sánchez, Mauricio</tspan></text>
        </g>
      </g>
      <g class="cls-40">
        <g class="cls-40">
          <text class="cls-30" transform="translate(1132.56 69.73)"><tspan x="0" y="0">Perelli Soto, Bruno</tspan></text>
        </g>
      </g>
      <g class="cls-40">
        <g class="cls-40">
          <text class="cls-30" transform="translate(1132.11 78.93)"><tspan x="0" y="0">Lepe Muñoz, Juan Carlos</tspan></text>
        </g>
      </g>
      <g class="cls-40">
        <g class="cls-40">
          <text class="cls-30" transform="translate(1132.35 88.45)"><tspan x="0" y="0">Perea Morales, René</tspan></text>
        </g>
      </g>
      <g class="cls-40">
        <g class="cls-40">
          <text class="cls-30" transform="translate(1132.03 96.56)"><tspan x="0" y="0">Méndez Olivares, Iván</tspan></text>
        </g>
      </g>
      <g class="cls-40">
        <g class="cls-40">
          <text class="cls-30" transform="translate(1132.01 105.38)"><tspan x="0" y="0">Benavides Bermúdez, Paola</tspan></text>
        </g>
      </g>
      <g class="cls-40">
        <g class="cls-40">
          <text class="cls-30" transform="translate(1131.73 114.2)"><tspan x="0" y="0">Jove</tspan></text>
          <text class="cls-25" transform="translate(1147.69 114.2)"><tspan x="0" y="0" xml:space="preserve"> A</tspan></text>
          <text class="cls-30" transform="translate(1154.17 114.2)"><tspan x="0" y="0">vilés, </tspan></text>
          <text class="cls-35" transform="translate(1173.62 114.2)"><tspan x="0" y="0">T</tspan></text>
          <text class="cls-30" transform="translate(1177.51 114.2)"><tspan x="0" y="0">rinidad</tspan></text>
        </g>
      </g>
      <g class="cls-40">
        <g class="cls-40">
          <text class="cls-28" transform="translate(1132.35 124.86)"><tspan x="0" y="0">Gómez Moya, Cristián</tspan></text>
        </g>
      </g>
      <g class="cls-40">
        <g class="cls-40">
          <text class="cls-28" transform="translate(1132.35 135.58)"><tspan x="0" y="0">Reyes León, Daniel</tspan></text>
        </g>
      </g>
      <g class="cls-40">
        <g class="cls-40">
          <text class="cls-28" transform="translate(1132.35 146.31)"><tspan x="0" y="0">Zorzano Betancourt, Osvaldo</tspan></text>
        </g>
      </g>
      <g class="cls-40">
        <g class="cls-40">
          <text class="cls-28" transform="translate(1132.35 157.03)"><tspan x="0" y="0">Maldonado de la Fuente, Felix</tspan></text>
        </g>
      </g>
      <g class="cls-40">
        <g class="cls-40">
          <text class="cls-28" transform="translate(1132.35 167.76)"><tspan x="0" y="0">Pradenas Guentherodt, Gabriela</tspan></text>
        </g>
      </g>
      <g class="cls-40">
        <g class="cls-40">
          <text class="cls-38" transform="translate(1132.35 179.43)"><tspan x="0" y="0">T</tspan></text>
          <text class="cls-28" transform="translate(1136.64 179.43)"><tspan x="0" y="0">apia Reyes, Mauricio</tspan></text>
        </g>
      </g>
      <g class="cls-40">
        <g class="cls-40">
          <text class="cls-28" transform="translate(1132.35 192.07)"><tspan x="0" y="0">Lares López, Lorna</tspan></text>
        </g>
      </g>
      <g class="cls-40">
        <g class="cls-40">
          <text class="cls-28" transform="translate(1132.35 204.7)"><tspan x="0" y="0">Nuñez Gutiérrez, Pablo</tspan></text>
        </g>
      </g>
      <g class="cls-40">
        <g class="cls-40">
          <text class="cls-28" transform="translate(1132.35 217.33)"><tspan x="0" y="0">Marín Pacheco,</tspan></text>
          <text class="cls-27" transform="translate(1191.04 217.33)"><tspan x="0" y="0"> </tspan></text>
          <text class="cls-28" transform="translate(1192.96 217.33)"><tspan x="0" y="0">Antonio</tspan></text>
        </g>
      </g>
      <g class="cls-40">
        <g class="cls-40">
          <text class="cls-39" transform="translate(1132.35 230.92)"><tspan x="0" y="0">Pagueguy Fenne</tspan></text>
          <text class="cls-41" transform="translate(1204.36 230.92)"><tspan x="0" y="0">r</tspan></text>
          <text class="cls-39" transform="translate(1207.37 230.92)"><tspan x="0" y="0">, Sebastián</tspan></text>
        </g>
      </g>
      <g class="cls-40">
        <g class="cls-40">
          <text class="cls-39" transform="translate(1132.35 246.42)"><tspan x="0" y="0">Gatica Ramírez, Pamela</tspan></text>
        </g>
      </g>
      <g class="cls-40">
        <g class="cls-40">
          <text class="cls-39" transform="translate(1132.35 262.86)"><tspan x="0" y="0">Morales Mujica, María Paz</tspan></text>
        </g>
      </g>
      <g class="cls-40">
        <g class="cls-40">
          <text class="cls-34" transform="translate(1132.36 279.31)"><tspan x="0" y="0">Y</tspan></text>
          <text class="cls-39" transform="translate(1137.69 279.31)"><tspan x="0" y="0">oung</tspan></text>
          <text class="cls-29" transform="translate(1159.69 279.31)"><tspan x="0" y="0"> </tspan></text>
          <text class="cls-39" transform="translate(1161.85 279.31)"><tspan x="0" y="0">Araya, Mariana</tspan></text>
        </g>
      </g>
      <g class="cls-40">
        <g class="cls-40">
          <text class="cls-39" transform="translate(1132.35 296.72)"><tspan x="0" y="0">Osses Flores, Roberto</tspan></text>
        </g>
      </g>
      <g class="cls-40">
        <g class="cls-40">
          <text class="cls-39" transform="translate(1132.35 315.07)"><tspan x="0" y="0">Donoso Cisternas, Sergio</tspan></text>
        </g>
      </g>
      <g class="cls-40">
        <g class="cls-40">
          <text class="cls-39" transform="translate(1132.35 333.43)"><tspan x="0" y="0">De la Sotta Lazzerini, Paola</tspan></text>
        </g>
      </g>
      <g class="cls-40">
        <g class="cls-40">
          <text class="cls-39" transform="translate(1132.35 351.33)"><tspan x="0" y="0">Soto Calquín, Leonardo</tspan></text>
        </g>
      </g>
      <g class="cls-40">
        <g class="cls-40">
          <text class="cls-39" transform="translate(1132.35 373.96)"><tspan x="0" y="0">Cortez Orellana, Felipe</tspan></text>
        </g>
      </g>
      <g class="cls-40">
        <g class="cls-40">
          <text class="cls-39" transform="translate(1132.35 396.14)"><tspan x="0" y="0">Castillo Espinoza, Eduardo</tspan></text>
        </g>
      </g>
      <g class="cls-40">
        <g class="cls-40">
          <text class="cls-39" transform="translate(1132.35 419.27)"><tspan x="0" y="0">Abud Carrillo, Jenny</tspan></text>
        </g>
      </g>
      <g class="cls-40">
        <g class="cls-40">
          <text class="cls-36" transform="translate(1132.35 444.3)"><tspan x="0" y="0">W</tspan></text>
          <text class="cls-39" transform="translate(1140.68 444.3)"><tspan x="0" y="0">echsler Pizarro,</tspan></text>
          <text class="cls-29" transform="translate(1207.72 444.3)"><tspan x="0" y="0"> </tspan></text>
          <text class="cls-39" transform="translate(1209.88 444.3)"><tspan x="0" y="0">Andrea</tspan></text>
        </g>
      </g>
      <g class="cls-40">
        <g class="cls-40">
          <text class="cls-39" transform="translate(1132.35 471.25)"><tspan x="0" y="0">Dueñas Santande</tspan></text>
          <text class="cls-41" transform="translate(1207.87 471.25)"><tspan x="0" y="0">r</tspan></text>
          <text class="cls-39" transform="translate(1210.88 471.25)"><tspan x="0" y="0">, Rodrigo</tspan></text>
        </g>
      </g>
      <g class="cls-40">
        <g class="cls-40">
          <text class="cls-39" transform="translate(1132.35 500.1)"><tspan x="0" y="0">Jacob Dazarola, Rubén</tspan></text>
        </g>
      </g>
      <g class="cls-40">
        <g class="cls-40">
          <text class="cls-39" transform="translate(1132.35 531.81)"><tspan x="0" y="0">Ode Saleh, </tspan></text>
          <text class="cls-41" transform="translate(1181.37 531.81)"><tspan x="0" y="0">V</tspan></text>
          <text class="cls-39" transform="translate(1186.87 531.81)"><tspan x="0" y="0">erónica</tspan></text>
        </g>
      </g>
      <g class="cls-40">
        <g class="cls-40">
          <text class="cls-31" transform="translate(107.8 129.06)"><tspan x="0" y="0">Diseño</tspan></text>
        </g>
      </g>
      <g class="cls-40">
        <g class="cls-40">
          <text class="cls-39" transform="translate(1132.35 573.56)"><tspan x="0" y="0">Domínguez González, Pablo</tspan></text>
        </g>
      </g>
      <g class="cls-40">
        <g class="cls-40">
          <text class="cls-31" transform="translate(20 232.82)"><tspan x="0" y="0">Diseño con mención I y S</tspan></text>
        </g>
      </g>
      <g class="cls-40">
        <g class="cls-40">
          <text class="cls-31" transform="translate(0 415.26)"><tspan x="0" y="0">Diseño con mención en V y M</tspan></text>
        </g>
      </g>
      <g class="cls-40">
        <text class="cls-32" transform="translate(1125.52 10.29)"><tspan x="0" y="0">Profesores Guias</tspan></text>
      </g>
      <g class="cls-40">
        <text class="cls-26" transform="translate(52.06 95.28)"><tspan x="0" y="0">T</tspan></text>
        <text class="cls-32" transform="translate(59.17 95.28)"><tspan x="0" y="0">itulo Profesional</tspan></text>
      </g>
    </g>
  </g>
</svg>