<?xml version="1.0" encoding="UTF-8"?>
<svg xmlns="http://www.w3.org/2000/svg" viewBox="0 0 1255.05 606.04">
  <defs>
    <style>
      .cls-1 {
        letter-spacing: -.02em;
      }

      .cls-2, .cls-3, .cls-4, .cls-5, .cls-6, .cls-7, .cls-8, .cls-9, .cls-10, .cls-11, .cls-12, .cls-13, .cls-14, .cls-15, .cls-16, .cls-17, .cls-18, .cls-19, .cls-20, .cls-21, .cls-22, .cls-23, .cls-24 {
        fill: none;
      }

      .cls-2, .cls-3, .cls-6, .cls-7, .cls-9, .cls-10, .cls-12, .cls-14, .cls-17, .cls-20 {
        stroke: #e1358b;
      }

      .cls-2, .cls-11, .cls-23 {
        stroke-width: 1.91px;
      }

      .cls-3, .cls-24 {
        stroke-width: 19.08px;
      }

      .cls-25 {
        font-size: 8px;
      }

      .cls-25, .cls-26, .cls-27, .cls-28, .cls-29, .cls-30 {
        fill: #000;
      }

      .cls-25, .cls-27, .cls-28, .cls-31, .cls-29, .cls-30 {
        font-family: Arial-BoldMT, Arial;
        font-weight: 700;
      }

      .cls-25, .cls-27, .cls-28, .cls-31, .cls-29, .cls-30, .cls-32 {
        isolation: isolate;
      }

      .cls-4, .cls-8, .cls-13, .cls-15, .cls-18, .cls-21, .cls-22, .cls-23, .cls-24 {
        stroke: #f9d70d;
      }

      .cls-4, .cls-16 {
        stroke-width: 7.63px;
      }

      .cls-5, .cls-11, .cls-16, .cls-19 {
        stroke: #00a9cf;
      }

      .cls-5, .cls-20, .cls-21 {
        stroke-width: 5.72px;
      }

      .cls-6 {
        stroke-width: 15.27px;
      }

      .cls-7, .cls-8, .cls-19 {
        stroke-width: 3.82px;
      }

      .cls-33 {
        mix-blend-mode: multiply;
      }

      .cls-9, .cls-18 {
        stroke-width: 11.45px;
      }

      .cls-10 {
        stroke-width: 9.54px;
      }

      .cls-12, .cls-13 {
        stroke-width: 13.36px;
      }

      .cls-34 {
        letter-spacing: -.04em;
      }

      .cls-26, .cls-35 {
        stroke-width: 0px;
      }

      .cls-36 {
        letter-spacing: -.07em;
      }

      .cls-27 {
        font-size: 7px;
      }

      .cls-28 {
        font-size: 10px;
      }

      .cls-37 {
        letter-spacing: -.06em;
      }

      .cls-31 {
        fill: #7b7b7b;
        font-size: 12px;
      }

      .cls-14 {
        stroke-width: 17.17px;
      }

      .cls-15 {
        stroke-width: 24.81px;
      }

      .cls-29 {
        font-size: 6px;
      }

      .cls-17 {
        stroke-width: 22.9px;
      }

      .cls-30 {
        font-size: 9px;
      }

      .cls-35 {
        fill: #fff;
      }

      .cls-22 {
        stroke-width: 41.98px;
      }
    </style>
  </defs>
  <g class="cls-32">
    <g id="Capa_1" data-name="Capa 1">
      <rect id="background" class="cls-35" x="138.02" y="6.04" width="1000" height="600"/>
      <g>
        <rect class="cls-26" x="1123.02" y="16.04" width="5" height="1.91"/>
        <rect class="cls-26" x="1123.02" y="22.95" width="5" height="1.91"/>
        <rect class="cls-26" x="1123.02" y="29.86" width="5" height="1.91"/>
        <rect class="cls-26" x="1123.02" y="36.77" width="5" height="1.91"/>
        <rect class="cls-26" x="1123.02" y="43.68" width="5" height="1.91"/>
        <rect class="cls-26" x="1123.02" y="50.58" width="5" height="1.91"/>
        <rect class="cls-26" x="1123.02" y="57.49" width="5" height="3.82"/>
        <rect class="cls-26" x="1123.02" y="66.31" width="5" height="3.82"/>
        <rect class="cls-26" x="1123.02" y="75.13" width="5" height="3.82"/>
        <rect class="cls-26" x="1123.02" y="83.94" width="5" height="3.82"/>
        <rect class="cls-26" x="1123.02" y="92.76" width="5" height="3.82"/>
        <rect class="cls-26" x="1123.02" y="101.57" width="5" height="3.82"/>
        <rect class="cls-26" x="1123.02" y="110.39" width="5" height="3.82"/>
        <rect class="cls-26" x="1123.02" y="119.21" width="5" height="5.72"/>
        <rect class="cls-26" x="1123.02" y="129.93" width="5" height="5.72"/>
        <rect class="cls-26" x="1123.02" y="140.66" width="5" height="5.72"/>
        <rect class="cls-26" x="1123.02" y="151.38" width="5" height="5.72"/>
        <rect class="cls-26" x="1123.02" y="162.11" width="5" height="5.72"/>
        <rect class="cls-26" x="1123.02" y="172.83" width="5" height="7.63"/>
        <rect class="cls-26" x="1123.02" y="185.46" width="5" height="7.63"/>
        <rect class="cls-26" x="1123.02" y="198.1" width="5" height="7.63"/>
        <rect class="cls-26" x="1123.02" y="210.73" width="5" height="7.63"/>
        <rect class="cls-26" x="1123.02" y="223.36" width="5" height="9.54"/>
        <rect class="cls-26" x="1123.02" y="237.9" width="5" height="11.45"/>
        <rect class="cls-26" x="1123.02" y="254.35" width="5" height="11.45"/>
        <rect class="cls-26" x="1123.02" y="270.8" width="5" height="11.45"/>
        <rect class="cls-26" x="1123.02" y="287.25" width="5" height="13.36"/>
        <rect class="cls-26" x="1123.02" y="305.61" width="5" height="13.36"/>
        <rect class="cls-26" x="1123.02" y="323.97" width="5" height="13.36"/>
        <rect class="cls-26" x="1123.02" y="342.32" width="5" height="15.27"/>
        <rect class="cls-26" x="1123.02" y="362.59" width="5" height="17.17"/>
        <rect class="cls-26" x="1123.02" y="384.76" width="5" height="17.17"/>
        <rect class="cls-26" x="1123.02" y="406.94" width="5" height="19.08"/>
        <rect class="cls-26" x="1123.02" y="431.02" width="5" height="20.99"/>
        <rect class="cls-26" x="1123.02" y="457.01" width="5" height="22.9"/>
        <rect class="cls-26" x="1123.02" y="484.91" width="5" height="24.81"/>
        <rect class="cls-26" x="1123.02" y="514.71" width="5" height="28.62"/>
        <rect class="cls-26" x="148.02" y="103.54" width="5" height="45.8"/>
        <rect class="cls-26" x="1123.02" y="548.34" width="5" height="47.71"/>
        <rect class="cls-26" x="148.02" y="154.34" width="5" height="154.57"/>
        <rect class="cls-26" x="148.02" y="313.91" width="5" height="194.64"/>
      </g>
      <g class="cls-33">
        <path class="cls-14" d="M153.02,429.35c485,0,485-58.18,970-58.18"/>
      </g>
      <g class="cls-33">
        <path class="cls-7" d="M153.02,319.63c485,0,485-260.23,970-260.23"/>
      </g>
      <g class="cls-33">
        <path class="cls-5" d="M153.02,142.66c485,0,485,374.92,970,374.92"/>
      </g>
      <g class="cls-33">
        <path class="cls-4" d="M153.02,175.33c485,0,485,1.32,970,1.32"/>
      </g>
      <g class="cls-33">
        <path class="cls-4" d="M153.02,182.96c485,0,485,6.32,970,6.32"/>
      </g>
      <g class="cls-33">
        <path class="cls-20" d="M153.02,337.76c485,0,485-215.69,970-215.69"/>
      </g>
      <g class="cls-33">
        <path class="cls-2" d="M153.02,507.59c485,0,485,87.5,970,87.5"/>
      </g>
      <g class="cls-33">
        <path class="cls-12" d="M153.02,398.82c485,0,485-104.89,970-104.89"/>
      </g>
      <g class="cls-33">
        <path class="cls-22" d="M153.02,287.92c485,0,485,285.23,970,285.23"/>
      </g>
      <g class="cls-33">
        <path class="cls-15" d="M153.02,254.52c485,0,485,242.79,970,242.79"/>
      </g>
      <g class="cls-33">
        <path class="cls-24" d="M153.02,232.58c485,0,485,207.98,970,207.98"/>
      </g>
      <g class="cls-33">
        <path class="cls-18" d="M153.02,203.95c485,0,485,109.29,970,109.29"/>
      </g>
      <g class="cls-33">
        <path class="cls-17" d="M153.02,495.19c485,0,485,36.7,970,36.7"/>
      </g>
      <g class="cls-33">
        <path class="cls-10" d="M153.02,442.71c485,0,485-45.54,970-45.54"/>
      </g>
      <g class="cls-33">
        <path class="cls-3" d="M153.02,474.2c485,0,485-3.83,970-3.83"/>
      </g>
      <g class="cls-33">
        <path class="cls-16" d="M153.02,128.35c485,0,485,260.23,970,260.23"/>
      </g>
      <g class="cls-33">
        <path class="cls-6" d="M153.02,455.11c485,0,485-36.73,970-36.73"/>
      </g>
      <g class="cls-33">
        <path class="cls-7" d="M153.02,323.45c485,0,485-255.23,970-255.23"/>
      </g>
      <g class="cls-33">
        <path class="cls-19" d="M153.02,134.07c485,0,485,274.77,970,274.77"/>
      </g>
      <g class="cls-33">
        <path class="cls-11" d="M153.02,108.31c485,0,485,22.57,970,22.57"/>
      </g>
      <g class="cls-33">
        <path class="cls-19" d="M153.02,147.43c485,0,485,402.81,970,402.81"/>
      </g>
      <g class="cls-33">
        <path class="cls-2" d="M153.02,326.31c485,0,485-248.32,970-248.32"/>
      </g>
      <g class="cls-33">
        <path class="cls-21" d="M153.02,189.64c485,0,485,13.22,970,13.22"/>
      </g>
      <g class="cls-33">
        <path class="cls-11" d="M153.02,115.95c485,0,485,83.1,970,83.1"/>
      </g>
      <g class="cls-33">
        <path class="cls-13" d="M153.02,216.36c485,0,485,114.29,970,114.29"/>
      </g>
      <g class="cls-33">
        <path class="cls-7" d="M153.02,346.35c485,0,485-201.87,970-201.87"/>
      </g>
      <g class="cls-33">
        <path class="cls-10" d="M153.02,366.38c485,0,485-121.8,970-121.8"/>
      </g>
      <g class="cls-33">
        <path class="cls-6" d="M153.02,413.13c485,0,485-63.18,970-63.18"/>
      </g>
      <g class="cls-33">
        <path class="cls-11" d="M153.02,119.76c485,0,485,119.09,970,119.09"/>
      </g>
      <g class="cls-33">
        <path class="cls-9" d="M153.02,376.88c485,0,485-116.8,970-116.8"/>
      </g>
      <g class="cls-33">
        <path class="cls-7" d="M153.02,342.53c485,0,485-208.78,970-208.78"/>
      </g>
      <g class="cls-33">
        <path class="cls-23" d="M153.02,159.11c485,0,485-83.03,970-83.03"/>
      </g>
      <g class="cls-33">
        <path class="cls-19" d="M153.02,137.89c485,0,485,321.03,970,321.03"/>
      </g>
      <g class="cls-33">
        <path class="cls-23" d="M153.02,155.29c485,0,485-138.3,970-138.3"/>
      </g>
      <g class="cls-33">
        <path class="cls-10" d="M153.02,387.37c485,0,485-109.89,970-109.89"/>
      </g>
      <g class="cls-33">
        <path class="cls-11" d="M153.02,104.5c485,0,485-80.59,970-80.59"/>
      </g>
      <g class="cls-33">
        <path class="cls-2" d="M153.02,314.86c485,0,485-284.05,970-284.05"/>
      </g>
      <g class="cls-33">
        <path class="cls-8" d="M153.02,169.61c485,0,485-14.41,970-14.41"/>
      </g>
      <g class="cls-33">
        <path class="cls-10" d="M153.02,356.84c485,0,485-128.71,970-128.71"/>
      </g>
      <g class="cls-33">
        <path class="cls-11" d="M153.02,110.22c485,0,485,31.39,970,31.39"/>
      </g>
      <g class="cls-33">
        <path class="cls-11" d="M153.02,114.04c485,0,485,49.02,970,49.02"/>
      </g>
      <g class="cls-33">
        <path class="cls-23" d="M153.02,157.2c485,0,485-119.48,970-119.48"/>
      </g>
      <g class="cls-33">
        <path class="cls-7" d="M153.02,350.16c485,0,485-184.24,970-184.24"/>
      </g>
      <g class="cls-33">
        <path class="cls-11" d="M153.02,121.67c485,0,485,150.08,970,150.08"/>
      </g>
      <g class="cls-33">
        <path class="cls-8" d="M153.02,161.97c485,0,485-76.12,970-76.12"/>
      </g>
      <g class="cls-33">
        <path class="cls-11" d="M153.02,112.13c485,0,485,40.21,970,40.21"/>
      </g>
      <g class="cls-33">
        <path class="cls-2" d="M153.02,463.7c485,0,485-12.64,970-12.64"/>
      </g>
      <g class="cls-33">
        <path class="cls-7" d="M153.02,329.17c485,0,485-234.5,970-234.5"/>
      </g>
      <g class="cls-33">
        <path class="cls-21" d="M153.02,195.37c485,0,485,20.13,970,20.13"/>
      </g>
      <g class="cls-33">
        <path class="cls-11" d="M153.02,117.85c485,0,485,93.83,970,93.83"/>
      </g>
      <g class="cls-33">
        <path class="cls-8" d="M153.02,165.79c485,0,485-62.31,970-62.31"/>
      </g>
      <g class="cls-33">
        <path class="cls-7" d="M153.02,332.99c485,0,485-220.69,970-220.69"/>
      </g>
      <g class="cls-33">
        <path class="cls-11" d="M153.02,123.58c485,0,485,182.98,970,182.98"/>
      </g>
      <g class="cls-33">
        <path class="cls-11" d="M153.02,106.41c485,0,485-61.78,970-61.78"/>
      </g>
      <g class="cls-33">
        <path class="cls-2" d="M153.02,316.77c485,0,485-265.23,970-265.23"/>
      </g>
      <g class="cls-32">
        <text class="cls-29" transform="translate(1132.35 18.38)"><tspan x="0" y="0">Santibañez Boric, Mónica</tspan></text>
      </g>
      <g class="cls-32">
        <text class="cls-29" transform="translate(1132.35 25.29)"><tspan x="0" y="0">Ruiz Balart, Macarena</tspan></text>
      </g>
      <g class="cls-32">
        <text class="cls-29" transform="translate(1132.35 32.29)"><tspan x="0" y="0">Stange Marcus, Hans</tspan></text>
      </g>
      <g class="cls-32">
        <text class="cls-29" transform="translate(1132.35 39.1)"><tspan x="0" y="0">Molina Oyarzún, Raúl</tspan></text>
      </g>
      <g class="cls-32">
        <text class="cls-29" transform="translate(1132.35 45.58)"><tspan x="0" y="0">Silva Roquefort, Rebeca</tspan></text>
      </g>
      <g class="cls-32">
        <text class="cls-29" transform="translate(1132.79 52.49)"><tspan x="0" y="0">Mora Briones,</tspan><tspan class="cls-34" x="40.01" y="0"> </tspan><tspan x="41.45" y="0">Alfredo</tspan></text>
      </g>
      <g class="cls-32">
        <text class="cls-27" transform="translate(1132.77 61.31)"><tspan class="cls-1" x="0" y="0">V</tspan><tspan x="4.54" y="0">ico Sánchez, Mauricio</tspan></text>
      </g>
      <g class="cls-32">
        <text class="cls-27" transform="translate(1132.56 69.74)"><tspan x="0" y="0">Perelli Soto, Bruno</tspan></text>
      </g>
      <g class="cls-32">
        <text class="cls-27" transform="translate(1132.11 78.94)"><tspan x="0" y="0">Lepe Muñoz, Juan Carlos</tspan></text>
      </g>
      <g class="cls-32">
        <text class="cls-27" transform="translate(1132.35 88.46)"><tspan x="0" y="0">Perea Morales, René</tspan></text>
      </g>
      <g class="cls-32">
        <text class="cls-27" transform="translate(1132.03 96.57)"><tspan x="0" y="0">Méndez Olivares, Iván</tspan></text>
      </g>
      <g class="cls-32">
        <text class="cls-27" transform="translate(1132.01 105.39)"><tspan x="0" y="0">Benavides Bermúdez, Paola</tspan></text>
      </g>
      <g class="cls-32">
        <text class="cls-27" transform="translate(1131.73 114.21)"><tspan x="0" y="0">Jove</tspan><tspan class="cls-34" x="15.96" y="0" xml:space="preserve"> A</tspan><tspan x="22.44" y="0">vilés, </tspan><tspan class="cls-37" x="41.89" y="0">T</tspan><tspan x="45.78" y="0">rinidad</tspan></text>
      </g>
      <g class="cls-32">
        <text class="cls-25" transform="translate(1132.35 124.87)"><tspan x="0" y="0">Gómez Moya, Cristián</tspan></text>
      </g>
      <g class="cls-32">
        <text class="cls-25" transform="translate(1132.35 135.59)"><tspan x="0" y="0">Reyes León, Daniel</tspan></text>
      </g>
      <g class="cls-32">
        <text class="cls-25" transform="translate(1132.35 146.32)"><tspan x="0" y="0">Zorzano Betancourt, Osvaldo</tspan></text>
      </g>
      <g class="cls-32">
        <text class="cls-25" transform="translate(1132.35 157.04)"><tspan x="0" y="0">Maldonado de la Fuente, Felix</tspan></text>
      </g>
      <g class="cls-32">
        <text class="cls-25" transform="translate(1132.35 167.77)"><tspan x="0" y="0">Pradenas Guentherodt, Gabriela</tspan></text>
      </g>
      <g class="cls-32">
        <text class="cls-25" transform="translate(1132.35 179.44)"><tspan class="cls-36" x="0" y="0">T</tspan><tspan x="4.29" y="0">apia Reyes, Mauricio</tspan></text>
      </g>
      <g class="cls-32">
        <text class="cls-25" transform="translate(1132.35 192.08)"><tspan x="0" y="0">Lares López, Lorna</tspan></text>
      </g>
      <g class="cls-32">
        <text class="cls-25" transform="translate(1132.35 204.71)"><tspan x="0" y="0">Nuñez Gutiérrez, Pablo</tspan></text>
      </g>
      <g class="cls-32">
        <text class="cls-25" transform="translate(1132.35 217.34)"><tspan x="0" y="0">Marín Pacheco,</tspan><tspan class="cls-34" x="58.69" y="0"> </tspan><tspan x="60.61" y="0">Antonio</tspan></text>
      </g>
      <g class="cls-32">
        <text class="cls-30" transform="translate(1132.35 230.93)"><tspan x="0" y="0">Pagueguy Fenne</tspan><tspan class="cls-37" x="72.01" y="0">r</tspan><tspan x="75.02" y="0">, Sebastián</tspan></text>
      </g>
      <g class="cls-32">
        <text class="cls-30" transform="translate(1132.35 246.43)"><tspan x="0" y="0">Gatica Ramírez, Pamela</tspan></text>
      </g>
      <g class="cls-32">
        <text class="cls-30" transform="translate(1132.35 262.87)"><tspan x="0" y="0">Morales Mujica, María Paz</tspan></text>
      </g>
      <g class="cls-32">
        <text class="cls-30" transform="translate(1132.36 279.32)"><tspan class="cls-36" x="0" y="0">Y</tspan><tspan x="5.33" y="0">oung</tspan><tspan class="cls-34" x="27.33" y="0"> </tspan><tspan x="29.49" y="0">Araya, Mariana</tspan></text>
      </g>
      <g class="cls-32">
        <text class="cls-30" transform="translate(1132.35 296.73)"><tspan x="0" y="0">Osses Flores, Roberto</tspan></text>
      </g>
      <g class="cls-32">
        <text class="cls-30" transform="translate(1132.35 315.08)"><tspan x="0" y="0">Donoso Cisternas, Sergio</tspan></text>
      </g>
      <g class="cls-32">
        <text class="cls-30" transform="translate(1132.35 333.44)"><tspan x="0" y="0">De la Sotta Lazzerini, Paola</tspan></text>
      </g>
      <g class="cls-32">
        <text class="cls-30" transform="translate(1132.35 351.34)"><tspan x="0" y="0">Soto Calquín, Leonardo</tspan></text>
      </g>
      <g class="cls-32">
        <text class="cls-30" transform="translate(1132.35 373.97)"><tspan x="0" y="0">Cortez Orellana, Felipe</tspan></text>
      </g>
      <g class="cls-32">
        <text class="cls-30" transform="translate(1132.35 396.15)"><tspan x="0" y="0">Castillo Espinoza, Eduardo</tspan></text>
      </g>
      <g class="cls-32">
        <text class="cls-30" transform="translate(1132.35 419.28)"><tspan x="0" y="0">Abud Carrillo, Jenny</tspan></text>
      </g>
      <g class="cls-32">
        <text class="cls-30" transform="translate(1132.35 444.31)"><tspan class="cls-1" x="0" y="0">W</tspan><tspan x="8.33" y="0">echsler Pizarro,</tspan><tspan class="cls-34" x="75.37" y="0"> </tspan><tspan x="77.53" y="0">Andrea</tspan></text>
      </g>
      <g class="cls-32">
        <text class="cls-30" transform="translate(1132.35 471.26)"><tspan x="0" y="0">Dueñas Santande</tspan><tspan class="cls-37" x="75.52" y="0">r</tspan><tspan x="78.53" y="0">, Rodrigo</tspan></text>
      </g>
      <g class="cls-32">
        <text class="cls-30" transform="translate(1132.35 500.11)"><tspan x="0" y="0">Jacob Dazarola, Rubén</tspan></text>
      </g>
      <g class="cls-32">
        <text class="cls-30" transform="translate(1132.35 531.82)"><tspan x="0" y="0">Ode Saleh, </tspan><tspan class="cls-37" x="49.02" y="0">V</tspan><tspan x="54.52" y="0">erónica</tspan></text>
      </g>
      <g class="cls-32">
        <text class="cls-28" transform="translate(107.8 129.07)"><tspan x="0" y="0">Diseño</tspan></text>
      </g>
      <g class="cls-32">
        <text class="cls-30" transform="translate(1132.35 573.57)"><tspan x="0" y="0">Domínguez González, Pablo</tspan></text>
      </g>
      <g class="cls-32">
        <text class="cls-28" transform="translate(20 232.83)"><tspan x="0" y="0">Diseño con mención I y S</tspan></text>
      </g>
      <g class="cls-32">
        <text class="cls-28" transform="translate(0 415.27)"><tspan x="0" y="0">Diseño con mención en V y M</tspan></text>
      </g>
      <text class="cls-31" transform="translate(1125.52 10.3)"><tspan x="0" y="0">Profesores Guias</tspan></text>
      <text class="cls-31" transform="translate(52.06 95.29)"><tspan class="cls-1" x="0" y="0">T</tspan><tspan x="7.11" y="0">itulo Profesional</tspan></text>
    </g>
  </g>
</svg>