<?xml version="1.0" encoding="UTF-8"?><svg xmlns="http://www.w3.org/2000/svg" viewBox="0 0 1481.76 806.52"><defs><style>.cls-1,.cls-2,.cls-3,.cls-4,.cls-5,.cls-6,.cls-7,.cls-8,.cls-9,.cls-10,.cls-11,.cls-12,.cls-13,.cls-14,.cls-15,.cls-16,.cls-17,.cls-18,.cls-19,.cls-20,.cls-21,.cls-22,.cls-23,.cls-24,.cls-25,.cls-26,.cls-27,.cls-28,.cls-29,.cls-30,.cls-31,.cls-32,.cls-33,.cls-34,.cls-35,.cls-36,.cls-37,.cls-38,.cls-39,.cls-40,.cls-41,.cls-42,.cls-43,.cls-44,.cls-45,.cls-46,.cls-47,.cls-48,.cls-49,.cls-50,.cls-51,.cls-52,.cls-53,.cls-54,.cls-55,.cls-56,.cls-57,.cls-58,.cls-59,.cls-60,.cls-61,.cls-62,.cls-63{fill:none;}.cls-1,.cls-3,.cls-4,.cls-7,.cls-10,.cls-14,.cls-18,.cls-19,.cls-23,.cls-24,.cls-25,.cls-27,.cls-28,.cls-29,.cls-30,.cls-32,.cls-35,.cls-36,.cls-45,.cls-46,.cls-52,.cls-53,.cls-57,.cls-59,.cls-61,.cls-63{stroke-width:2.87px;}.cls-1,.cls-5{stroke:#cdeb9f;}.cls-2,.cls-8,.cls-21,.cls-38,.cls-42,.cls-44,.cls-56{stroke-width:8.62px;}.cls-2,.cls-36{stroke:#c42127;}.cls-64{letter-spacing:-.02em;}.cls-3,.cls-6,.cls-38,.cls-62{stroke:#437db3;}.cls-4{stroke:#e0f3a1;}.cls-5,.cls-6,.cls-11,.cls-15,.cls-16,.cls-22,.cls-40,.cls-41,.cls-49,.cls-50,.cls-60{stroke-width:5.75px;}.cls-7,.cls-9,.cls-15,.cls-33,.cls-37,.cls-39,.cls-42,.cls-43,.cls-48{stroke:#3a4f8a;}.cls-8,.cls-41,.cls-46,.cls-58{stroke:#9cd7a3;}.cls-9{stroke-width:40.24px;}.cls-10{stroke:#ce3c41;}.cls-11,.cls-19,.cls-34,.cls-44,.cls-51{stroke:#eef8a8;}.cls-12,.cls-13,.cls-20,.cls-21,.cls-26,.cls-54,.cls-55,.cls-57,.cls-60{stroke:#4d66ac;}.cls-12,.cls-31,.cls-48,.cls-51,.cls-58,.cls-62{stroke-width:11.5px;}.cls-13{stroke-width:23px;}.cls-14{stroke:#82cca5;}.cls-16,.cls-53{stroke:#faa05c;}.cls-17,.cls-26,.cls-33,.cls-34{stroke-width:14.37px;}.cls-17,.cls-32,.cls-40,.cls-47{stroke:#4fa590;}.cls-18,.cls-31{stroke:#fdf5ad;}.cls-65{opacity:.33;}.cls-65,.cls-66,.cls-67{stroke-width:0px;}.cls-65,.cls-67{fill:#fff;}.cls-20,.cls-43{stroke-width:17.25px;}.cls-22,.cls-25,.cls-56{stroke:#fecb7b;}.cls-68{mix-blend-mode:multiply;}.cls-23{stroke:#d9464b;}.cls-24{stroke:#fdb76a;}.cls-69{font-size:11px;}.cls-69,.cls-66,.cls-70,.cls-71{fill:#000;}.cls-69,.cls-72,.cls-70,.cls-73,.cls-71{isolation:isolate;}.cls-69,.cls-72,.cls-70,.cls-71{font-family:Arial-BoldMT, Arial;font-weight:700;}.cls-27{stroke:#feeb9f;}.cls-28{stroke:#fedd8d;}.cls-29{stroke:#f0704a;}.cls-30{stroke:#e75b49;}.cls-74{letter-spacing:-.04em;}.cls-75{letter-spacing:-.07em;}.cls-76{letter-spacing:-.06em;}.cls-35{stroke:#69bda9;}.cls-37{stroke-width:31.62px;}.cls-39{stroke-width:66.11px;}.cls-77{opacity:.81;}.cls-45{stroke:#f78751;}.cls-47{stroke-width:20.12px;}.cls-49,.cls-63{stroke:#c72f34;}.cls-72{fill:#7b7b7b;font-size:14px;}.cls-50,.cls-52{stroke:#b6e2a1;}.cls-70{font-size:9px;}.cls-54{stroke-width:34.49px;}.cls-55{stroke-width:43.12px;}.cls-59{stroke:#59ad99;}.cls-71{font-size:12px;}.cls-61{stroke:#f8f9b0;}</style></defs><g class="cls-73"><g id="Capa_1"><rect id="background" class="cls-67" x="149.08" y="6.52" width="1200" height="800"/><g class="cls-77"><g class="cls-68"><path class="cls-9" d="M164.08,640.04c291.25,0,291.25-38.99,582.5-38.99"/></g><g class="cls-68"><path class="cls-37" d="M164.08,693.21c291.25,0,291.25,50,582.5,50"/></g><g class="cls-68"><path class="cls-38" d="M164.08,154.33c291.25,0,291.25,399.3,582.5,399.3"/></g><g class="cls-68"><path class="cls-60" d="M164.08,269.99c291.25,0,291.25,81.86,582.5,81.86"/></g><g class="cls-68"><path class="cls-55" d="M164.08,389.28c291.25,0,291.25,316.57,582.5,316.57"/></g><g class="cls-68"><path class="cls-43" d="M164.08,447.45c291.25,0,291.25-282.2,582.5-282.2"/></g><g class="cls-68"><path class="cls-42" d="M164.08,420.15c291.25,0,291.25-353.19,582.5-353.19"/></g><g class="cls-68"><path class="cls-26" d="M164.08,193.82c291.25,0,291.25-107.49,582.5-107.49"/></g><g class="cls-68"><path class="cls-42" d="M164.08,503.5c291.25,0,291.25-219.83,582.5-219.83"/></g><g class="cls-68"><path class="cls-39" d="M164.08,563.87c291.25,0,291.25-125.1,582.5-125.1"/></g><g class="cls-68"><path class="cls-15" d="M164.08,458.95c291.25,0,291.25-277.2,582.5-277.2"/></g><g class="cls-68"><path class="cls-60" d="M164.08,364.84c291.25,0,291.25,294.32,582.5,294.32"/></g><g class="cls-68"><path class="cls-54" d="M164.08,290.11c291.25,0,291.25,98.36,582.5,98.36"/></g><g class="cls-68"><path class="cls-60" d="M164.08,359.1c291.25,0,291.25,277.83,582.5,277.83"/></g><g class="cls-68"><path class="cls-12" d="M164.08,327.48c291.25,0,291.25,193.84,582.5,193.84"/></g><g class="cls-68"><path class="cls-12" d="M164.08,261.37c291.25,0,291.25,62.49,582.5,62.49"/></g><g class="cls-68"><path class="cls-62" d="M164.08,167.26c291.25,0,291.25,511.28,582.5,511.28"/></g><g class="cls-68"><path class="cls-42" d="M164.08,667.34c291.25,0,291.25-23.24,582.5-23.24"/></g><g class="cls-68"><path class="cls-42" d="M164.08,512.13c291.25,0,291.25-209.08,582.5-209.08"/></g><g class="cls-68"><path class="cls-62" d="M164.08,135.64c291.25,0,291.25,229.83,582.5,229.83"/></g><g class="cls-68"><path class="cls-3" d="M164.08,108.33c291.25,0,291.25,16.74,582.5,16.74"/></g><g class="cls-68"><path class="cls-20" d="M164.08,238.37c291.25,0,291.25-7.13,582.5-7.13"/></g><g class="cls-68"><path class="cls-3" d="M164.08,114.08c291.25,0,291.25,76.98,582.5,76.98"/></g><g class="cls-68"><path class="cls-37" d="M164.08,483.38c291.25,0,291.25-227.71,582.5-227.71"/></g><g class="cls-68"><path class="cls-15" d="M164.08,674.53c291.25,0,291.25-9.61,582.5-9.61"/></g><g class="cls-68"><path class="cls-57" d="M164.08,225.44c291.25,0,291.25-31.5,582.5-31.5"/></g><g class="cls-68"><path class="cls-60" d="M164.08,221.12c291.25,0,291.25-67.37,582.5-67.37"/></g><g class="cls-68"><path class="cls-21" d="M164.08,311.67c291.25,0,291.25,169.47,582.5,169.47"/></g><g class="cls-68"><path class="cls-15" d="M164.08,464.7c291.25,0,291.25-266.45,582.5-266.45"/></g><g class="cls-68"><path class="cls-21" d="M164.08,182.32c291.25,0,291.25-123.99,582.5-123.99"/></g><g class="cls-68"><path class="cls-38" d="M164.08,119.83c291.25,0,291.25,98.48,582.5,98.48"/></g><g class="cls-68"><path class="cls-13" d="M164.08,344.72c291.25,0,291.25,224.71,582.5,224.71"/></g><g class="cls-68"><path class="cls-21" d="M164.08,205.32c291.25,0,291.25-90.99,582.5-90.99"/></g><g class="cls-68"><path class="cls-33" d="M164.08,523.62c291.25,0,291.25-186.84,582.5-186.84"/></g><g class="cls-68"><path class="cls-3" d="M164.08,160.07c291.25,0,291.25,494.78,582.5,494.78"/></g><g class="cls-68"><path class="cls-21" d="M164.08,213.94c291.25,0,291.25-78.12,582.5-78.12"/></g><g class="cls-68"><path class="cls-57" d="M164.08,248.43c291.25,0,291.25,29.49,582.5,29.49"/></g><g class="cls-68"><path class="cls-6" d="M164.08,127.02c291.25,0,291.25,188.21,582.5,188.21"/></g><g class="cls-68"><path class="cls-7" d="M164.08,437.39c291.25,0,291.25-295.82,582.5-295.82"/></g><g class="cls-68"><path class="cls-38" d="M164.08,145.7c291.25,0,291.25,349.06,582.5,349.06"/></g><g class="cls-68"><path class="cls-48" d="M164.08,430.21c291.25,0,291.25-330.94,582.5-330.94"/></g><g class="cls-68"><path class="cls-43" d="M164.08,611.29c291.25,0,291.25-75.6,582.5-75.6"/></g><g class="cls-68"><path class="cls-60" d="M164.08,252.74c291.25,0,291.25,43.12,582.5,43.12"/></g><g class="cls-68"><path class="cls-60" d="M164.08,318.85c291.25,0,291.25,183.09,582.5,183.09"/></g><g class="cls-68"><path class="cls-57" d="M164.08,228.31c291.25,0,291.25-20.75,582.5-20.75"/></g><g class="cls-68"><path class="cls-7" d="M164.08,661.6c291.25,0,291.25-33.99,582.5-33.99"/></g><g class="cls-68"><path class="cls-15" d="M164.08,599.8c291.25,0,291.25-92.1,582.5-92.1"/></g><g class="cls-68"><path class="cls-3" d="M164.08,105.46c291.25,0,291.25-27.75,582.5-27.75"/></g><g class="cls-68"><path class="cls-3" d="M164.08,111.21c291.25,0,291.25,38.24,582.5,38.24"/></g></g><g class="cls-77"><g class="cls-68"><path class="cls-46" d="M751.58,565.12c291.25,0,291.25-454.55,582.5-454.55"/></g><g class="cls-68"><path class="cls-32" d="M751.58,748.96c291.25,0,291.25-26.36,582.5-26.36"/></g><g class="cls-68"><path class="cls-46" d="M751.58,593.87c291.25,0,291.25-56.99,582.5-56.99"/></g><g class="cls-68"><path class="cls-61" d="M751.58,353.29c291.25,0,291.25,352.81,582.5,352.81"/></g><g class="cls-68"><path class="cls-32" d="M751.58,728.84c291.25,0,291.25-340.45,582.5-340.45"/></g><g class="cls-68"><path class="cls-29" d="M751.58,152.32c291.25,0,291.25-59,582.5-59"/></g><g class="cls-68"><path class="cls-40" d="M751.58,704.41c291.25,0,291.25-387.07,582.5-387.07"/></g><g class="cls-68"><path class="cls-2" d="M751.58,58.33c291.25,0,291.25,93.85,582.5,93.85"/></g><g class="cls-68"><path class="cls-41" d="M751.58,598.18c291.25,0,291.25-34.75,582.5-34.75"/></g><g class="cls-68"><path class="cls-49" d="M751.58,82.02c291.25,0,291.25,77.36,582.5,77.36"/></g><g class="cls-68"><path class="cls-47" d="M751.58,717.34c291.25,0,291.25-364.82,582.5-364.82"/></g><g class="cls-68"><path class="cls-40" d="M751.58,753.27c291.25,0,291.25,4.5,582.5,4.5"/></g><g class="cls-68"><path class="cls-32" d="M751.58,688.6c291.25,0,291.25-572.28,582.5-572.28"/></g><g class="cls-68"><path class="cls-61" d="M751.58,350.41c291.25,0,291.25-118.49,582.5-118.49"/></g><g class="cls-68"><path class="cls-28" d="M751.58,286.55c291.25,0,291.25,224.46,582.5,224.46"/></g><g class="cls-68"><path class="cls-51" d="M751.58,434.46c291.25,0,291.25,89.48,582.5,89.48"/></g><g class="cls-68"><path class="cls-45" d="M751.58,180.32c291.25,0,291.25-117.86,582.5-117.86"/></g><g class="cls-68"><path class="cls-32" d="M751.58,700.1c291.25,0,291.25-417.19,582.5-417.19"/></g><g class="cls-68"><path class="cls-44" d="M751.58,444.52c291.25,0,291.25,111.73,582.5,111.73"/></g><g class="cls-68"><path class="cls-59" d="M751.58,657.73c291.25,0,291.25-445.18,582.5-445.18"/></g><g class="cls-68"><path class="cls-51" d="M751.58,376.97c291.25,0,291.25-185.98,582.5-185.98"/></g><g class="cls-68"><path class="cls-35" d="M751.58,641.23c291.25,0,291.25-431.56,582.5-431.56"/></g><g class="cls-68"><path class="cls-50" d="M751.58,541.44c291.25,0,291.25,201.97,582.5,201.97"/></g><g class="cls-68"><path class="cls-18" d="M751.58,342.54c291.25,0,291.25,393.68,582.5,393.68"/></g><g class="cls-68"><path class="cls-17" d="M751.58,679.98c291.25,0,291.25-600.28,582.5-600.28"/></g><g class="cls-68"><path class="cls-34" d="M751.58,398.53c291.25,0,291.25-132.86,582.5-132.86"/></g><g class="cls-68"><path class="cls-41" d="M751.58,580.93c291.25,0,291.25-302.33,582.5-302.33"/></g><g class="cls-68"><path class="cls-35" d="M751.58,638.36c291.25,0,291.25-524.92,582.5-524.92"/></g><g class="cls-68"><path class="cls-27" d="M751.58,297.3c291.25,0,291.25-198.22,582.5-198.22"/></g><g class="cls-68"><path class="cls-11" d="M751.58,362.6c291.25,0,291.25-340.33,582.5-340.33"/></g><g class="cls-68"><path class="cls-58" d="M751.58,555.06c291.25,0,291.25-515.54,582.5-515.54"/></g><g class="cls-68"><path class="cls-19" d="M751.58,458.89c291.25,0,291.25,149.72,582.5,149.72"/></g><g class="cls-68"><path class="cls-23" d="M751.58,125.07c291.25,0,291.25,507.91,582.5,507.91"/></g><g class="cls-68"><path class="cls-22" d="M751.58,222.62c291.25,0,291.25-43.13,582.5-43.13"/></g><g class="cls-68"><path class="cls-53" d="M751.58,191.06c291.25,0,291.25-18.76,582.5-18.76"/></g><g class="cls-68"><path class="cls-25" d="M751.58,232.68c291.25,0,291.25,166.46,582.5,166.46"/></g><g class="cls-68"><path class="cls-11" d="M751.58,425.83c291.25,0,291.25,64.36,582.5,64.36"/></g><g class="cls-68"><path class="cls-32" d="M751.58,734.59c291.25,0,291.25-240.08,582.5-240.08"/></g><g class="cls-68"><path class="cls-59" d="M751.58,660.61c291.25,0,291.25-120.86,582.5-120.86"/></g><g class="cls-68"><path class="cls-22" d="M751.58,216.87c291.25,0,291.25-88.37,582.5-88.37"/></g><g class="cls-68"><path class="cls-45" d="M751.58,183.19c291.25,0,291.25-86.99,582.5-86.99"/></g><g class="cls-68"><path class="cls-27" d="M751.58,305.92c291.25,0,291.25,486.29,582.5,486.29"/></g><g class="cls-68"><path class="cls-28" d="M751.58,277.92c291.25,0,291.25,12.86,582.5,12.86"/></g><g class="cls-68"><path class="cls-35" d="M751.58,644.11c291.25,0,291.25-303.08,582.5-303.08"/></g><g class="cls-68"><path class="cls-46" d="M751.58,608.24c291.25,0,291.25,76.36,582.5,76.36"/></g><g class="cls-68"><path class="cls-53" d="M751.58,193.94c291.25,0,291.25,132.72,582.5,132.72"/></g><g class="cls-68"><path class="cls-29" d="M751.58,155.19c291.25,0,291.25,14.24,582.5,14.24"/></g><g class="cls-68"><path class="cls-46" d="M751.58,585.24c291.25,0,291.25-280.08,582.5-280.08"/></g><g class="cls-68"><path class="cls-19" d="M751.58,369.78c291.25,0,291.25-236.97,582.5-236.97"/></g><g class="cls-68"><path class="cls-4" d="M751.58,478.26c291.25,0,291.25-342.57,582.5-342.57"/></g><g class="cls-68"><path class="cls-19" d="M751.58,418.65c291.25,0,291.25,45.74,582.5,45.74"/></g><g class="cls-68"><path class="cls-19" d="M751.58,461.76c291.25,0,291.25,174.09,582.5,174.09"/></g><g class="cls-68"><path class="cls-16" d="M751.58,198.25c291.25,0,291.25,476.29,582.5,476.29"/></g><g class="cls-68"><path class="cls-36" d="M751.58,66.96c291.25,0,291.25,329.31,582.5,329.31"/></g><g class="cls-68"><path class="cls-4" d="M751.58,484.01c291.25,0,291.25-98.49,582.5-98.49"/></g><g class="cls-68"><path class="cls-22" d="M751.58,228.37c291.25,0,291.25,27.23,582.5,27.23"/></g><g class="cls-68"><path class="cls-46" d="M751.58,605.36c291.25,0,291.25,46.24,582.5,46.24"/></g><g class="cls-68"><path class="cls-10" d="M751.58,111.45c291.25,0,291.25,52.23,582.5,52.23"/></g><g class="cls-68"><path class="cls-19" d="M751.58,464.64c291.25,0,291.25,255.08,582.5,255.08"/></g><g class="cls-68"><path class="cls-46" d="M751.58,562.25c291.25,0,291.25-496.92,582.5-496.92"/></g><g class="cls-68"><path class="cls-27" d="M751.58,303.04c291.25,0,291.25,210.83,582.5,210.83"/></g><g class="cls-68"><path class="cls-31" d="M751.58,323.85c291.25,0,291.25-25.88,582.5-25.88"/></g><g class="cls-68"><path class="cls-18" d="M751.58,339.66c291.25,0,291.25,363.56,582.5,363.56"/></g><g class="cls-68"><path class="cls-59" d="M751.58,654.86c291.25,0,291.25-583.78,582.5-583.78"/></g><g class="cls-68"><path class="cls-19" d="M751.58,467.51c291.25,0,291.25,271.58,582.5,271.58"/></g><g class="cls-68"><path class="cls-30" d="M751.58,132.95c291.25,0,291.25,33.61,582.5,33.61"/></g><g class="cls-68"><path class="cls-32" d="M751.58,757.59c291.25,0,291.25,23.88,582.5,23.88"/></g><g class="cls-68"><path class="cls-46" d="M751.58,602.49c291.25,0,291.25,41.24,582.5,41.24"/></g><g class="cls-68"><path class="cls-28" d="M751.58,283.67c291.25,0,291.25,202.21,582.5,202.21"/></g><g class="cls-68"><path class="cls-18" d="M751.58,316.67c291.25,0,291.25-132.86,582.5-132.86"/></g><g class="cls-68"><path class="cls-63" d="M751.58,86.33c291.25,0,291.25,139.84,582.5,139.84"/></g><g class="cls-68"><path class="cls-40" d="M751.58,695.79c291.25,0,291.25-478.93,582.5-478.93"/></g><g class="cls-68"><path class="cls-22" d="M751.58,259.99c291.25,0,291.25,420.3,582.5,420.3"/></g><g class="cls-68"><path class="cls-8" d="M751.58,613.99c291.25,0,291.25,136.61,582.5,136.61"/></g><g class="cls-68"><path class="cls-44" d="M751.58,387.03c291.25,0,291.25-149.36,582.5-149.36"/></g><g class="cls-68"><path class="cls-18" d="M751.58,333.91c291.25,0,291.25,182.84,582.5,182.84"/></g><g class="cls-68"><path class="cls-30" d="M751.58,141.57c291.25,0,291.25,553.78,582.5,553.78"/></g><g class="cls-68"><path class="cls-5" d="M751.58,507.69c291.25,0,291.25,24.87,582.5,24.87"/></g><g class="cls-68"><path class="cls-56" d="M751.58,249.93c291.25,0,291.25,255.33,582.5,255.33"/></g><g class="cls-68"><path class="cls-29" d="M751.58,163.82c291.25,0,291.25,441.92,582.5,441.92"/></g><g class="cls-68"><path class="cls-49" d="M751.58,93.52c291.25,0,291.25,575.28,582.5,575.28"/></g><g class="cls-68"><path class="cls-46" d="M751.58,590.99c291.25,0,291.25-252.84,582.5-252.84"/></g><g class="cls-68"><path class="cls-52" d="M751.58,528.5c291.25,0,291.25-254.21,582.5-254.21"/></g><g class="cls-68"><path class="cls-8" d="M751.58,573.75c291.25,0,291.25-369.82,582.5-369.82"/></g><g class="cls-68"><path class="cls-52" d="M751.58,531.38c291.25,0,291.25-118.61,582.5-118.61"/></g><g class="cls-68"><path class="cls-49" d="M751.58,102.14c291.25,0,291.25,666.39,582.5,666.39"/></g><g class="cls-68"><path class="cls-50" d="M751.58,518.44c291.25,0,291.25-487.55,582.5-487.55"/></g><g class="cls-68"><path class="cls-27" d="M751.58,300.17c291.25,0,291.25-71.12,582.5-71.12"/></g><g class="cls-68"><path class="cls-44" d="M751.58,453.14c291.25,0,291.25,125.35,582.5,125.35"/></g><g class="cls-68"><path class="cls-32" d="M751.58,743.21c291.25,0,291.25-55.74,582.5-55.74"/></g><g class="cls-68"><path class="cls-19" d="M751.58,366.91c291.25,0,291.25-264.96,582.5-264.96"/></g><g class="cls-68"><path class="cls-32" d="M751.58,740.34c291.25,0,291.25-172.6,582.5-172.6"/></g><g class="cls-68"><path class="cls-25" d="M751.58,270.05c291.25,0,291.25,519.29,582.5,519.29"/></g><g class="cls-68"><path class="cls-46" d="M751.58,619.74c291.25,0,291.25,175.35,582.5,175.35"/></g><g class="cls-68"><path class="cls-1" d="M751.58,494.76c291.25,0,291.25-296.58,582.5-296.58"/></g><g class="cls-68"><path class="cls-24" d="M751.58,207.56c291.25,0,291.25-32.38,582.5-32.38"/></g><g class="cls-68"><path class="cls-18" d="M751.58,331.04c291.25,0,291.25-1.51,582.5-1.51"/></g><g class="cls-68"><path class="cls-50" d="M751.58,524.19c291.25,0,291.25-417.93,582.5-417.93"/></g><g class="cls-68"><path class="cls-30" d="M751.58,135.82c291.25,0,291.25,243.95,582.5,243.95"/></g><g class="cls-68"><path class="cls-14" d="M751.58,627.61c291.25,0,291.25-43.37,582.5-43.37"/></g><g class="cls-68"><path class="cls-46" d="M751.58,588.12c291.25,0,291.25-275.08,582.5-275.08"/></g><g class="cls-68"><path class="cls-19" d="M751.58,412.9c291.25,0,291.25-30.25,582.5-30.25"/></g><g class="cls-68"><path class="cls-11" d="M751.58,408.59c291.25,0,291.25-74.75,582.5-74.75"/></g><g class="cls-68"><path class="cls-59" d="M751.58,663.48c291.25,0,291.25-76.36,582.5-76.36"/></g><g class="cls-68"><path class="cls-63" d="M751.58,89.2c291.25,0,291.25,540.91,582.5,540.91"/></g><g class="cls-68"><path class="cls-18" d="M751.58,336.79c291.25,0,291.25,282.57,582.5,282.57"/></g><g class="cls-68"><path class="cls-30" d="M751.58,138.7c291.25,0,291.25,298.44,582.5,298.44"/></g><g class="cls-68"><path class="cls-29" d="M751.58,160.94c291.25,0,291.25,294.82,582.5,294.82"/></g><g class="cls-68"><path class="cls-46" d="M751.58,568c291.25,0,291.25-429.43,582.5-429.43"/></g><g class="cls-68"><path class="cls-5" d="M751.58,499.07c291.25,0,291.25-90.62,582.5-90.62"/></g><g class="cls-68"><path class="cls-29" d="M751.58,166.69c291.25,0,291.25,449.79,582.5,449.79"/></g><g class="cls-68"><path class="cls-19" d="M751.58,470.39c291.25,0,291.25,308.2,582.5,308.2"/></g><g class="cls-68"><path class="cls-35" d="M751.58,646.98c291.25,0,291.25-24.75,582.5-24.75"/></g><g class="cls-68"><path class="cls-52" d="M751.58,537.13c291.25,0,291.25,60.74,582.5,60.74"/></g><g class="cls-68"><path class="cls-63" d="M751.58,77.71c291.25,0,291.25,46.49,582.5,46.49"/></g><g class="cls-68"><path class="cls-32" d="M751.58,746.09c291.25,0,291.25-34.24,582.5-34.24"/></g><g class="cls-68"><path class="cls-32" d="M751.58,737.47c291.25,0,291.25-194.84,582.5-194.84"/></g><g class="cls-68"><path class="cls-22" d="M751.58,242.74c291.25,0,291.25,217.33,582.5,217.33"/></g><g class="cls-68"><path class="cls-59" d="M751.58,666.35c291.25,0,291.25,42.62,582.5,42.62"/></g><g class="cls-68"><path class="cls-36" d="M751.58,69.83c291.25,0,291.25,383.06,582.5,383.06"/></g><g class="cls-68"><path class="cls-19" d="M751.58,421.52c291.25,0,291.25,53.61,582.5,53.61"/></g><g class="cls-68"><path class="cls-18" d="M751.58,313.79c291.25,0,291.25-295.83,582.5-295.83"/></g><g class="cls-68"><path class="cls-35" d="M751.58,635.48c291.25,0,291.25-567.28,582.5-567.28"/></g><g class="cls-68"><path class="cls-32" d="M751.58,731.72c291.25,0,291.25-302.45,582.5-302.45"/></g><g class="cls-68"><path class="cls-22" d="M751.58,236.99c291.25,0,291.25,187.96,582.5,187.96"/></g><g class="cls-68"><path class="cls-1" d="M751.58,491.89c291.25,0,291.25-465.3,582.5-465.3"/></g><g class="cls-68"><path class="cls-63" d="M751.58,97.83c291.25,0,291.25,632.64,582.5,632.64"/></g><g class="cls-68"><path class="cls-25" d="M751.58,255.68c291.25,0,291.25,294.82,582.5,294.82"/></g><g class="cls-68"><path class="cls-10" d="M751.58,117.2c291.25,0,291.25,477.79,582.5,477.79"/></g><g class="cls-68"><path class="cls-27" d="M751.58,294.42c291.25,0,291.25-239.84,582.5-239.84"/></g><g class="cls-68"><path class="cls-28" d="M751.58,280.8c291.25,0,291.25,91.1,582.5,91.1"/></g><g class="cls-68"><path class="cls-29" d="M751.58,149.45c291.25,0,291.25-97.74,582.5-97.74"/></g><g class="cls-68"><path class="cls-10" d="M751.58,114.33c291.25,0,291.25,306.32,582.5,306.32"/></g><g class="cls-68"><path class="cls-29" d="M751.58,172.44c291.25,0,291.25,600.4,582.5,600.4"/></g><g class="cls-68"><path class="cls-4" d="M751.58,481.14c291.25,0,291.25-237.72,582.5-237.72"/></g><g class="cls-68"><path class="cls-25" d="M751.58,267.18c291.25,0,291.25,508.54,582.5,508.54"/></g><g class="cls-68"><path class="cls-36" d="M751.58,64.08c291.25,0,291.25,187.21,582.5,187.21"/></g><g class="cls-68"><path class="cls-29" d="M751.58,169.57c291.25,0,291.25,489.92,582.5,489.92"/></g><g class="cls-68"><path class="cls-19" d="M751.58,415.77c291.25,0,291.25,29.24,582.5,29.24"/></g><g class="cls-68"><path class="cls-1" d="M751.58,503.38c291.25,0,291.25-36.12,582.5-36.12"/></g><g class="cls-68"><path class="cls-52" d="M751.58,534.25c291.25,0,291.25-56.24,582.5-56.24"/></g><g class="cls-68"><path class="cls-25" d="M751.58,264.3c291.25,0,291.25,469.05,582.5,469.05"/></g><g class="cls-68"><path class="cls-32" d="M751.58,691.47c291.25,0,291.25-550.04,582.5-550.04"/></g><g class="cls-68"><path class="cls-29" d="M751.58,158.07c291.25,0,291.25,210.95,582.5,210.95"/></g></g><rect class="cls-65" x="749.08" y="22.27" width="27.28" height="759.19"/><g class="cls-73"><text class="cls-71" transform="translate(759.71 66.38)"><tspan x="0" y="0">4</tspan></text></g><g class="cls-73"><text class="cls-71" transform="translate(754.71 94.37)"><tspan x="0" y="0">4.5</tspan></text></g><g class="cls-73"><text class="cls-71" transform="translate(754.71 118.06)"><tspan x="0" y="0">4.6</tspan></text></g><g class="cls-73"><text class="cls-71" transform="translate(754.71 128.81)"><tspan x="0" y="0">4.7</tspan></text></g><g class="cls-73"><text class="cls-71" transform="translate(754.71 140.99)"><tspan x="0" y="0">4.8</tspan></text></g><g class="cls-73"><text class="cls-71" transform="translate(759.71 164.68)"><tspan x="0" y="0">5</tspan></text></g><g class="cls-73"><text class="cls-71" transform="translate(754.71 185.49)"><tspan x="0" y="0">5.2</tspan></text></g><g class="cls-73"><text class="cls-71" transform="translate(754.71 199.11)"><tspan x="0" y="0">5.3</tspan></text></g><g class="cls-73"><text class="cls-71" transform="translate(754.71 211.29)"><tspan x="0" y="0">5.4</tspan></text></g><g class="cls-73"><text class="cls-71" transform="translate(754.71 246.48)"><tspan x="0" y="0">5.5</tspan></text></g><g class="cls-73"><text class="cls-71" transform="translate(754.71 285.97)"><tspan x="0" y="0">5.6</tspan></text></g><g class="cls-73"><text class="cls-71" transform="translate(754.71 303.9)"><tspan x="0" y="0">5.7</tspan></text></g><g class="cls-73"><text class="cls-71" transform="translate(754.71 330.48)"><tspan x="0" y="0">5.8</tspan></text></g><g class="cls-73"><text class="cls-71" transform="translate(754.71 355.58)"><tspan x="0" y="0">5.9</tspan></text></g><g class="cls-73"><text class="cls-71" transform="translate(759.71 416.67)"><tspan x="0" y="0">6</tspan></text></g><g class="cls-73"><text class="cls-71" transform="translate(754.71 484.87)"><tspan x="0" y="0">6.1</tspan></text></g><g class="cls-73"><text class="cls-71" transform="translate(754.71 504.24)"><tspan x="0" y="0">6.2</tspan></text></g><g class="cls-73"><text class="cls-71" transform="translate(754.71 533.67)"><tspan x="0" y="0">6.3</tspan></text></g><g class="cls-73"><text class="cls-71" transform="translate(754.71 586.14)"><tspan x="0" y="0">6.5</tspan></text></g><g class="cls-73"><text class="cls-71" transform="translate(754.71 631.34)"><tspan x="0" y="0">6.6</tspan></text></g><g class="cls-73"><text class="cls-71" transform="translate(754.71 644.97)"><tspan x="0" y="0">6.7</tspan></text></g><g class="cls-73"><text class="cls-71" transform="translate(754.71 664.34)"><tspan x="0" y="0">6.8</tspan></text></g><g class="cls-73"><text class="cls-71" transform="translate(759.71 718.22)"><tspan x="0" y="0">7</tspan></text></g><g class="cls-73"><text class="cls-70" transform="translate(1343.41 33.21)"><tspan x="0" y="0">Abud Carrillo, Jenny</tspan></text></g><g class="cls-73"><text class="cls-70" transform="translate(1343.41 56.02)"><tspan x="0" y="0">Benavides Bermúdez, Paola</tspan></text></g><g class="cls-73"><text class="cls-70" transform="translate(1343.41 76.27)"><tspan x="0" y="0">Castillo Espinoza, Eduardo</tspan></text></g><g class="cls-73"><text class="cls-70" transform="translate(1343.41 108.55)"><tspan x="0" y="0">Cortez Orellana, Felipe</tspan></text></g><g class="cls-73"><text class="cls-70" transform="translate(1343.41 136.55)"><tspan x="0" y="0">De la Sotta Lazzerini, Paola</tspan></text></g><g class="cls-73"><text class="cls-69" transform="translate(118.58 140.83)"><tspan x="0" y="0">Diseño</tspan></text></g><g class="cls-73"><text class="cls-69" transform="translate(22 293.9)"><tspan x="0" y="0">Diseño con mención I y S</tspan></text></g><g class="cls-73"><text class="cls-69" transform="translate(0 573.25)"><tspan x="0" y="0">Diseño con mención en V y M</tspan></text></g><g class="cls-73"><text class="cls-70" transform="translate(1343.41 184.7)"><tspan x="0" y="0">Domínguez González, Pablo</tspan></text></g><g class="cls-73"><text class="cls-70" transform="translate(1343.84 237.67)"><tspan x="0" y="0">Donoso Cisternas, Sergio</tspan></text></g><g class="cls-73"><text class="cls-70" transform="translate(1343.41 270.84)"><tspan x="0" y="0">Dueñas Santande</tspan><tspan class="cls-76" x="75.52" y="0">r</tspan><tspan x="78.53" y="0">, Rodrigo</tspan></text></g><g class="cls-73"><text class="cls-70" transform="translate(1343.41 300.29)"><tspan x="0" y="0">Gatica Ramírez, Pamela</tspan></text></g><g class="cls-73"><text class="cls-70" transform="translate(1343.41 318.22)"><tspan x="0" y="0">Gómez Moya, Cristián</tspan></text></g><g class="cls-73"><text class="cls-70" transform="translate(1343.41 346.22)"><tspan x="0" y="0">Jacob Dazarola, Rubén</tspan></text></g><g class="cls-73"><text class="cls-70" transform="translate(1343.41 374.19)"><tspan x="0" y="0">Jove</tspan><tspan class="cls-74" x="20.51" y="0" xml:space="preserve"> A</tspan><tspan x="28.85" y="0">vilés, </tspan><tspan class="cls-76" x="53.86" y="0">T</tspan><tspan x="58.86" y="0">rinidad</tspan></text></g><g class="cls-73"><text class="cls-70" transform="translate(1343.41 386.4)"><tspan x="0" y="0">Lares López, Lorna</tspan></text></g><g class="cls-73"><text class="cls-70" transform="translate(1343.41 401.44)"><tspan x="0" y="0">Lepe Muñoz, Juan Carlos</tspan></text></g><g class="cls-73"><text class="cls-70" transform="translate(1343.41 413.63)"><tspan x="0" y="0">Maldonado de la Fuente, Felix</tspan></text></g><g class="cls-73"><text class="cls-70" transform="translate(1343.41 427.27)"><tspan x="0" y="0">Marín Pacheco,</tspan><tspan class="cls-74" x="66.02" y="0"> </tspan><tspan x="68.19" y="0">Antonio</tspan></text></g><g class="cls-73"><text class="cls-70" transform="translate(1343.41 439.45)"><tspan x="0" y="0">Molina Oyarzún, Raúl</tspan></text></g><g class="cls-73"><text class="cls-70" transform="translate(1343.41 448.75)"><tspan x="0" y="0">Mora Briones,</tspan><tspan class="cls-74" x="60.01" y="0"> </tspan><tspan x="62.18" y="0">Alfredo</tspan></text></g><g class="cls-73"><text class="cls-70" transform="translate(1343.41 462.39)"><tspan x="0" y="0">Morales Mujica, María Paz</tspan></text></g><g class="cls-73"><text class="cls-70" transform="translate(1343.41 480.3)"><tspan x="0" y="0">Méndez Olivares, Iván</tspan></text></g><g class="cls-73"><text class="cls-70" transform="translate(1343.41 492.51)"><tspan x="0" y="0">Nuñez Gutiérrez, Pablo</tspan></text></g><g class="cls-73"><text class="cls-70" transform="translate(1343.41 524.82)"><tspan x="0" y="0">Ode Saleh, </tspan><tspan class="cls-76" x="49.02" y="0">V</tspan><tspan x="54.52" y="0">erónica</tspan></text></g><g class="cls-73"><text class="cls-70" transform="translate(1343.41 561.44)"><tspan x="0" y="0">Osses Flores, Roberto</tspan></text></g><g class="cls-73"><text class="cls-70" transform="translate(1343.41 583.68)"><tspan x="0" y="0">Pagueguy Fenne</tspan><tspan class="cls-76" x="72.01" y="0">r</tspan><tspan x="75.02" y="0">, Sebastián</tspan></text></g><g class="cls-73"><text class="cls-70" transform="translate(1343.72 599.3)"><tspan x="0" y="0">Perea Morales, René</tspan></text></g><g class="cls-73"><text class="cls-70" transform="translate(1343.72 610.05)"><tspan x="0" y="0">Perelli Soto, Bruno</tspan></text></g><g class="cls-73"><text class="cls-70" transform="translate(1343.72 622.24)"><tspan x="0" y="0">Pradenas Guentherodt, Gabriela</tspan></text></g><g class="cls-73"><text class="cls-70" transform="translate(1343.41 635.3)"><tspan x="0" y="0">Reyes León, Daniel</tspan></text></g><g class="cls-73"><text class="cls-70" transform="translate(1343.41 646.05)"><tspan x="0" y="0">Ruiz Balart, Macarena</tspan></text></g><g class="cls-73"><text class="cls-70" transform="translate(1343.41 655.34)"><tspan x="0" y="0">Santibañez Boric, Mónica</tspan></text></g><g class="cls-73"><text class="cls-70" transform="translate(1343.41 664.63)"><tspan x="0" y="0">Silva Roquefort, Rebeca</tspan></text></g><g class="cls-73"><text class="cls-70" transform="translate(1343.41 680.29)"><tspan x="0" y="0">Soto Calquín, Leonardo</tspan></text></g><g class="cls-73"><text class="cls-70" transform="translate(1343.41 698.06)"><tspan x="0" y="0">Stange Marcus, Hans</tspan></text></g><g class="cls-73"><text class="cls-70" transform="translate(1343.41 710.91)"><tspan class="cls-75" x="0" y="0">T</tspan><tspan x="4.83" y="0">apia Reyes, Mauricio</tspan></text></g><g class="cls-73"><text class="cls-70" transform="translate(1343.41 724.89)"><tspan class="cls-64" x="0" y="0">V</tspan><tspan x="5.84" y="0">ico Sánchez, Mauricio</tspan></text></g><g class="cls-73"><text class="cls-70" transform="translate(1343.41 747.16)"><tspan class="cls-64" x="0" y="0">W</tspan><tspan x="8.33" y="0">echsler Pizarro,</tspan><tspan class="cls-74" x="75.37" y="0"> </tspan><tspan x="77.53" y="0">Andrea</tspan></text></g><g class="cls-73"><text class="cls-70" transform="translate(1343.42 778.01)"><tspan class="cls-75" x="0" y="0">Y</tspan><tspan x="5.33" y="0">oung</tspan><tspan class="cls-74" x="27.33" y="0"> </tspan><tspan x="29.49" y="0">Araya, Mariana</tspan></text></g><g class="cls-73"><text class="cls-70" transform="translate(1343.41 795.94)"><tspan x="0" y="0">Zorzano Betancourt, Osvaldo</tspan></text></g><text class="cls-72" transform="translate(711.95 12.52)"><tspan x="0" y="0">Nota Proyecto</tspan></text><text class="cls-72" transform="translate(1336.58 12.52)"><tspan x="0" y="0">Profesores Guia</tspan></text><text class="cls-72" transform="translate(39.76 12.01)"><tspan class="cls-64" x="0" y="0">T</tspan><tspan x="8.3" y="0">itulo profesional</tspan></text><rect class="cls-66" x="746.58" y="54.02" width="5" height="17.25"/><rect class="cls-66" x="746.58" y="76.27" width="5" height="28.74"/><rect class="cls-66" x="746.58" y="110.01" width="5" height="8.62"/><rect class="cls-66" x="746.58" y="123.64" width="5" height="2.87"/><rect class="cls-66" x="746.58" y="131.51" width="5" height="11.5"/><rect class="cls-66" x="746.58" y="148.01" width="5" height="25.87"/><rect class="cls-66" x="746.58" y="178.88" width="5" height="5.75"/><rect class="cls-66" x="746.58" y="189.63" width="5" height="11.5"/><rect class="cls-66" x="746.58" y="206.12" width="5" height="2.87"/><rect class="cls-66" x="746.58" y="214" width="5" height="57.49"/><rect class="cls-66" x="746.58" y="276.49" width="5" height="11.5"/><rect class="cls-66" x="746.58" y="292.98" width="5" height="14.37"/><rect class="cls-66" x="746.58" y="312.36" width="5" height="31.62"/><rect class="cls-66" x="746.58" y="348.97" width="5" height="5.75"/><rect class="cls-66" x="746.58" y="359.72" width="5" height="112.1"/><rect class="cls-66" x="746.58" y="476.83" width="5" height="8.62"/><rect class="cls-66" x="746.58" y="490.45" width="5" height="20.12"/><rect class="cls-66" x="746.58" y="515.57" width="5" height="28.74"/><rect class="cls-66" x="746.58" y="549.31" width="5" height="71.86"/><rect class="cls-66" x="746.58" y="626.17" width="5" height="2.87"/><rect class="cls-66" x="746.58" y="634.05" width="5" height="14.37"/><rect class="cls-66" x="746.58" y="653.42" width="5" height="14.37"/><rect class="cls-66" x="746.58" y="672.79" width="5" height="86.23"/><rect class="cls-66" x="1334.08" y="16.52" width="5" height="28.74"/><rect class="cls-66" x="1334.08" y="50.27" width="5" height="5.75"/><rect class="cls-66" x="1334.08" y="61.02" width="5" height="25.87"/><rect class="cls-66" x="1334.08" y="91.89" width="5" height="25.87"/><rect class="cls-66" x="1334.08" y="122.76" width="5" height="20.12"/><rect class="cls-66" x="159.08" y="104.02" width="5" height="68.99"/><rect class="cls-66" x="159.08" y="178.01" width="5" height="232.83"/><rect class="cls-66" x="159.08" y="415.83" width="5" height="293.19"/><rect class="cls-66" x="1334.08" y="147.88" width="5" height="71.86"/><rect class="cls-66" x="1334.08" y="224.74" width="5" height="20.12"/><rect class="cls-66" x="1334.08" y="249.86" width="5" height="34.49"/><rect class="cls-66" x="1334.08" y="289.35" width="5" height="17.25"/><rect class="cls-66" x="1334.08" y="311.6" width="5" height="8.62"/><rect class="cls-66" x="1334.08" y="325.22" width="5" height="37.37"/><rect class="cls-66" x="1334.08" y="367.59" width="5" height="5.75"/><rect class="cls-66" x="1334.08" y="378.33" width="5" height="11.5"/><rect class="cls-66" x="1334.08" y="394.83" width="5" height="5.75"/><rect class="cls-66" x="1334.08" y="405.58" width="5" height="8.62"/><rect class="cls-66" x="1334.08" y="419.2" width="5" height="11.5"/><rect class="cls-66" x="1334.08" y="435.7" width="5" height="2.87"/><rect class="cls-66" x="1334.08" y="443.58" width="5" height="2.87"/><rect class="cls-66" x="1334.08" y="451.45" width="5" height="17.25"/><rect class="cls-66" x="1334.08" y="473.7" width="5" height="5.75"/><rect class="cls-66" x="1334.08" y="484.45" width="5" height="11.5"/><rect class="cls-66" x="1334.08" y="500.94" width="5" height="43.12"/><rect class="cls-66" x="1334.08" y="549.06" width="5" height="20.12"/><rect class="cls-66" x="1334.08" y="574.18" width="5" height="14.37"/><rect class="cls-66" x="1334.08" y="593.55" width="5" height="5.75"/><rect class="cls-66" x="1334.08" y="604.3" width="5" height="5.75"/><rect class="cls-66" x="1334.08" y="615.05" width="5" height="8.62"/><rect class="cls-66" x="1334.08" y="628.67" width="5" height="8.62"/><rect class="cls-66" x="1334.08" y="642.3" width="5" height="2.87"/><rect class="cls-66" x="1334.08" y="650.17" width="5" height="2.87"/><rect class="cls-66" x="1334.08" y="658.04" width="5" height="2.87"/><rect class="cls-66" x="1334.08" y="665.92" width="5" height="23"/><rect class="cls-66" x="1334.08" y="693.91" width="5" height="2.87"/><rect class="cls-66" x="1334.08" y="701.79" width="5" height="11.5"/><rect class="cls-66" x="1334.08" y="718.29" width="5" height="5.75"/><rect class="cls-66" x="1334.08" y="729.04" width="5" height="31.62"/><rect class="cls-66" x="1334.08" y="765.65" width="5" height="17.25"/><rect class="cls-66" x="1334.08" y="787.9" width="5" height="8.62"/></g></g></svg>