<?xml version="1.0" encoding="UTF-8"?>
<svg xmlns="http://www.w3.org/2000/svg" viewBox="0 0 1459.76 799.33">
  <defs>
    <style>
      .cls-1, .cls-2, .cls-3, .cls-4, .cls-5, .cls-6, .cls-7, .cls-8, .cls-9, .cls-10, .cls-11, .cls-12, .cls-13, .cls-14, .cls-15, .cls-16, .cls-17, .cls-18, .cls-19, .cls-20, .cls-21, .cls-22, .cls-23, .cls-24, .cls-25, .cls-26, .cls-27, .cls-28, .cls-29, .cls-30, .cls-31, .cls-32, .cls-33, .cls-34, .cls-35, .cls-36, .cls-37, .cls-38, .cls-39, .cls-40, .cls-41, .cls-42, .cls-43, .cls-44, .cls-45, .cls-46, .cls-47, .cls-48, .cls-49, .cls-50, .cls-51, .cls-52, .cls-53, .cls-54, .cls-55, .cls-56, .cls-57, .cls-58, .cls-59, .cls-60, .cls-61, .cls-62, .cls-63 {
        fill: none;
      }

      .cls-1, .cls-4, .cls-9, .cls-11, .cls-16, .cls-30, .cls-36, .cls-37, .cls-38, .cls-54, .cls-56 {
        stroke-width: 5.75px;
      }

      .cls-1, .cls-26 {
        stroke: #cdeb9f;
      }

      .cls-2, .cls-3, .cls-5, .cls-7, .cls-10, .cls-12, .cls-21, .cls-24, .cls-26, .cls-27, .cls-28, .cls-35, .cls-41, .cls-43, .cls-44, .cls-47, .cls-48, .cls-51, .cls-52, .cls-53, .cls-58, .cls-59, .cls-60, .cls-61, .cls-62, .cls-63 {
        stroke-width: 2.87px;
      }

      .cls-2, .cls-22, .cls-25, .cls-38 {
        stroke: #9cd7a3;
      }

      .cls-3, .cls-37 {
        stroke: #b6e2a1;
      }

      .cls-4, .cls-8, .cls-32, .cls-49, .cls-59 {
        stroke: #eef8a8;
      }

      .cls-64 {
        opacity: .94;
      }

      .cls-64, .cls-65 {
        mix-blend-mode: multiply;
      }

      .cls-66 {
        letter-spacing: -.02em;
      }

      .cls-66, .cls-67, .cls-68, .cls-69, .cls-70, .cls-71, .cls-72, .cls-73, .cls-74, .cls-75, .cls-76, .cls-77, .cls-78 {
        isolation: isolate;
      }

      .cls-66, .cls-67, .cls-68, .cls-70, .cls-71, .cls-72, .cls-73, .cls-74, .cls-75, .cls-76, .cls-78 {
        font-family: Arial-BoldMT, Arial;
        font-weight: 700;
      }

      .cls-66, .cls-67, .cls-70, .cls-73, .cls-74, .cls-75, .cls-78 {
        font-size: 9px;
      }

      .cls-5, .cls-30 {
        stroke: #c72f34;
      }

      .cls-67 {
        letter-spacing: -.07em;
      }

      .cls-6, .cls-7, .cls-11, .cls-17, .cls-19, .cls-33, .cls-40, .cls-42, .cls-46 {
        stroke: #3a4f8a;
      }

      .cls-6, .cls-13, .cls-23, .cls-25, .cls-49, .cls-57 {
        stroke-width: 11.5px;
      }

      .cls-8, .cls-15, .cls-17, .cls-22, .cls-29, .cls-50, .cls-55 {
        stroke-width: 8.62px;
      }

      .cls-9, .cls-52 {
        stroke: #faa05c;
      }

      .cls-10 {
        stroke: #e75b49;
      }

      .cls-68 {
        letter-spacing: -.02em;
      }

      .cls-68, .cls-76 {
        fill: #7b7b7b;
        font-size: 14px;
      }

      .cls-12, .cls-55 {
        stroke: #c42127;
      }

      .cls-13, .cls-21, .cls-36, .cls-50 {
        stroke: #437db3;
      }

      .cls-70 {
        letter-spacing: -.04em;
      }

      .cls-14, .cls-16, .cls-20, .cls-23, .cls-29, .cls-31, .cls-34, .cls-45, .cls-53 {
        stroke: #4d66ac;
      }

      .cls-14, .cls-32, .cls-33, .cls-39 {
        stroke-width: 14.37px;
      }

      .cls-79, .cls-77 {
        stroke-width: 0px;
      }

      .cls-15, .cls-54, .cls-58 {
        stroke: #fecb7b;
      }

      .cls-18 {
        stroke-width: 20.12px;
      }

      .cls-18, .cls-39, .cls-43, .cls-56 {
        stroke: #4fa590;
      }

      .cls-19 {
        stroke-width: 66.11px;
      }

      .cls-20 {
        stroke-width: 43.12px;
      }

      .cls-71 {
        font-size: 12px;
      }

      .cls-24 {
        stroke: #e0f3a1;
      }

      .cls-72 {
        font-size: 11px;
      }

      .cls-27 {
        stroke: #82cca5;
      }

      .cls-28 {
        stroke: #d9464b;
      }

      .cls-31 {
        stroke-width: 34.49px;
      }

      .cls-34, .cls-46 {
        stroke-width: 17.25px;
      }

      .cls-35 {
        stroke: #fdb76a;
      }

      .cls-74 {
        letter-spacing: -.06em;
      }

      .cls-75 {
        letter-spacing: -.09em;
      }

      .cls-40 {
        stroke-width: 31.62px;
      }

      .cls-41 {
        stroke: #f8f9b0;
      }

      .cls-42 {
        stroke-width: 40.24px;
      }

      .cls-65 {
        opacity: .81;
      }

      .cls-44 {
        stroke: #f0704a;
      }

      .cls-45 {
        stroke-width: 23px;
      }

      .cls-77 {
        fill: #fff;
        opacity: .33;
      }

      .cls-47 {
        stroke: #ce3c41;
      }

      .cls-48 {
        stroke: #feeb9f;
      }

      .cls-78 {
        letter-spacing: -.08em;
      }

      .cls-51, .cls-57 {
        stroke: #fdf5ad;
      }

      .cls-60 {
        stroke: #59ad99;
      }

      .cls-61 {
        stroke: #fedd8d;
      }

      .cls-62 {
        stroke: #69bda9;
      }

      .cls-63 {
        stroke: #f78751;
      }
    </style>
  </defs>
  <g class="cls-69">
    <g id="Layer_1" data-name="Layer 1">
      <g class="cls-64">
        <path class="cls-42" d="M142.08,640.04c291.25,0,291.25-38.99,582.5-38.99"/>
        <path class="cls-40" d="M142.08,693.21c291.25,0,291.25,50,582.5,50"/>
        <path class="cls-50" d="M142.08,154.33c291.25,0,291.25,399.3,582.5,399.3"/>
        <path class="cls-16" d="M142.08,269.99c291.25,0,291.25,81.86,582.5,81.86"/>
        <path class="cls-20" d="M142.08,389.28c291.25,0,291.25,316.57,582.5,316.57"/>
        <path class="cls-46" d="M142.08,447.45c291.25,0,291.25-282.2,582.5-282.2"/>
        <path class="cls-17" d="M142.08,420.15c291.25,0,291.25-353.19,582.5-353.19"/>
        <path class="cls-14" d="M142.08,193.82c291.25,0,291.25-107.49,582.5-107.49"/>
        <path class="cls-17" d="M142.08,503.5c291.25,0,291.25-219.83,582.5-219.83"/>
        <path class="cls-19" d="M142.08,563.87c291.25,0,291.25-125.1,582.5-125.1"/>
        <path class="cls-11" d="M142.08,458.95c291.25,0,291.25-277.2,582.5-277.2"/>
        <path class="cls-16" d="M142.08,364.84c291.25,0,291.25,294.32,582.5,294.32"/>
        <path class="cls-31" d="M142.08,290.11c291.25,0,291.25,98.36,582.5,98.36"/>
        <path class="cls-16" d="M142.08,359.1c291.25,0,291.25,277.83,582.5,277.83"/>
        <path class="cls-23" d="M142.08,327.48c291.25,0,291.25,193.84,582.5,193.84"/>
        <path class="cls-23" d="M142.08,261.37c291.25,0,291.25,62.49,582.5,62.49"/>
        <path class="cls-13" d="M142.08,167.26c291.25,0,291.25,511.28,582.5,511.28"/>
        <path class="cls-17" d="M142.08,667.34c291.25,0,291.25-23.24,582.5-23.24"/>
        <path class="cls-17" d="M142.08,512.13c291.25,0,291.25-209.08,582.5-209.08"/>
        <path class="cls-13" d="M142.08,135.64c291.25,0,291.25,229.83,582.5,229.83"/>
        <path class="cls-21" d="M142.08,108.33c291.25,0,291.25,16.74,582.5,16.74"/>
        <path class="cls-34" d="M142.08,238.37c291.25,0,291.25-7.13,582.5-7.13"/>
        <path class="cls-21" d="M142.08,114.08c291.25,0,291.25,76.98,582.5,76.98"/>
        <path class="cls-40" d="M142.08,483.38c291.25,0,291.25-227.71,582.5-227.71"/>
        <path class="cls-11" d="M142.08,674.53c291.25,0,291.25-9.61,582.5-9.61"/>
        <path class="cls-53" d="M142.08,225.44c291.25,0,291.25-31.5,582.5-31.5"/>
        <path class="cls-16" d="M142.08,221.12c291.25,0,291.25-67.37,582.5-67.37"/>
        <path class="cls-29" d="M142.08,311.67c291.25,0,291.25,169.47,582.5,169.47"/>
        <path class="cls-11" d="M142.08,464.7c291.25,0,291.25-266.45,582.5-266.45"/>
        <path class="cls-29" d="M142.08,182.32c291.25,0,291.25-123.99,582.5-123.99"/>
        <path class="cls-50" d="M142.08,119.83c291.25,0,291.25,98.48,582.5,98.48"/>
        <path class="cls-45" d="M142.08,344.72c291.25,0,291.25,224.71,582.5,224.71"/>
        <path class="cls-29" d="M142.08,205.32c291.25,0,291.25-90.99,582.5-90.99"/>
        <path class="cls-33" d="M142.08,523.62c291.25,0,291.25-186.84,582.5-186.84"/>
        <path class="cls-21" d="M142.08,160.07c291.25,0,291.25,494.78,582.5,494.78"/>
        <path class="cls-29" d="M142.08,213.94c291.25,0,291.25-78.12,582.5-78.12"/>
        <path class="cls-53" d="M142.08,248.43c291.25,0,291.25,29.49,582.5,29.49"/>
        <path class="cls-36" d="M142.08,127.02c291.25,0,291.25,188.21,582.5,188.21"/>
        <path class="cls-7" d="M142.08,437.39c291.25,0,291.25-295.82,582.5-295.82"/>
        <path class="cls-50" d="M142.08,145.7c291.25,0,291.25,349.06,582.5,349.06"/>
        <path class="cls-6" d="M142.08,430.21c291.25,0,291.25-330.94,582.5-330.94"/>
        <path class="cls-46" d="M142.08,611.29c291.25,0,291.25-75.6,582.5-75.6"/>
        <path class="cls-16" d="M142.08,252.74c291.25,0,291.25,43.12,582.5,43.12"/>
        <path class="cls-16" d="M142.08,318.85c291.25,0,291.25,183.09,582.5,183.09"/>
        <path class="cls-53" d="M142.08,228.31c291.25,0,291.25-20.75,582.5-20.75"/>
        <path class="cls-7" d="M142.08,661.6c291.25,0,291.25-33.99,582.5-33.99"/>
        <path class="cls-11" d="M142.08,599.8c291.25,0,291.25-92.1,582.5-92.1"/>
        <path class="cls-21" d="M142.08,105.46c291.25,0,291.25-27.75,582.5-27.75"/>
        <path class="cls-21" d="M142.08,111.21c291.25,0,291.25,38.24,582.5,38.24"/>
      </g>
      <g class="cls-65">
        <path class="cls-2" d="M729.58,565.12c291.25,0,291.25-454.55,582.5-454.55"/>
        <path class="cls-43" d="M729.58,748.96c291.25,0,291.25-26.36,582.5-26.36"/>
        <path class="cls-2" d="M729.58,593.87c291.25,0,291.25-56.99,582.5-56.99"/>
        <path class="cls-41" d="M729.58,353.29c291.25,0,291.25,352.81,582.5,352.81"/>
        <path class="cls-43" d="M729.58,728.84c291.25,0,291.25-340.45,582.5-340.45"/>
        <path class="cls-44" d="M729.58,152.32c291.25,0,291.25-59,582.5-59"/>
        <path class="cls-56" d="M729.58,704.41c291.25,0,291.25-387.07,582.5-387.07"/>
        <path class="cls-55" d="M729.58,58.33c291.25,0,291.25,93.85,582.5,93.85"/>
        <path class="cls-38" d="M729.58,598.18c291.25,0,291.25-34.75,582.5-34.75"/>
        <path class="cls-30" d="M729.58,82.02c291.25,0,291.25,77.36,582.5,77.36"/>
        <path class="cls-18" d="M729.58,717.34c291.25,0,291.25-364.82,582.5-364.82"/>
        <path class="cls-56" d="M729.58,753.27c291.25,0,291.25,4.5,582.5,4.5"/>
        <path class="cls-43" d="M729.58,688.6c291.25,0,291.25-572.28,582.5-572.28"/>
        <path class="cls-41" d="M729.58,350.41c291.25,0,291.25-118.49,582.5-118.49"/>
        <path class="cls-61" d="M729.58,286.55c291.25,0,291.25,224.46,582.5,224.46"/>
        <path class="cls-49" d="M729.58,434.46c291.25,0,291.25,89.48,582.5,89.48"/>
        <path class="cls-63" d="M729.58,180.32c291.25,0,291.25-117.86,582.5-117.86"/>
        <path class="cls-43" d="M729.58,700.1c291.25,0,291.25-417.19,582.5-417.19"/>
        <path class="cls-8" d="M729.58,444.52c291.25,0,291.25,111.73,582.5,111.73"/>
        <path class="cls-60" d="M729.58,657.73c291.25,0,291.25-445.18,582.5-445.18"/>
        <path class="cls-49" d="M729.58,376.97c291.25,0,291.25-185.98,582.5-185.98"/>
        <path class="cls-62" d="M729.58,641.23c291.25,0,291.25-431.56,582.5-431.56"/>
        <path class="cls-37" d="M729.58,541.44c291.25,0,291.25,201.97,582.5,201.97"/>
        <path class="cls-51" d="M729.58,342.54c291.25,0,291.25,393.68,582.5,393.68"/>
        <path class="cls-39" d="M729.58,679.98c291.25,0,291.25-600.28,582.5-600.28"/>
        <path class="cls-32" d="M729.58,398.53c291.25,0,291.25-132.86,582.5-132.86"/>
        <path class="cls-38" d="M729.58,580.93c291.25,0,291.25-302.33,582.5-302.33"/>
        <path class="cls-62" d="M729.58,638.36c291.25,0,291.25-524.92,582.5-524.92"/>
        <path class="cls-48" d="M729.58,297.3c291.25,0,291.25-198.22,582.5-198.22"/>
        <path class="cls-4" d="M729.58,362.6c291.25,0,291.25-340.33,582.5-340.33"/>
        <path class="cls-25" d="M729.58,555.06c291.25,0,291.25-515.54,582.5-515.54"/>
        <path class="cls-59" d="M729.58,458.89c291.25,0,291.25,149.72,582.5,149.72"/>
        <path class="cls-28" d="M729.58,125.07c291.25,0,291.25,507.91,582.5,507.91"/>
        <path class="cls-54" d="M729.58,222.62c291.25,0,291.25-43.13,582.5-43.13"/>
        <path class="cls-52" d="M729.58,191.06c291.25,0,291.25-18.76,582.5-18.76"/>
        <path class="cls-58" d="M729.58,232.68c291.25,0,291.25,166.46,582.5,166.46"/>
        <path class="cls-4" d="M729.58,425.83c291.25,0,291.25,64.36,582.5,64.36"/>
        <path class="cls-43" d="M729.58,734.59c291.25,0,291.25-240.08,582.5-240.08"/>
        <path class="cls-60" d="M729.58,660.61c291.25,0,291.25-120.86,582.5-120.86"/>
        <path class="cls-54" d="M729.58,216.87c291.25,0,291.25-88.37,582.5-88.37"/>
        <path class="cls-63" d="M729.58,183.19c291.25,0,291.25-86.99,582.5-86.99"/>
        <path class="cls-48" d="M729.58,305.92c291.25,0,291.25,486.29,582.5,486.29"/>
        <path class="cls-61" d="M729.58,277.92c291.25,0,291.25,12.86,582.5,12.86"/>
        <path class="cls-62" d="M729.58,644.11c291.25,0,291.25-303.08,582.5-303.08"/>
        <path class="cls-2" d="M729.58,608.24c291.25,0,291.25,76.36,582.5,76.36"/>
        <path class="cls-52" d="M729.58,193.94c291.25,0,291.25,132.72,582.5,132.72"/>
        <path class="cls-44" d="M729.58,155.19c291.25,0,291.25,14.24,582.5,14.24"/>
        <path class="cls-2" d="M729.58,585.24c291.25,0,291.25-280.08,582.5-280.08"/>
        <path class="cls-59" d="M729.58,369.78c291.25,0,291.25-236.97,582.5-236.97"/>
        <path class="cls-24" d="M729.58,478.26c291.25,0,291.25-342.57,582.5-342.57"/>
        <path class="cls-59" d="M729.58,418.65c291.25,0,291.25,45.74,582.5,45.74"/>
        <path class="cls-59" d="M729.58,461.76c291.25,0,291.25,174.09,582.5,174.09"/>
        <path class="cls-9" d="M729.58,198.25c291.25,0,291.25,476.29,582.5,476.29"/>
        <path class="cls-12" d="M729.58,66.96c291.25,0,291.25,329.31,582.5,329.31"/>
        <path class="cls-24" d="M729.58,484.01c291.25,0,291.25-98.49,582.5-98.49"/>
        <path class="cls-54" d="M729.58,228.37c291.25,0,291.25,27.23,582.5,27.23"/>
        <path class="cls-2" d="M729.58,605.36c291.25,0,291.25,46.24,582.5,46.24"/>
        <path class="cls-47" d="M729.58,111.45c291.25,0,291.25,52.23,582.5,52.23"/>
        <path class="cls-59" d="M729.58,464.64c291.25,0,291.25,255.08,582.5,255.08"/>
        <path class="cls-2" d="M729.58,562.25c291.25,0,291.25-496.92,582.5-496.92"/>
        <path class="cls-48" d="M729.58,303.04c291.25,0,291.25,210.83,582.5,210.83"/>
        <path class="cls-57" d="M729.58,323.85c291.25,0,291.25-25.88,582.5-25.88"/>
        <path class="cls-51" d="M729.58,339.66c291.25,0,291.25,363.56,582.5,363.56"/>
        <path class="cls-60" d="M729.58,654.86c291.25,0,291.25-583.78,582.5-583.78"/>
        <path class="cls-59" d="M729.58,467.51c291.25,0,291.25,271.58,582.5,271.58"/>
        <path class="cls-10" d="M729.58,132.95c291.25,0,291.25,33.61,582.5,33.61"/>
        <path class="cls-43" d="M729.58,757.59c291.25,0,291.25,23.88,582.5,23.88"/>
        <path class="cls-2" d="M729.58,602.49c291.25,0,291.25,41.24,582.5,41.24"/>
        <path class="cls-61" d="M729.58,283.67c291.25,0,291.25,202.21,582.5,202.21"/>
        <path class="cls-51" d="M729.58,316.67c291.25,0,291.25-132.86,582.5-132.86"/>
        <path class="cls-5" d="M729.58,86.33c291.25,0,291.25,139.84,582.5,139.84"/>
        <path class="cls-56" d="M729.58,695.79c291.25,0,291.25-478.93,582.5-478.93"/>
        <path class="cls-54" d="M729.58,259.99c291.25,0,291.25,420.3,582.5,420.3"/>
        <path class="cls-22" d="M729.58,613.99c291.25,0,291.25,136.61,582.5,136.61"/>
        <path class="cls-8" d="M729.58,387.03c291.25,0,291.25-149.36,582.5-149.36"/>
        <path class="cls-51" d="M729.58,333.91c291.25,0,291.25,182.84,582.5,182.84"/>
        <path class="cls-10" d="M729.58,141.57c291.25,0,291.25,553.78,582.5,553.78"/>
        <path class="cls-1" d="M729.58,507.69c291.25,0,291.25,24.87,582.5,24.87"/>
        <path class="cls-15" d="M729.58,249.93c291.25,0,291.25,255.33,582.5,255.33"/>
        <path class="cls-44" d="M729.58,163.82c291.25,0,291.25,441.92,582.5,441.92"/>
        <path class="cls-30" d="M729.58,93.52c291.25,0,291.25,575.28,582.5,575.28"/>
        <path class="cls-2" d="M729.58,590.99c291.25,0,291.25-252.84,582.5-252.84"/>
        <path class="cls-3" d="M729.58,528.5c291.25,0,291.25-254.21,582.5-254.21"/>
        <path class="cls-22" d="M729.58,573.75c291.25,0,291.25-369.82,582.5-369.82"/>
        <path class="cls-3" d="M729.58,531.38c291.25,0,291.25-118.61,582.5-118.61"/>
        <path class="cls-30" d="M729.58,102.14c291.25,0,291.25,666.39,582.5,666.39"/>
        <path class="cls-37" d="M729.58,518.44c291.25,0,291.25-487.55,582.5-487.55"/>
        <path class="cls-48" d="M729.58,300.17c291.25,0,291.25-71.12,582.5-71.12"/>
        <path class="cls-8" d="M729.58,453.14c291.25,0,291.25,125.35,582.5,125.35"/>
        <path class="cls-43" d="M729.58,743.21c291.25,0,291.25-55.74,582.5-55.74"/>
        <path class="cls-59" d="M729.58,366.91c291.25,0,291.25-264.96,582.5-264.96"/>
        <path class="cls-43" d="M729.58,740.34c291.25,0,291.25-172.6,582.5-172.6"/>
        <path class="cls-58" d="M729.58,270.05c291.25,0,291.25,519.29,582.5,519.29"/>
        <path class="cls-2" d="M729.58,619.74c291.25,0,291.25,175.35,582.5,175.35"/>
        <path class="cls-26" d="M729.58,494.76c291.25,0,291.25-296.58,582.5-296.58"/>
        <path class="cls-35" d="M729.58,207.56c291.25,0,291.25-32.38,582.5-32.38"/>
        <path class="cls-51" d="M729.58,331.04c291.25,0,291.25-1.51,582.5-1.51"/>
        <path class="cls-37" d="M729.58,524.19c291.25,0,291.25-417.93,582.5-417.93"/>
        <path class="cls-10" d="M729.58,135.82c291.25,0,291.25,243.95,582.5,243.95"/>
        <path class="cls-27" d="M729.58,627.61c291.25,0,291.25-43.37,582.5-43.37"/>
        <path class="cls-2" d="M729.58,588.12c291.25,0,291.25-275.08,582.5-275.08"/>
        <path class="cls-59" d="M729.58,412.9c291.25,0,291.25-30.25,582.5-30.25"/>
        <path class="cls-4" d="M729.58,408.59c291.25,0,291.25-74.75,582.5-74.75"/>
        <path class="cls-60" d="M729.58,663.48c291.25,0,291.25-76.36,582.5-76.36"/>
        <path class="cls-5" d="M729.58,89.2c291.25,0,291.25,540.91,582.5,540.91"/>
        <path class="cls-51" d="M729.58,336.79c291.25,0,291.25,282.57,582.5,282.57"/>
        <path class="cls-10" d="M729.58,138.7c291.25,0,291.25,298.44,582.5,298.44"/>
        <path class="cls-44" d="M729.58,160.94c291.25,0,291.25,294.82,582.5,294.82"/>
        <path class="cls-2" d="M729.58,568c291.25,0,291.25-429.43,582.5-429.43"/>
        <path class="cls-1" d="M729.58,499.07c291.25,0,291.25-90.62,582.5-90.62"/>
        <path class="cls-44" d="M729.58,166.69c291.25,0,291.25,449.79,582.5,449.79"/>
        <path class="cls-59" d="M729.58,470.39c291.25,0,291.25,308.2,582.5,308.2"/>
        <path class="cls-62" d="M729.58,646.98c291.25,0,291.25-24.75,582.5-24.75"/>
        <path class="cls-3" d="M729.58,537.13c291.25,0,291.25,60.74,582.5,60.74"/>
        <path class="cls-5" d="M729.58,77.71c291.25,0,291.25,46.49,582.5,46.49"/>
        <path class="cls-43" d="M729.58,746.09c291.25,0,291.25-34.24,582.5-34.24"/>
        <path class="cls-43" d="M729.58,737.47c291.25,0,291.25-194.84,582.5-194.84"/>
        <path class="cls-54" d="M729.58,242.74c291.25,0,291.25,217.33,582.5,217.33"/>
        <path class="cls-60" d="M729.58,666.35c291.25,0,291.25,42.62,582.5,42.62"/>
        <path class="cls-12" d="M729.58,69.83c291.25,0,291.25,383.06,582.5,383.06"/>
        <path class="cls-59" d="M729.58,421.52c291.25,0,291.25,53.61,582.5,53.61"/>
        <path class="cls-51" d="M729.58,313.79c291.25,0,291.25-295.83,582.5-295.83"/>
        <path class="cls-62" d="M729.58,635.48c291.25,0,291.25-567.28,582.5-567.28"/>
        <path class="cls-43" d="M729.58,731.72c291.25,0,291.25-302.45,582.5-302.45"/>
        <path class="cls-54" d="M729.58,236.99c291.25,0,291.25,187.96,582.5,187.96"/>
        <path class="cls-26" d="M729.58,491.89c291.25,0,291.25-465.3,582.5-465.3"/>
        <path class="cls-5" d="M729.58,97.83c291.25,0,291.25,632.64,582.5,632.64"/>
        <path class="cls-58" d="M729.58,255.68c291.25,0,291.25,294.82,582.5,294.82"/>
        <path class="cls-47" d="M729.58,117.2c291.25,0,291.25,477.79,582.5,477.79"/>
        <path class="cls-48" d="M729.58,294.42c291.25,0,291.25-239.84,582.5-239.84"/>
        <path class="cls-61" d="M729.58,280.8c291.25,0,291.25,91.1,582.5,91.1"/>
        <path class="cls-44" d="M729.58,149.45c291.25,0,291.25-97.74,582.5-97.74"/>
        <path class="cls-47" d="M729.58,114.33c291.25,0,291.25,306.32,582.5,306.32"/>
        <path class="cls-44" d="M729.58,172.44c291.25,0,291.25,600.4,582.5,600.4"/>
        <path class="cls-24" d="M729.58,481.14c291.25,0,291.25-237.72,582.5-237.72"/>
        <path class="cls-58" d="M729.58,267.18c291.25,0,291.25,508.54,582.5,508.54"/>
        <path class="cls-12" d="M729.58,64.08c291.25,0,291.25,187.21,582.5,187.21"/>
        <path class="cls-44" d="M729.58,169.57c291.25,0,291.25,489.92,582.5,489.92"/>
        <path class="cls-59" d="M729.58,415.77c291.25,0,291.25,29.24,582.5,29.24"/>
        <path class="cls-26" d="M729.58,503.38c291.25,0,291.25-36.12,582.5-36.12"/>
        <path class="cls-3" d="M729.58,534.25c291.25,0,291.25-56.24,582.5-56.24"/>
        <path class="cls-58" d="M729.58,264.3c291.25,0,291.25,469.05,582.5,469.05"/>
        <path class="cls-43" d="M729.58,691.47c291.25,0,291.25-550.04,582.5-550.04"/>
        <path class="cls-44" d="M729.58,158.07c291.25,0,291.25,210.95,582.5,210.95"/>
      </g>
      <rect class="cls-77" x="727.08" y="22.27" width="27.28" height="759.19"/>
      <g class="cls-69">
        <text class="cls-71" transform="translate(737.71 66.38)"><tspan x="0" y="0">4</tspan></text>
      </g>
      <g class="cls-69">
        <text class="cls-71" transform="translate(732.71 94.37)"><tspan x="0" y="0">4.5</tspan></text>
      </g>
      <g class="cls-69">
        <text class="cls-71" transform="translate(732.71 118.06)"><tspan x="0" y="0">4.6</tspan></text>
      </g>
      <g class="cls-69">
        <text class="cls-71" transform="translate(732.71 128.81)"><tspan x="0" y="0">4.7</tspan></text>
      </g>
      <g class="cls-69">
        <text class="cls-71" transform="translate(732.71 140.99)"><tspan x="0" y="0">4.8</tspan></text>
      </g>
      <g class="cls-69">
        <text class="cls-71" transform="translate(737.71 164.68)"><tspan x="0" y="0">5</tspan></text>
      </g>
      <g class="cls-69">
        <text class="cls-71" transform="translate(732.71 185.49)"><tspan x="0" y="0">5.2</tspan></text>
      </g>
      <g class="cls-69">
        <text class="cls-71" transform="translate(732.71 199.11)"><tspan x="0" y="0">5.3</tspan></text>
      </g>
      <g class="cls-69">
        <text class="cls-71" transform="translate(732.71 211.29)"><tspan x="0" y="0">5.4</tspan></text>
      </g>
      <g class="cls-69">
        <text class="cls-71" transform="translate(732.71 246.48)"><tspan x="0" y="0">5.5</tspan></text>
      </g>
      <g class="cls-69">
        <text class="cls-71" transform="translate(732.71 285.97)"><tspan x="0" y="0">5.6</tspan></text>
      </g>
      <g class="cls-69">
        <text class="cls-71" transform="translate(732.71 303.9)"><tspan x="0" y="0">5.7</tspan></text>
      </g>
      <g class="cls-69">
        <text class="cls-71" transform="translate(732.71 330.48)"><tspan x="0" y="0">5.8</tspan></text>
      </g>
      <g class="cls-69">
        <text class="cls-71" transform="translate(732.71 355.58)"><tspan x="0" y="0">5.9</tspan></text>
      </g>
      <g class="cls-69">
        <text class="cls-71" transform="translate(737.71 416.67)"><tspan x="0" y="0">6</tspan></text>
      </g>
      <g class="cls-69">
        <text class="cls-71" transform="translate(732.71 484.87)"><tspan x="0" y="0">6.1</tspan></text>
      </g>
      <g class="cls-69">
        <text class="cls-71" transform="translate(732.71 504.24)"><tspan x="0" y="0">6.2</tspan></text>
      </g>
      <g class="cls-69">
        <text class="cls-71" transform="translate(732.71 533.67)"><tspan x="0" y="0">6.3</tspan></text>
      </g>
      <g class="cls-69">
        <text class="cls-71" transform="translate(732.71 586.14)"><tspan x="0" y="0">6.5</tspan></text>
      </g>
      <g class="cls-69">
        <text class="cls-71" transform="translate(732.71 631.34)"><tspan x="0" y="0">6.6</tspan></text>
      </g>
      <g class="cls-69">
        <text class="cls-71" transform="translate(732.71 644.97)"><tspan x="0" y="0">6.7</tspan></text>
      </g>
      <g class="cls-69">
        <text class="cls-71" transform="translate(732.71 664.34)"><tspan x="0" y="0">6.8</tspan></text>
      </g>
      <g class="cls-69">
        <text class="cls-71" transform="translate(737.71 718.22)"><tspan x="0" y="0">7</tspan></text>
      </g>
      <g class="cls-69">
        <text class="cls-73" transform="translate(1321.41 33.21)"><tspan x="0" y="0">Abud Carrillo, Jenny</tspan></text>
      </g>
      <g class="cls-69">
        <text class="cls-73" transform="translate(1321.41 56.02)"><tspan x="0" y="0">Benavides Bermúdez, Paola</tspan></text>
      </g>
      <g class="cls-69">
        <text class="cls-73" transform="translate(1321.41 76.27)"><tspan x="0" y="0">Castillo Espinoza, Eduardo</tspan></text>
      </g>
      <g class="cls-69">
        <text class="cls-73" transform="translate(1321.41 108.55)"><tspan x="0" y="0">Cortez Orellana, Felipe</tspan></text>
      </g>
      <g class="cls-69">
        <text class="cls-73" transform="translate(1321.41 136.55)"><tspan x="0" y="0">De la Sotta Lazzerini, Paola</tspan></text>
      </g>
      <g class="cls-69">
        <text class="cls-72" transform="translate(96.58 140.83)"><tspan x="0" y="0">Diseño</tspan></text>
      </g>
      <g class="cls-69">
        <text class="cls-72" transform="translate(0 293.9)"><tspan x="0" y="0">Diseño con mención I y S</tspan></text>
      </g>
      <g class="cls-69">
        <text class="cls-72" transform="translate(9.79 573.25)"><tspan x="0" y="0">Diseño con mención en</tspan><tspan x="94.74" y="13.2">V y M</tspan></text>
      </g>
      <g class="cls-69">
        <text class="cls-73" transform="translate(1321.41 184.7)"><tspan x="0" y="0">Domínguez González, Pablo</tspan></text>
      </g>
      <g class="cls-69">
        <text class="cls-73" transform="translate(1321.84 237.67)"><tspan x="0" y="0">Donoso Cisternas, Sergio</tspan></text>
      </g>
      <g class="cls-69">
        <text class="cls-73" transform="translate(1321.41 270.84)"><tspan x="0" y="0">Dueñas Santande</tspan></text>
        <text class="cls-74" transform="translate(1396.93 270.84)"><tspan x="0" y="0">r</tspan></text>
        <text class="cls-73" transform="translate(1399.94 270.84)"><tspan x="0" y="0">, Rodrigo</tspan></text>
      </g>
      <g class="cls-69">
        <text class="cls-73" transform="translate(1321.41 300.29)"><tspan x="0" y="0">Gatica Ramírez, Pamela</tspan></text>
      </g>
      <g class="cls-69">
        <text class="cls-73" transform="translate(1321.41 318.22)"><tspan x="0" y="0">Gómez Moya, Cristián</tspan></text>
      </g>
      <g class="cls-69">
        <text class="cls-73" transform="translate(1321.41 346.22)"><tspan x="0" y="0">Jacob Dazarola, Rubén</tspan></text>
      </g>
      <g class="cls-69">
        <text class="cls-73" transform="translate(1321.41 374.19)"><tspan x="0" y="0">Jove</tspan></text>
        <text class="cls-78" transform="translate(1341.92 374.19)"><tspan x="0" y="0" xml:space="preserve"> A</tspan></text>
        <text class="cls-73" transform="translate(1350.26 374.19)"><tspan x="0" y="0">vilés, </tspan></text>
        <text class="cls-74" transform="translate(1375.27 374.19)"><tspan x="0" y="0">T</tspan></text>
        <text class="cls-73" transform="translate(1380.27 374.19)"><tspan x="0" y="0">rinidad</tspan></text>
      </g>
      <g class="cls-69">
        <text class="cls-73" transform="translate(1321.41 386.4)"><tspan x="0" y="0">Lares López, Lorna</tspan></text>
      </g>
      <g class="cls-69">
        <text class="cls-73" transform="translate(1321.41 401.44)"><tspan x="0" y="0">Lepe Muñoz, Juan Carlos</tspan></text>
      </g>
      <g class="cls-69">
        <text class="cls-73" transform="translate(1321.41 413.63)"><tspan x="0" y="0">Maldonado de la Fuente, Felix</tspan></text>
      </g>
      <g class="cls-69">
        <text class="cls-73" transform="translate(1321.41 427.27)"><tspan x="0" y="0">Marín Pacheco,</tspan></text>
        <text class="cls-70" transform="translate(1387.43 427.27)"><tspan x="0" y="0"> </tspan></text>
        <text class="cls-73" transform="translate(1389.6 427.27)"><tspan x="0" y="0">Antonio</tspan></text>
      </g>
      <g class="cls-69">
        <text class="cls-73" transform="translate(1321.41 439.45)"><tspan x="0" y="0">Molina Oyarzún, Raúl</tspan></text>
      </g>
      <g class="cls-69">
        <text class="cls-73" transform="translate(1321.41 448.75)"><tspan x="0" y="0">Mora Briones,</tspan></text>
        <text class="cls-70" transform="translate(1381.42 448.75)"><tspan x="0" y="0"> </tspan></text>
        <text class="cls-73" transform="translate(1383.59 448.75)"><tspan x="0" y="0">Alfredo</tspan></text>
      </g>
      <g class="cls-69">
        <text class="cls-73" transform="translate(1321.41 462.39)"><tspan x="0" y="0">Morales Mujica, María Paz</tspan></text>
      </g>
      <g class="cls-69">
        <text class="cls-73" transform="translate(1321.41 480.3)"><tspan x="0" y="0">Méndez Olivares, Iván</tspan></text>
      </g>
      <g class="cls-69">
        <text class="cls-73" transform="translate(1321.41 492.51)"><tspan x="0" y="0">Nuñez Gutiérrez, Pablo</tspan></text>
      </g>
      <g class="cls-69">
        <text class="cls-73" transform="translate(1321.41 524.82)"><tspan x="0" y="0">Ode Saleh, </tspan></text>
        <text class="cls-74" transform="translate(1370.43 524.82)"><tspan x="0" y="0">V</tspan></text>
        <text class="cls-73" transform="translate(1375.93 524.82)"><tspan x="0" y="0">erónica</tspan></text>
      </g>
      <g class="cls-69">
        <text class="cls-73" transform="translate(1321.41 561.44)"><tspan x="0" y="0">Osses Flores, Roberto</tspan></text>
      </g>
      <g class="cls-69">
        <text class="cls-73" transform="translate(1321.41 583.68)"><tspan x="0" y="0">Pagueguy Fenne</tspan></text>
        <text class="cls-74" transform="translate(1393.42 583.68)"><tspan x="0" y="0">r</tspan></text>
        <text class="cls-73" transform="translate(1396.43 583.68)"><tspan x="0" y="0">, Sebastián</tspan></text>
      </g>
      <g class="cls-69">
        <text class="cls-73" transform="translate(1321.72 599.3)"><tspan x="0" y="0">Perea Morales, René</tspan></text>
      </g>
      <g class="cls-69">
        <text class="cls-73" transform="translate(1321.72 610.05)"><tspan x="0" y="0">Perelli Soto, Bruno</tspan></text>
      </g>
      <g class="cls-69">
        <text class="cls-73" transform="translate(1321.72 622.24)"><tspan x="0" y="0">Pradenas Guentherodt, Gabriela</tspan></text>
      </g>
      <g class="cls-69">
        <text class="cls-73" transform="translate(1321.41 635.3)"><tspan x="0" y="0">Reyes León, Daniel</tspan></text>
      </g>
      <g class="cls-69">
        <text class="cls-73" transform="translate(1321.41 646.05)"><tspan x="0" y="0">Ruiz Balart, Macarena</tspan></text>
      </g>
      <g class="cls-69">
        <text class="cls-73" transform="translate(1321.41 655.34)"><tspan x="0" y="0">Santibañez Boric, Mónica</tspan></text>
      </g>
      <g class="cls-69">
        <text class="cls-73" transform="translate(1321.41 664.63)"><tspan x="0" y="0">Silva Roquefort, Rebeca</tspan></text>
      </g>
      <g class="cls-69">
        <text class="cls-73" transform="translate(1321.41 680.29)"><tspan x="0" y="0">Soto Calquín, Leonardo</tspan></text>
      </g>
      <g class="cls-69">
        <text class="cls-73" transform="translate(1321.41 698.06)"><tspan x="0" y="0">Stange Marcus, Hans</tspan></text>
      </g>
      <g class="cls-69">
        <text class="cls-67" transform="translate(1321.41 710.91)"><tspan x="0" y="0">T</tspan></text>
        <text class="cls-73" transform="translate(1326.24 710.91)"><tspan x="0" y="0">apia Reyes, Mauricio</tspan></text>
      </g>
      <g class="cls-69">
        <text class="cls-66" transform="translate(1321.41 724.89)"><tspan x="0" y="0">V</tspan></text>
        <text class="cls-73" transform="translate(1327.25 724.89)"><tspan x="0" y="0">ico Sánchez, Mauricio</tspan></text>
      </g>
      <g class="cls-69">
        <text class="cls-66" transform="translate(1321.41 747.16)"><tspan x="0" y="0">W</tspan></text>
        <text class="cls-73" transform="translate(1329.74 747.16)"><tspan x="0" y="0">echsler Pizarro,</tspan></text>
        <text class="cls-70" transform="translate(1396.78 747.16)"><tspan x="0" y="0"> </tspan></text>
        <text class="cls-73" transform="translate(1398.94 747.16)"><tspan x="0" y="0">Andrea</tspan></text>
      </g>
      <g class="cls-69">
        <text class="cls-75" transform="translate(1321.42 778.01)"><tspan x="0" y="0">Y</tspan></text>
        <text class="cls-73" transform="translate(1326.75 778.01)"><tspan x="0" y="0">oung</tspan></text>
        <text class="cls-70" transform="translate(1348.75 778.01)"><tspan x="0" y="0"> </tspan></text>
        <text class="cls-73" transform="translate(1350.91 778.01)"><tspan x="0" y="0">Araya, Mariana</tspan></text>
      </g>
      <g class="cls-69">
        <text class="cls-73" transform="translate(1321.41 795.94)"><tspan x="0" y="0">Zorzano Betancourt, Osvaldo</tspan></text>
      </g>
      <g class="cls-69">
        <text class="cls-76" transform="translate(689.95 12.52)"><tspan x="0" y="0">Nota Proyecto</tspan></text>
      </g>
      <g class="cls-69">
        <text class="cls-76" transform="translate(1314.58 12.52)"><tspan x="0" y="0">Profesores Guia</tspan></text>
      </g>
      <g class="cls-69">
        <text class="cls-68" transform="translate(17.76 12.01)"><tspan x="0" y="0">T</tspan></text>
        <text class="cls-76" transform="translate(26.06 12.01)"><tspan x="0" y="0">itulo profesional</tspan></text>
      </g>
      <rect class="cls-79" x="724.58" y="54.02" width="5" height="17.25"/>
      <rect class="cls-79" x="724.58" y="76.27" width="5" height="28.74"/>
      <rect class="cls-79" x="724.58" y="110.01" width="5" height="8.62"/>
      <rect class="cls-79" x="724.58" y="123.64" width="5" height="2.87"/>
      <rect class="cls-79" x="724.58" y="131.51" width="5" height="11.5"/>
      <rect class="cls-79" x="724.58" y="148.01" width="5" height="25.87"/>
      <rect class="cls-79" x="724.58" y="178.88" width="5" height="5.75"/>
      <rect class="cls-79" x="724.58" y="189.63" width="5" height="11.5"/>
      <rect class="cls-79" x="724.58" y="206.12" width="5" height="2.87"/>
      <rect class="cls-79" x="724.58" y="214" width="5" height="57.49"/>
      <rect class="cls-79" x="724.58" y="276.49" width="5" height="11.5"/>
      <rect class="cls-79" x="724.58" y="292.98" width="5" height="14.37"/>
      <rect class="cls-79" x="724.58" y="312.36" width="5" height="31.62"/>
      <rect class="cls-79" x="724.58" y="348.97" width="5" height="5.75"/>
      <rect class="cls-79" x="724.58" y="359.72" width="5" height="112.1"/>
      <rect class="cls-79" x="724.58" y="476.83" width="5" height="8.62"/>
      <rect class="cls-79" x="724.58" y="490.45" width="5" height="20.12"/>
      <rect class="cls-79" x="724.58" y="515.57" width="5" height="28.74"/>
      <rect class="cls-79" x="724.58" y="549.31" width="5" height="71.86"/>
      <rect class="cls-79" x="724.58" y="626.17" width="5" height="2.87"/>
      <rect class="cls-79" x="724.58" y="634.05" width="5" height="14.37"/>
      <rect class="cls-79" x="724.58" y="653.42" width="5" height="14.37"/>
      <rect class="cls-79" x="724.58" y="672.79" width="5" height="86.23"/>
      <rect class="cls-79" x="1312.08" y="16.52" width="5" height="28.74"/>
      <rect class="cls-79" x="1312.08" y="50.27" width="5" height="5.75"/>
      <rect class="cls-79" x="1312.08" y="61.02" width="5" height="25.87"/>
      <rect class="cls-79" x="1312.08" y="91.89" width="5" height="25.87"/>
      <rect class="cls-79" x="1312.08" y="122.76" width="5" height="20.12"/>
      <rect class="cls-79" x="137.08" y="104.02" width="5" height="68.99"/>
      <rect class="cls-79" x="137.08" y="178.01" width="5" height="232.83"/>
      <rect class="cls-79" x="137.08" y="415.83" width="5" height="293.19"/>
      <rect class="cls-79" x="1312.08" y="147.88" width="5" height="71.86"/>
      <rect class="cls-79" x="1312.08" y="224.74" width="5" height="20.12"/>
      <rect class="cls-79" x="1312.08" y="249.86" width="5" height="34.49"/>
      <rect class="cls-79" x="1312.08" y="289.35" width="5" height="17.25"/>
      <rect class="cls-79" x="1312.08" y="311.6" width="5" height="8.62"/>
      <rect class="cls-79" x="1312.08" y="325.22" width="5" height="37.37"/>
      <rect class="cls-79" x="1312.08" y="367.59" width="5" height="5.75"/>
      <rect class="cls-79" x="1312.08" y="378.33" width="5" height="11.5"/>
      <rect class="cls-79" x="1312.08" y="394.83" width="5" height="5.75"/>
      <rect class="cls-79" x="1312.08" y="405.58" width="5" height="8.62"/>
      <rect class="cls-79" x="1312.08" y="419.2" width="5" height="11.5"/>
      <rect class="cls-79" x="1312.08" y="435.7" width="5" height="2.87"/>
      <rect class="cls-79" x="1312.08" y="443.58" width="5" height="2.87"/>
      <rect class="cls-79" x="1312.08" y="451.45" width="5" height="17.25"/>
      <rect class="cls-79" x="1312.08" y="473.7" width="5" height="5.75"/>
      <rect class="cls-79" x="1312.08" y="484.45" width="5" height="11.5"/>
      <rect class="cls-79" x="1312.08" y="500.94" width="5" height="43.12"/>
      <rect class="cls-79" x="1312.08" y="549.06" width="5" height="20.12"/>
      <rect class="cls-79" x="1312.08" y="574.18" width="5" height="14.37"/>
      <rect class="cls-79" x="1312.08" y="593.55" width="5" height="5.75"/>
      <rect class="cls-79" x="1312.08" y="604.3" width="5" height="5.75"/>
      <rect class="cls-79" x="1312.08" y="615.05" width="5" height="8.62"/>
      <rect class="cls-79" x="1312.08" y="628.67" width="5" height="8.62"/>
      <rect class="cls-79" x="1312.08" y="642.3" width="5" height="2.87"/>
      <rect class="cls-79" x="1312.08" y="650.17" width="5" height="2.87"/>
      <rect class="cls-79" x="1312.08" y="658.04" width="5" height="2.87"/>
      <rect class="cls-79" x="1312.08" y="665.92" width="5" height="23"/>
      <rect class="cls-79" x="1312.08" y="693.91" width="5" height="2.87"/>
      <rect class="cls-79" x="1312.08" y="701.79" width="5" height="11.5"/>
      <rect class="cls-79" x="1312.08" y="718.29" width="5" height="5.75"/>
      <rect class="cls-79" x="1312.08" y="729.04" width="5" height="31.62"/>
      <rect class="cls-79" x="1312.08" y="765.65" width="5" height="17.25"/>
      <rect class="cls-79" x="1312.08" y="787.9" width="5" height="8.62"/>
    </g>
  </g>
</svg>