<?xml version="1.0" encoding="UTF-8"?>
<svg id="Layer_1" data-name="Layer 1" xmlns="http://www.w3.org/2000/svg" version="1.1" viewBox="0 0 999.5 705.4">
  <defs>
    <style>
      .cls-1 {
        fill: #606060;
        font-family: Arial-BoldMT, Arial;
        font-size: 13px;
        font-weight: 700;
      }

      .cls-1, .cls-2, .cls-3 {
        isolation: isolate;
      }

      .cls-2 {
        fill: #000;
        font-family: ArialMT, Arial;
        font-size: 10px;
      }

      .cls-4 {
        fill: #2c3189;
      }

      .cls-4, .cls-5, .cls-6, .cls-7, .cls-8, .cls-9, .cls-10, .cls-11 {
        stroke-width: 0px;
      }

      .cls-12 {
        stroke: #4b59bc;
      }

      .cls-12, .cls-13, .cls-14, .cls-15, .cls-16, .cls-17, .cls-18, .cls-19, .cls-20 {
        fill: none;
      }

      .cls-12, .cls-15, .cls-17 {
        stroke-miterlimit: 10;
      }

      .cls-13 {
        stroke: #fff;
      }

      .cls-5 {
        fill: #6b6bd6;
      }

      .cls-14 {
        stroke: #5e2c8b;
      }

      .cls-6 {
        fill: #ca02d0;
      }

      .cls-7 {
        fill: #c973da;
      }

      .cls-8 {
        fill: #eda4ef;
      }

      .cls-9 {
        fill: #4b59bc;
      }

      .cls-15 {
        stroke: #6b6bd6;
      }

      .cls-16 {
        stroke: #000;
      }

      .cls-17 {
        stroke: #eda4ef;
      }

      .cls-18 {
        stroke: #a46ad7;
      }

      .cls-10 {
        fill: #f9f9f9;
      }

      .cls-19 {
        stroke: #c973da;
      }

      .cls-11 {
        fill: #fff;
      }

      .cls-20 {
        stroke: #ca02d0;
      }
    </style>
  </defs>
  <rect class="cls-11" y="0" width="999.5" height="705.4"/>
  <rect class="cls-11" y="0" width="999.5" height="705.4"/>
  <rect class="cls-10" x="38.2" y="22.7" width="320.4" height="682.7"/>
  <rect class="cls-10" x="679.1" y="21.8" width="320.4" height="683.6"/>
  <path class="cls-16" d="M31.7,675.9h6.5V21.9h-6.5"/>
  <g>
    <line class="cls-16" x1="37.7" y1="675.9" x2="31.7" y2="675.9"/>
    <g class="cls-3">
      <g class="cls-3">
        <g class="cls-3">
          <text class="cls-2" transform="translate(14.8 679.1)"><tspan x="0" y="0">4.0</tspan></text>
        </g>
      </g>
    </g>
  </g>
  <g>
    <line class="cls-16" x1="37.7" y1="632.3" x2="31.7" y2="632.3"/>
    <g class="cls-3">
      <g class="cls-3">
        <g class="cls-3">
          <text class="cls-2" transform="translate(14.8 635.5)"><tspan x="0" y="0">4.2</tspan></text>
        </g>
      </g>
    </g>
  </g>
  <g>
    <line class="cls-16" x1="37.7" y1="588.7" x2="31.7" y2="588.7"/>
    <g class="cls-3">
      <g class="cls-3">
        <g class="cls-3">
          <text class="cls-2" transform="translate(14.8 591.9)"><tspan x="0" y="0">4.4</tspan></text>
        </g>
      </g>
    </g>
  </g>
  <g>
    <line class="cls-16" x1="37.7" y1="545.1" x2="31.7" y2="545.1"/>
    <g class="cls-3">
      <g class="cls-3">
        <g class="cls-3">
          <text class="cls-2" transform="translate(14.8 548.3)"><tspan x="0" y="0">4.6</tspan></text>
        </g>
      </g>
    </g>
  </g>
  <g>
    <line class="cls-16" x1="37.7" y1="501.5" x2="31.7" y2="501.5"/>
    <g class="cls-3">
      <g class="cls-3">
        <g class="cls-3">
          <text class="cls-2" transform="translate(14.8 504.7)"><tspan x="0" y="0">4.8</tspan></text>
        </g>
      </g>
    </g>
  </g>
  <g>
    <line class="cls-16" x1="37.7" y1="457.9" x2="31.7" y2="457.9"/>
    <g class="cls-3">
      <g class="cls-3">
        <g class="cls-3">
          <text class="cls-2" transform="translate(14.8 461.1)"><tspan x="0" y="0">5.0</tspan></text>
        </g>
      </g>
    </g>
  </g>
  <g>
    <line class="cls-16" x1="37.7" y1="414.3" x2="31.7" y2="414.3"/>
    <g class="cls-3">
      <g class="cls-3">
        <g class="cls-3">
          <text class="cls-2" transform="translate(14.8 417.5)"><tspan x="0" y="0">5.2</tspan></text>
        </g>
      </g>
    </g>
  </g>
  <g>
    <line class="cls-16" x1="37.7" y1="370.7" x2="31.7" y2="370.7"/>
    <g class="cls-3">
      <g class="cls-3">
        <g class="cls-3">
          <text class="cls-2" transform="translate(14.8 373.9)"><tspan x="0" y="0">5.4</tspan></text>
        </g>
      </g>
    </g>
  </g>
  <g>
    <line class="cls-16" x1="37.7" y1="327.1" x2="31.7" y2="327.1"/>
    <g class="cls-3">
      <g class="cls-3">
        <g class="cls-3">
          <text class="cls-2" transform="translate(14.8 330.3)"><tspan x="0" y="0">5.6</tspan></text>
        </g>
      </g>
    </g>
  </g>
  <g>
    <line class="cls-16" x1="37.7" y1="283.5" x2="31.7" y2="283.5"/>
    <g class="cls-3">
      <g class="cls-3">
        <g class="cls-3">
          <text class="cls-2" transform="translate(14.8 286.7)"><tspan x="0" y="0">5.8</tspan></text>
        </g>
      </g>
    </g>
  </g>
  <g>
    <line class="cls-16" x1="37.7" y1="239.9" x2="31.7" y2="239.9"/>
    <g class="cls-3">
      <g class="cls-3">
        <g class="cls-3">
          <text class="cls-2" transform="translate(14.8 243.1)"><tspan x="0" y="0">6.0</tspan></text>
        </g>
      </g>
    </g>
  </g>
  <g>
    <line class="cls-16" x1="37.7" y1="196.3" x2="31.7" y2="196.3"/>
    <g class="cls-3">
      <g class="cls-3">
        <g class="cls-3">
          <text class="cls-2" transform="translate(14.8 199.5)"><tspan x="0" y="0">6.2</tspan></text>
        </g>
      </g>
    </g>
  </g>
  <g>
    <line class="cls-16" x1="37.7" y1="152.7" x2="31.7" y2="152.7"/>
    <g class="cls-3">
      <g class="cls-3">
        <g class="cls-3">
          <text class="cls-2" transform="translate(14.8 155.9)"><tspan x="0" y="0">6.4</tspan></text>
        </g>
      </g>
    </g>
  </g>
  <g>
    <line class="cls-16" x1="37.7" y1="109.1" x2="31.7" y2="109.1"/>
    <g class="cls-3">
      <g class="cls-3">
        <g class="cls-3">
          <text class="cls-2" transform="translate(14.8 112.3)"><tspan x="0" y="0">6.6</tspan></text>
        </g>
      </g>
    </g>
  </g>
  <g>
    <line class="cls-16" x1="37.7" y1="65.5" x2="31.7" y2="65.5"/>
    <g class="cls-3">
      <g class="cls-3">
        <g class="cls-3">
          <text class="cls-2" transform="translate(14.8 68.7)"><tspan x="0" y="0">6.8</tspan></text>
        </g>
      </g>
    </g>
  </g>
  <g>
    <line class="cls-16" x1="37.7" y1="21.9" x2="31.7" y2="21.9"/>
    <g class="cls-3">
      <g class="cls-3">
        <g class="cls-3">
          <text class="cls-2" transform="translate(14.8 25.1)"><tspan x="0" y="0">7.0</tspan></text>
        </g>
      </g>
    </g>
  </g>
  <g class="cls-3">
    <g class="cls-3">
      <g class="cls-3">
        <text class="cls-1" transform="translate(31.7 15.6)"><tspan x="0" y="0">Nota Proyecto</tspan></text>
      </g>
    </g>
  </g>
  <line class="cls-16" x1="921.1" y1="675.4" x2="921.1" y2="681.4"/>
  <g class="cls-3">
    <g class="cls-3">
      <g class="cls-3">
        <text class="cls-2" transform="translate(45.4 691.5)"><tspan x="0" y="0">Diseñadora con mención V y M</tspan></text>
      </g>
    </g>
  </g>
  <line class="cls-16" x1="122" y1="675.4" x2="122" y2="681.4"/>
  <line class="cls-20" x1="110" y1="675.4" x2="133" y2="675.4"/>
  <path class="cls-6" d="M122,675.4h-1v-6h1v6ZM122,667.4h-1v-6h1v6ZM122,659.4h-1v-6h1v6ZM122,651.4h-1v-6h1v6ZM122,643.4h-1v-6h1v6ZM122,635.4h-1v-6h1v6ZM122,627.4h-1v-6h1v6ZM122,619.4h-1v-6h1v6ZM122,611.4h-1v-6h1v6ZM122,603.4h-1v-6h1v6ZM122,595.4h-1v-6h1v6ZM122,587.4h-1v-6h1v6ZM122,579.4h-1v-6h1v6ZM122,571.4h-1v-6h1v6ZM122,563.4h-1v-6h1v6ZM122,555.4h-1v-6h1v6ZM122,547.4h-1v-6h1v6ZM122,539.4h-1v-6h1v6ZM122,531.4h-1v-6h1v6ZM122,523.4h-1v-6h1v6ZM122,515.4h-1v-6h1v6ZM122,507.4h-1v-6h1v6ZM122,499.4h-1v-6h1v6ZM122,491.4h-1v-6h1v6ZM122,483.4h-1v-6h1v6ZM122,475.4h-1v-6h1v6ZM122,467.4h-1v-6h1v6ZM122,459.4h-1v-6h1v6ZM122,451.4h-1v-6h1v6ZM122,443.4h-1v-6h1v6ZM122,435.4h-1v-6h1v6ZM122,427.4h-1v-6h1v6ZM122,419.4h-1v-6h1v6ZM122,411.4h-1v-6h1v6ZM122,403.4h-1v-6h1v6ZM122,395.4h-1v-6h1v6ZM122,387.4h-1v-6h1v6ZM122,379.4h-1v-6h1v6ZM122,371.4h-1v-6h1v6ZM122,363.4h-1v-6h1v6ZM122,355.4h-1v-6h1v6ZM122,347.4h-1v-6h1v6ZM122,339.4h-1v-6h1v6ZM122,331.4h-1v-6h1v6ZM122,323.4h-1v-6h1v6ZM122,315.4h-1v-6h1v6ZM122,307.4h-1v-6h1v6ZM122,299.4h-1v-6h1v6ZM122,291.4h-1v-6h1v6ZM122,283.4h-1v-6h1v6ZM122,275.4h-1v-6h1v6ZM122,267.4h-1v-6h1v6ZM122,259.4h-1v-6h1v6ZM122,251.4h-1v-6h1v6ZM122,243.4h-1v-6h1v6ZM122,235.4h-1v-6h1v6ZM122,227.4h-1v-6h1v6ZM122,219.4h-1v-6h1v6ZM122,211.4h-1v-6h1v6ZM122,203.4h-1v-6h1v6ZM122,195.4h-1v-6h1v6ZM122,187.4h-1v-6h1v6ZM122,179.4h-1v-6h1v6ZM122,171.4h-1v-6h1v6ZM122,163.4h-1v-6h1v6ZM122,155.4h-1v-6h1v6ZM122,147.4h-1v-6h1v6ZM122,139.4h-1v-6h1v6ZM122,131.4h-1v-6h1v6ZM122,123.4h-1v-6h1v6ZM122,115.4h-1v-6h1v6ZM122,107.4h-1v-6h1v6ZM122,99.4h-1v-6h1v6ZM122,91.4h-1v-6h1v6ZM122,83.4h-1v-6h1v6ZM122,75.4h-1v-6h1v6ZM122,67.4h-1v-6h1v6ZM122,59.4h-1v-6h1v6ZM122,51.4h-1v-6h1v6ZM122,43.4h-1v-6h1v6ZM122,35.4h-1v-6h1v6ZM122,27.4h-1v-6h1v6Z"/>
  <rect class="cls-6" x="110" y="130.4" width="23" height="207.1"/>
  <line class="cls-13" x1="110" y1="239.4" x2="133" y2="239.4"/>
  <g class="cls-3">
    <g class="cls-3">
      <g class="cls-3">
        <text class="cls-2" transform="translate(136.9 243)"><tspan x="0" y="0">6</tspan></text>
      </g>
    </g>
  </g>
  <g>
    <line class="cls-20" x1="110" y1="21.4" x2="133" y2="21.4"/>
    <g class="cls-3">
      <g class="cls-3">
        <g class="cls-3">
          <text class="cls-2" transform="translate(136.9 29.7)"><tspan x="0" y="0">7</tspan></text>
        </g>
      </g>
    </g>
    <g class="cls-3">
      <g class="cls-3">
        <g class="cls-3">
          <text class="cls-2" transform="translate(136.9 673.4)"><tspan x="0" y="0">4</tspan></text>
        </g>
      </g>
    </g>
    <g class="cls-3">
      <g class="cls-3">
        <g class="cls-3">
          <text class="cls-2" transform="translate(87.3 337.5)"><tspan x="0" y="0">5.55</tspan></text>
        </g>
      </g>
    </g>
    <g class="cls-3">
      <g class="cls-3">
        <g class="cls-3">
          <text class="cls-2" transform="translate(92.8 137.6)"><tspan x="0" y="0">6.5</tspan></text>
        </g>
      </g>
    </g>
  </g>
  <g>
    <line class="cls-16" x1="436.4" y1="675.4" x2="436.4" y2="681.4"/>
    <g class="cls-3">
      <g class="cls-3">
        <g class="cls-3">
          <text class="cls-2" transform="translate(410.8 691.5)"><tspan x="0" y="0">Diseñadora</tspan></text>
        </g>
      </g>
    </g>
  </g>
  <path class="cls-7" d="M436.4,566.4h-1v-1h1v1ZM436.4,563.4h-1v-6h1v6ZM436.4,555.4h-1v-6h1v6ZM436.4,547.4h-1v-6h1v6ZM436.4,539.4h-1v-6h1v6ZM436.4,531.4h-1v-6h1v6ZM436.4,523.4h-1v-6h1v6ZM436.4,515.4h-1v-6h1v6ZM436.4,507.4h-1v-6h1v6ZM436.4,499.4h-1v-6h1v6ZM436.4,491.4h-1v-6h1v6ZM436.4,483.4h-1v-6h1v6ZM436.4,475.4h-1v-6h1v6ZM436.4,467.4h-1v-6h1v6ZM436.4,459.4h-1v-6h1v6ZM436.4,451.4h-1v-6h1v6ZM436.4,443.4h-1v-6h1v6ZM436.4,435.4h-1v-6h1v6ZM436.4,427.4h-1v-6h1v6ZM436.4,419.4h-1v-6h1v6ZM436.4,411.4h-1v-6h1v6ZM436.4,403.4h-1v-6h1v6ZM436.4,395.4h-1v-6h1v6ZM436.4,387.4h-1v-6h1v6ZM436.4,379.4h-1v-6h1v6ZM436.4,371.4h-1v-6h1v6ZM436.4,363.4h-1v-6h1v6ZM436.4,355.4h-1v-6h1v6ZM436.4,347.4h-1v-6h1v6ZM436.4,339.4h-1v-6h1v6ZM436.4,331.4h-1v-6h1v6ZM436.4,323.4h-1v-6h1v6ZM436.4,315.4h-1v-6h1v6ZM436.4,307.4h-1v-6h1v6ZM436.4,299.4h-1v-6h1v6ZM436.4,291.4h-1v-6h1v6ZM436.4,283.4h-1v-6h1v6ZM436.4,275.4h-1v-6h1v6ZM436.4,267.4h-1v-6h1v6ZM436.4,259.4h-1v-6h1v6ZM436.4,251.4h-1v-6h1v6ZM436.4,243.4h-1v-6h1v6ZM436.4,235.4h-1v-6h1v6ZM436.4,227.4h-1v-6h1v6ZM436.4,219.4h-1v-6h1v6ZM436.4,211.4h-1v-6h1v6ZM436.4,203.4h-1v-6h1v6ZM436.4,195.4h-1v-6h1v6ZM436.4,187.4h-1v-6h1v6ZM436.4,179.4h-1v-6h1v6ZM436.4,171.4h-1v-6h1v6ZM436.4,163.4h-1v-6h1v6ZM436.4,155.4h-1v-6h1v6ZM436.4,147.4h-1v-6h1v6ZM436.4,139.4h-1v-6h1v6ZM436.4,131.4h-1v-6h1v6ZM436.4,123.4h-1v-6h1v6ZM436.4,115.4h-1v-6h1v6ZM436.4,107.4h-1v-6h1v6ZM436.4,99.4h-1v-6h1v6ZM436.4,91.4h-1v-6h1v6ZM436.4,83.4h-1v-6h1v6ZM436.4,75.4h-1v-6h1v6ZM436.4,67.4h-1v-6h1v6ZM436.4,59.4h-1v-6h1v6ZM436.4,51.4h-1v-6h1v6ZM436.4,43.4h-1v-6h1v6ZM436.4,35.4h-1v-6h1v6ZM436.4,27.4h-1v-6h1v6Z"/>
  <line class="cls-19" x1="424.4" y1="21.4" x2="447.4" y2="21.4"/>
  <line class="cls-19" x1="424.4" y1="566.4" x2="447.4" y2="566.4"/>
  <rect class="cls-7" x="424.4" y="97.7" width="23" height="218"/>
  <line class="cls-13" x1="424.4" y1="239.4" x2="447.4" y2="239.4"/>
  <g class="cls-3">
    <g class="cls-3">
      <g class="cls-3">
        <text class="cls-2" transform="translate(451.4 28.4)"><tspan x="0" y="0">7</tspan></text>
      </g>
    </g>
  </g>
  <g class="cls-3">
    <g class="cls-3">
      <g class="cls-3">
        <text class="cls-2" transform="translate(451.4 564.4)"><tspan x="0" y="0">4.5</tspan></text>
      </g>
    </g>
  </g>
  <g class="cls-3">
    <g class="cls-3">
      <g class="cls-3">
        <text class="cls-2" transform="translate(451.4 243.2)"><tspan x="0" y="0">6</tspan></text>
      </g>
    </g>
  </g>
  <g class="cls-3">
    <g class="cls-3">
      <g class="cls-3">
        <text class="cls-2" transform="translate(402.1 315.7)"><tspan x="0" y="0">5.65</tspan></text>
      </g>
    </g>
  </g>
  <g class="cls-3">
    <g class="cls-3">
      <g class="cls-3">
        <text class="cls-2" transform="translate(402.1 105)"><tspan x="0" y="0">6.65</tspan></text>
      </g>
    </g>
  </g>
  <g class="cls-3">
    <g class="cls-3">
      <g class="cls-3">
        <text class="cls-2" transform="translate(855.4 691.6)"><tspan x="0" y="0">Diseñador con mención I y S</tspan></text>
      </g>
    </g>
  </g>
  <path class="cls-9" d="M921.6,566.4h-1v-5.4h1v5.4ZM921.6,559h-1v-6h1v6ZM921.6,551h-1v-6h1v6ZM921.6,543h-1v-6h1v6ZM921.6,535h-1v-6h1v6ZM921.6,527h-1v-6h1v6ZM921.6,519h-1v-6h1v6ZM921.6,511h-1v-6h1v6ZM921.6,503h-1v-6h1v6ZM921.6,495h-1v-6h1v6ZM921.6,487h-1v-6h1v6ZM921.6,479h-1v-6h1v6ZM921.6,471h-1v-6h1v6ZM921.6,463h-1v-6h1v6ZM921.6,455h-1v-6h1v6ZM921.6,447h-1v-6h1v6ZM921.6,439h-1v-6h1v6ZM921.6,431h-1v-6h1v6ZM921.6,423h-1v-6h1v6ZM921.6,415h-1v-6h1v6ZM921.6,407h-1v-6h1v6ZM921.6,399h-1v-6h1v6ZM921.6,391h-1v-6h1v6ZM921.6,383h-1v-6h1v6ZM921.6,375h-1v-6h1v6ZM921.6,367h-1v-6h1v6ZM921.6,359h-1v-6h1v6ZM921.6,351h-1v-6h1v6ZM921.6,343h-1v-6h1v6ZM921.6,335h-1v-6h1v6ZM921.6,327h-1v-6h1v6ZM921.6,319h-1v-6h1v6ZM921.6,311h-1v-6h1v6ZM921.6,303h-1v-6h1v6ZM921.6,295h-1v-6h1v6ZM921.6,287h-1v-6h1v6ZM921.6,279h-1v-6h1v6ZM921.6,271h-1v-6h1v6ZM921.6,263h-1v-6h1v6ZM921.6,255h-1v-6h1v6ZM921.6,247h-1v-6h1v6ZM921.6,239h-1v-6h1v6ZM921.6,231h-1v-6h1v6ZM921.6,223h-1v-6h1v6ZM921.6,215h-1v-6h1v6ZM921.6,207h-1v-6h1v6ZM921.6,199h-1v-6h1v6ZM921.6,191h-1v-6h1v6ZM921.6,183h-1v-6h1v6ZM921.6,175h-1v-6h1v6ZM921.6,167h-1v-6h1v6ZM921.6,159h-1v-6h1v6ZM921.6,151h-1v-6h1v6ZM921.6,143h-1v-6h1v6ZM921.6,135h-1v-6h1v6ZM921.6,127h-1v-6h1v6ZM921.6,119h-1v-6h1v6ZM921.6,111h-1v-6h1v6ZM921.6,103h-1v-6h1v6ZM921.6,95h-1v-6h1v6ZM921.6,87h-1v-6h1v6ZM921.6,79h-1v-6h1v6ZM921.6,71h-1v-6h1v6Z"/>
  <line class="cls-12" x1="909.6" y1="65" x2="932.6" y2="65"/>
  <line class="cls-12" x1="909.6" y1="566.4" x2="932.6" y2="566.4"/>
  <rect class="cls-9" x="909.6" y="217.6" width="23" height="98.1"/>
  <line class="cls-13" x1="909.6" y1="261.2" x2="932.6" y2="261.2"/>
  <g class="cls-3">
    <g class="cls-3">
      <g class="cls-3">
        <text class="cls-2" transform="translate(936.6 73)"><tspan x="0" y="0">6.8</tspan></text>
      </g>
    </g>
  </g>
  <g class="cls-3">
    <g class="cls-3">
      <g class="cls-3">
        <text class="cls-2" transform="translate(936.6 565.4)"><tspan x="0" y="0">4.5</tspan></text>
      </g>
    </g>
  </g>
  <g class="cls-3">
    <g class="cls-3">
      <g class="cls-3">
        <text class="cls-2" transform="translate(936.6 264.2)"><tspan x="0" y="0">5.9</tspan></text>
      </g>
    </g>
  </g>
  <g class="cls-3">
    <g class="cls-3">
      <g class="cls-3">
        <text class="cls-2" transform="translate(886.2 315.7)"><tspan x="0" y="0">5.65</tspan></text>
      </g>
    </g>
  </g>
  <g class="cls-3">
    <g class="cls-3">
      <g class="cls-3">
        <text class="cls-2" transform="translate(891.7 224.9)"><tspan x="0" y="0">6.1</tspan></text>
      </g>
    </g>
  </g>
  <line class="cls-16" x1="764.1" y1="675.4" x2="764.1" y2="681.4"/>
  <g class="cls-3">
    <g class="cls-3">
      <g class="cls-3">
        <text class="cls-2" transform="translate(693.5 691.5)"><tspan x="0" y="0">Diseñadora con mención I y S</tspan></text>
      </g>
    </g>
  </g>
  <path class="cls-8" d="M764.1,675.4h-1v-6h1v6ZM764.1,667.4h-1v-6h1v6ZM764.1,659.4h-1v-6h1v6ZM764.1,651.4h-1v-6h1v6ZM764.1,643.4h-1v-6h1v6ZM764.1,635.4h-1v-6h1v6ZM764.1,627.4h-1v-6h1v6ZM764.1,619.4h-1v-6h1v6ZM764.1,611.4h-1v-6h1v6ZM764.1,603.4h-1v-6h1v6ZM764.1,595.4h-1v-6h1v6ZM764.1,587.4h-1v-6h1v6ZM764.1,579.4h-1v-6h1v6ZM764.1,571.4h-1v-6h1v6ZM764.1,563.4h-1v-6h1v6ZM764.1,555.4h-1v-6h1v6ZM764.1,547.4h-1v-6h1v6ZM764.1,539.4h-1v-6h1v6ZM764.1,531.4h-1v-6h1v6ZM764.1,523.4h-1v-6h1v6ZM764.1,515.4h-1v-6h1v6ZM764.1,507.4h-1v-6h1v6ZM764.1,499.4h-1v-6h1v6ZM764.1,491.4h-1v-6h1v6ZM764.1,483.4h-1v-6h1v6ZM764.1,475.4h-1v-6h1v6ZM764.1,467.4h-1v-6h1v6ZM764.1,459.4h-1v-6h1v6ZM764.1,451.4h-1v-6h1v6ZM764.1,443.4h-1v-6h1v6ZM764.1,435.4h-1v-6h1v6ZM764.1,427.4h-1v-6h1v6ZM764.1,419.4h-1v-6h1v6ZM764.1,411.4h-1v-6h1v6ZM764.1,403.4h-1v-6h1v6ZM764.1,395.4h-1v-6h1v6ZM764.1,387.4h-1v-6h1v6ZM764.1,379.4h-1v-6h1v6ZM764.1,371.4h-1v-6h1v6ZM764.1,363.4h-1v-6h1v6ZM764.1,355.4h-1v-6h1v6ZM764.1,347.4h-1v-6h1v6ZM764.1,339.4h-1v-6h1v6ZM764.1,331.4h-1v-6h1v6ZM764.1,323.4h-1v-6h1v6ZM764.1,315.4h-1v-6h1v6ZM764.1,307.4h-1v-6h1v6ZM764.1,299.4h-1v-6h1v6ZM764.1,291.4h-1v-6h1v6ZM764.1,283.4h-1v-6h1v6ZM764.1,275.4h-1v-6h1v6ZM764.1,267.4h-1v-6h1v6ZM764.1,259.4h-1v-6h1v6ZM764.1,251.4h-1v-6h1v6ZM764.1,243.4h-1v-6h1v6ZM764.1,235.4h-1v-6h1v6ZM764.1,227.4h-1v-6h1v6ZM764.1,219.4h-1v-6h1v6ZM764.1,211.4h-1v-6h1v6ZM764.1,203.4h-1v-6h1v6ZM764.1,195.4h-1v-6h1v6ZM764.1,187.4h-1v-6h1v6ZM764.1,179.4h-1v-6h1v6ZM764.1,171.4h-1v-6h1v6ZM764.1,163.4h-1v-6h1v6ZM764.1,155.4h-1v-6h1v6ZM764.1,147.4h-1v-6h1v6ZM764.1,139.4h-1v-6h1v6ZM764.1,131.4h-1v-6h1v6ZM764.1,123.4h-1v-6h1v6ZM764.1,115.4h-1v-6h1v6ZM764.1,107.4h-1v-6h1v6ZM764.1,99.4h-1v-6h1v6ZM764.1,91.4h-1v-6h1v6ZM764.1,83.4h-1v-6h1v6ZM764.1,75.4h-1v-6h1v6ZM764.1,67.4h-1v-6h1v6ZM764.1,59.4h-1v-6h1v6ZM764.1,51.4h-1v-6h1v6ZM764.1,43.4h-1v-6h1v6ZM764.1,35.4h-1v-6h1v6ZM764.1,27.4h-1v-6h1v6Z"/>
  <line class="cls-17" x1="752.1" y1="21.4" x2="775.1" y2="21.4"/>
  <line class="cls-17" x1="752.1" y1="675.4" x2="775.1" y2="675.4"/>
  <rect class="cls-8" x="752.1" y="97.7" width="23" height="250.7"/>
  <line class="cls-13" x1="752.1" y1="239.4" x2="775.1" y2="239.4"/>
  <g class="cls-3">
    <g class="cls-3">
      <g class="cls-3">
        <text class="cls-2" transform="translate(779.1 29.4)"><tspan x="0" y="0">7</tspan></text>
      </g>
    </g>
  </g>
  <g class="cls-3">
    <g class="cls-3">
      <g class="cls-3">
        <text class="cls-2" transform="translate(779.1 673.4)"><tspan x="0" y="0">4</tspan></text>
      </g>
    </g>
  </g>
  <g class="cls-3">
    <g class="cls-3">
      <g class="cls-3">
        <text class="cls-2" transform="translate(779.1 242.4)"><tspan x="0" y="0">6</tspan></text>
      </g>
    </g>
  </g>
  <g class="cls-3">
    <g class="cls-3">
      <g class="cls-3">
        <text class="cls-2" transform="translate(734.2 348.4)"><tspan x="0" y="0">5.5</tspan></text>
      </g>
    </g>
  </g>
  <g class="cls-3">
    <g class="cls-3">
      <g class="cls-3">
        <text class="cls-2" transform="translate(728.6 104.9)"><tspan x="0" y="0">6.65</tspan></text>
      </g>
    </g>
  </g>
  <line class="cls-16" x1="284.6" y1="675.4" x2="284.6" y2="681.4"/>
  <g class="cls-3">
    <g class="cls-3">
      <g class="cls-3">
        <text class="cls-2" transform="translate(204.1 691.5)"><tspan x="0" y="0">Diseñador con mención en V y M</tspan></text>
      </g>
    </g>
  </g>
  <path class="cls-5" d="M284.6,675.4h-1v-1h1v1ZM284.6,672.4h-1v-6h1v6ZM284.6,664.4h-1v-6h1v6ZM284.6,656.4h-1v-6h1v6ZM284.6,648.4h-1v-6h1v6ZM284.6,640.4h-1v-6h1v6ZM284.6,632.4h-1v-6h1v6ZM284.6,624.4h-1v-6h1v6ZM284.6,616.4h-1v-6h1v6ZM284.6,608.4h-1v-6h1v6ZM284.6,600.4h-1v-6h1v6ZM284.6,592.4h-1v-6h1v6ZM284.6,584.4h-1v-6h1v6ZM284.6,576.4h-1v-6h1v6ZM284.6,568.4h-1v-6h1v6ZM284.6,560.4h-1v-6h1v6ZM284.6,552.4h-1v-6h1v6ZM284.6,544.4h-1v-6h1v6ZM284.6,536.4h-1v-6h1v6ZM284.6,528.4h-1v-6h1v6ZM284.6,520.4h-1v-6h1v6ZM284.6,512.4h-1v-6h1v6ZM284.6,504.4h-1v-6h1v6ZM284.6,496.4h-1v-6h1v6ZM284.6,488.4h-1v-6h1v6ZM284.6,480.4h-1v-6h1v6ZM284.6,472.4h-1v-6h1v6ZM284.6,464.4h-1v-6h1v6ZM284.6,456.4h-1v-6h1v6ZM284.6,448.4h-1v-6h1v6ZM284.6,440.4h-1v-6h1v6ZM284.6,432.4h-1v-6h1v6ZM284.6,424.4h-1v-6h1v6ZM284.6,416.4h-1v-6h1v6ZM284.6,408.4h-1v-6h1v6ZM284.6,400.4h-1v-6h1v6ZM284.6,392.4h-1v-6h1v6ZM284.6,384.4h-1v-6h1v6ZM284.6,376.4h-1v-6h1v6ZM284.6,368.4h-1v-6h1v6ZM284.6,360.4h-1v-6h1v6ZM284.6,352.4h-1v-6h1v6ZM284.6,344.4h-1v-6h1v6ZM284.6,336.4h-1v-6h1v6ZM284.6,328.4h-1v-6h1v6ZM284.6,320.4h-1v-6h1v6ZM284.6,312.4h-1v-6h1v6ZM284.6,304.4h-1v-6h1v6ZM284.6,296.4h-1v-6h1v6ZM284.6,288.4h-1v-6h1v6ZM284.6,280.4h-1v-6h1v6ZM284.6,272.4h-1v-6h1v6ZM284.6,264.4h-1v-6h1v6ZM284.6,256.4h-1v-6h1v6ZM284.6,248.4h-1v-6h1v6ZM284.6,240.4h-1v-6h1v6ZM284.6,232.4h-1v-6h1v6ZM284.6,224.4h-1v-6h1v6ZM284.6,216.4h-1v-6h1v6ZM284.6,208.4h-1v-6h1v6ZM284.6,200.4h-1v-6h1v6ZM284.6,192.4h-1v-6h1v6ZM284.6,184.4h-1v-6h1v6ZM284.6,176.4h-1v-6h1v6ZM284.6,168.4h-1v-6h1v6ZM284.6,160.4h-1v-6h1v6ZM284.6,152.4h-1v-6h1v6ZM284.6,144.4h-1v-6h1v6ZM284.6,136.4h-1v-6h1v6Z"/>
  <line class="cls-18" x1="272.6" y1="130.4" x2="295.6" y2="130.4"/>
  <line class="cls-15" x1="272.6" y1="675.4" x2="295.6" y2="675.4"/>
  <rect class="cls-5" x="272.6" y="239.4" width="23" height="109"/>
  <line class="cls-13" x1="272.6" y1="283" x2="295.6" y2="283"/>
  <g class="cls-3">
    <g class="cls-3">
      <g class="cls-3">
        <text class="cls-2" transform="translate(299.6 138.4)"><tspan x="0" y="0">6.5</tspan></text>
      </g>
    </g>
  </g>
  <g class="cls-3">
    <g class="cls-3">
      <g class="cls-3">
        <text class="cls-2" transform="translate(299.6 673.4)"><tspan x="0" y="0">4</tspan></text>
      </g>
    </g>
  </g>
  <g class="cls-3">
    <g class="cls-3">
      <g class="cls-3">
        <text class="cls-2" transform="translate(299.6 286)"><tspan x="0" y="0">5.8</tspan></text>
      </g>
    </g>
  </g>
  <g class="cls-3">
    <g class="cls-3">
      <g class="cls-3">
        <text class="cls-2" transform="translate(254.7 348.4)"><tspan x="0" y="0">5.5</tspan></text>
      </g>
    </g>
  </g>
  <g class="cls-3">
    <g class="cls-3">
      <g class="cls-3">
        <text class="cls-2" transform="translate(263 246.5)"><tspan x="0" y="0">6</tspan></text>
      </g>
    </g>
  </g>
  <g>
    <line class="cls-16" x1="602.6" y1="675.4" x2="602.6" y2="681.4"/>
    <g class="cls-3">
      <g class="cls-3">
        <g class="cls-3">
          <text class="cls-2" transform="translate(579.9 691.5)"><tspan x="0" y="0">Diseñador</tspan></text>
        </g>
      </g>
    </g>
  </g>
  <path class="cls-4" d="M602.6,522.8h-1v-5.4h1v5.4ZM602.6,515.4h-1v-6h1v6ZM602.6,507.4h-1v-6h1v6ZM602.6,499.4h-1v-6h1v6ZM602.6,491.4h-1v-6h1v6ZM602.6,483.4h-1v-6h1v6ZM602.6,475.4h-1v-6h1v6ZM602.6,467.4h-1v-6h1v6ZM602.6,459.4h-1v-6h1v6ZM602.6,451.4h-1v-6h1v6ZM602.6,443.4h-1v-6h1v6ZM602.6,435.4h-1v-6h1v6ZM602.6,427.4h-1v-6h1v6ZM602.6,419.4h-1v-6h1v6ZM602.6,411.4h-1v-6h1v6ZM602.6,403.4h-1v-6h1v6ZM602.6,395.4h-1v-6h1v6ZM602.6,387.4h-1v-6h1v6ZM602.6,379.4h-1v-6h1v6ZM602.6,371.4h-1v-6h1v6ZM602.6,363.4h-1v-6h1v6ZM602.6,355.4h-1v-6h1v6ZM602.6,347.4h-1v-6h1v6ZM602.6,339.4h-1v-6h1v6ZM602.6,331.4h-1v-6h1v6ZM602.6,323.4h-1v-6h1v6ZM602.6,315.4h-1v-6h1v6ZM602.6,307.4h-1v-6h1v6ZM602.6,299.4h-1v-6h1v6ZM602.6,291.4h-1v-6h1v6ZM602.6,283.4h-1v-6h1v6ZM602.6,275.4h-1v-6h1v6ZM602.6,267.4h-1v-6h1v6ZM602.6,259.4h-1v-6h1v6ZM602.6,251.4h-1v-6h1v6ZM602.6,243.4h-1v-6h1v6ZM602.6,235.4h-1v-6h1v6ZM602.6,227.4h-1v-6h1v6ZM602.6,219.4h-1v-6h1v6ZM602.6,211.4h-1v-6h1v6ZM602.6,203.4h-1v-6h1v6ZM602.6,195.4h-1v-6h1v6ZM602.6,187.4h-1v-6h1v6ZM602.6,179.4h-1v-6h1v6ZM602.6,171.4h-1v-6h1v6ZM602.6,163.4h-1v-6h1v6ZM602.6,155.4h-1v-6h1v6ZM602.6,147.4h-1v-6h1v6ZM602.6,139.4h-1v-6h1v6ZM602.6,131.4h-1v-6h1v6ZM602.6,123.4h-1v-6h1v6ZM602.6,115.4h-1v-6h1v6ZM602.6,107.4h-1v-6h1v6ZM602.6,99.4h-1v-6h1v6ZM602.6,91.4h-1v-6h1v6ZM602.6,83.4h-1v-6h1v6ZM602.6,75.4h-1v-6h1v6ZM602.6,67.4h-1v-6h1v6ZM602.6,59.4h-1v-6h1v6ZM602.6,51.4h-1v-6h1v6ZM602.6,43.4h-1v-6h1v6ZM602.6,35.4h-1v-6h1v6ZM602.6,27.4h-1v-6h1v6Z"/>
  <line class="cls-14" x1="590.6" y1="21.4" x2="613.6" y2="21.4"/>
  <line class="cls-14" x1="590.6" y1="522.8" x2="613.6" y2="522.8"/>
  <rect class="cls-4" x="590.6" y="195.8" width="23" height="152.6"/>
  <line class="cls-13" x1="590.6" y1="239.4" x2="613.6" y2="239.4"/>
  <g class="cls-3">
    <g class="cls-3">
      <g class="cls-3">
        <text class="cls-2" transform="translate(617.6 29.4)"><tspan x="0" y="0">7</tspan></text>
      </g>
    </g>
  </g>
  <g class="cls-3">
    <g class="cls-3">
      <g class="cls-3">
        <text class="cls-2" transform="translate(617.6 520.8)"><tspan x="0" y="0">4.7</tspan></text>
      </g>
    </g>
  </g>
  <g class="cls-3">
    <g class="cls-3">
      <g class="cls-3">
        <text class="cls-2" transform="translate(617.6 242.4)"><tspan x="0" y="0">6</tspan></text>
      </g>
    </g>
  </g>
  <g class="cls-3">
    <g class="cls-3">
      <g class="cls-3">
        <text class="cls-2" transform="translate(572.7 348.4)"><tspan x="0" y="0">5.5</tspan></text>
      </g>
    </g>
  </g>
  <g class="cls-3">
    <g class="cls-3">
      <g class="cls-3">
        <text class="cls-2" transform="translate(572.7 203)"><tspan x="0" y="0">6.2</tspan></text>
      </g>
    </g>
  </g>
  <path class="cls-16" d="M38.2,681.4v-5.5h1440v5.5"/>
</svg>