<?xml version="1.0" encoding="utf-8"?>
<!-- Generator: Adobe Illustrator 28.1.0, SVG Export Plug-In . SVG Version: 6.00 Build 0)  -->
<svg version="1.1" id="Layer_1" xmlns="http://www.w3.org/2000/svg" xmlns:xlink="http://www.w3.org/1999/xlink" x="0px" y="0px"
	 viewBox="0 0 1500 705.4" style="enable-background:new 0 0 1500 705.4;" xml:space="preserve">
<style type="text/css">
	.st0{fill:none;stroke:#000000;}
	.st1{font-family:'ArialMT';}
	.st2{font-size:10px;}
	.st3{fill:#7B7B7B;}
	.st4{font-family:'Arial-BoldMT';}
	.st5{font-size:12px;}
	.st6{fill:none;stroke:#CA02D0;}
	.st7{fill:none;stroke:#CA02D0;stroke-dasharray:4;}
	.st8{fill:#CA02D0;}
	.st9{fill:none;stroke:#FFFFFF;}
	.st10{fill:none;stroke:#C973DA;stroke-dasharray:4;}
	.st11{fill:none;stroke:#C973DA;}
	.st12{fill:#C973DA;}
	.st13{fill:none;stroke:#EDA4EF;stroke-dasharray:4;}
	.st14{fill:none;stroke:#EDA4EF;}
	.st15{fill:#EDA4EF;}
	.st16{fill:none;stroke:#9C31BE;stroke-dasharray:4;}
	.st17{fill:none;stroke:#9C31BE;}
	.st18{fill:#9C31BE;}
	.st19{fill:none;stroke:#A46AD7;stroke-dasharray:4;}
	.st20{fill:none;stroke:#A46AD7;}
	.st21{fill:#A46AD7;}
	.st22{fill:none;stroke:#5E2C8B;stroke-dasharray:4;}
	.st23{fill:none;stroke:#5E2C8B;}
	.st24{fill:#5E2C8B;}
</style>
<g id="y_axis_00000168091860756987160430000014969001071259547277_">
	<path class="st0" d="M44,675.9h6.5v-654H44"/>
	<g transform="translate(0,654.5)">
		<line class="st0" x1="50" y1="21.4" x2="44" y2="21.4"/>
		<text transform="matrix(1 0 0 1 27.0986 24.6109)" class="st1 st2">4.0</text>
	</g>
	<g transform="translate(0,610.9)">
		<line class="st0" x1="50" y1="21.4" x2="44" y2="21.4"/>
		<text transform="matrix(1 0 0 1 27.0986 24.6109)" class="st1 st2">4.2</text>
	</g>
	<g transform="translate(0,567.3)">
		<line class="st0" x1="50" y1="21.4" x2="44" y2="21.4"/>
		<text transform="matrix(1 0 0 1 27.0986 24.6109)" class="st1 st2">4.4</text>
	</g>
	<g transform="translate(0,523.7)">
		<line class="st0" x1="50" y1="21.4" x2="44" y2="21.4"/>
		<text transform="matrix(1 0 0 1 27.0986 24.6109)" class="st1 st2">4.6</text>
	</g>
	<g transform="translate(0,480.1)">
		<line class="st0" x1="50" y1="21.4" x2="44" y2="21.4"/>
		<text transform="matrix(1 0 0 1 27.0986 24.6109)" class="st1 st2">4.8</text>
	</g>
	<g transform="translate(0,436.50000000000006)">
		<line class="st0" x1="50" y1="21.4" x2="44" y2="21.4"/>
		<text transform="matrix(1 0 0 1 27.0986 24.6109)" class="st1 st2">5.0</text>
	</g>
	<g transform="translate(0,392.8999999999999)">
		<line class="st0" x1="50" y1="21.4" x2="44" y2="21.4"/>
		<text transform="matrix(1 0 0 1 27.0986 24.6109)" class="st1 st2">5.2</text>
	</g>
	<g transform="translate(0,349.2999999999999)">
		<line class="st0" x1="50" y1="21.4" x2="44" y2="21.4"/>
		<text transform="matrix(1 0 0 1 27.0986 24.6109)" class="st1 st2">5.4</text>
	</g>
	<g transform="translate(0,305.7000000000001)">
		<line class="st0" x1="50" y1="21.4" x2="44" y2="21.4"/>
		<text transform="matrix(1 0 0 1 27.0986 24.6109)" class="st1 st2">5.6</text>
	</g>
	<g transform="translate(0,262.1)">
		<line class="st0" x1="50" y1="21.4" x2="44" y2="21.4"/>
		<text transform="matrix(1 0 0 1 27.0986 24.6109)" class="st1 st2">5.8</text>
	</g>
	<g transform="translate(0,218.50000000000003)">
		<line class="st0" x1="50" y1="21.4" x2="44" y2="21.4"/>
		<text transform="matrix(1 0 0 1 27.0986 24.6109)" class="st1 st2">6.0</text>
	</g>
	<g transform="translate(0,174.89999999999995)">
		<line class="st0" x1="50" y1="21.4" x2="44" y2="21.4"/>
		<text transform="matrix(1 0 0 1 27.0986 24.6109)" class="st1 st2">6.2</text>
	</g>
	<g transform="translate(0,131.2999999999999)">
		<line class="st0" x1="50" y1="21.4" x2="44" y2="21.4"/>
		<text transform="matrix(1 0 0 1 27.0986 24.6109)" class="st1 st2">6.4</text>
	</g>
	<g transform="translate(0,87.70000000000006)">
		<line class="st0" x1="50" y1="21.4" x2="44" y2="21.4"/>
		<text transform="matrix(1 0 0 1 27.0986 24.6109)" class="st1 st2">6.6</text>
	</g>
	<g transform="translate(0,44.100000000000065)">
		<line class="st0" x1="50" y1="21.4" x2="44" y2="21.4"/>
		<text transform="matrix(1 0 0 1 27.0986 24.6109)" class="st1 st2">6.8</text>
	</g>
	<g transform="translate(0,0.5)">
		<line class="st0" x1="50" y1="21.4" x2="44" y2="21.4"/>
		<text transform="matrix(1 0 0 1 27.0986 24.6108)" class="st1 st2">7.0</text>
	</g>
	<text transform="matrix(1 0 0 1 54 22.7058)" class="st3 st4 st5">nota proyecto</text>
</g>
<path class="st0" d="M50.5,681.4v-5.5h1440v5.5"/>
<line class="st0" x1="650.5" y1="675.4" x2="650.5" y2="681.4"/>
<g>
	<text transform="matrix(1 0 0 1 78.2207 691.5109)" class="st1 st2">Diseñadora con mención V y M</text>
	<g>
		<line class="st0" x1="154.8" y1="675.4" x2="154.8" y2="681.4"/>
		<g>
			<line class="st6" x1="142.8" y1="675.4" x2="165.8" y2="675.4"/>
			<g>
				<line class="st7" x1="154.3" y1="21.4" x2="154.3" y2="675.4"/>
				<rect x="142.8" y="130.4" class="st8" width="23" height="207.1"/>
				<line class="st9" x1="142.8" y1="239.4" x2="165.8" y2="239.4"/>
				<text transform="matrix(1 0 0 1 169.752 243.0347)" class="st1 st2">6</text>
				<g>
					<line class="st6" x1="142.8" y1="21.4" x2="165.8" y2="21.4"/>
					<text transform="matrix(1 0 0 1 169.752 29.7054)" class="st1 st2">7</text>
					<text transform="matrix(1 0 0 1 169.7518 673.4106)" class="st1 st2">4</text>
					<text transform="matrix(1 0 0 1 120.083 337.5109)" class="st1 st2">5.55</text>
					<text transform="matrix(1 0 0 1 125.6442 137.5728)" class="st1 st2">6.5</text>
				</g>
			</g>
		</g>
	</g>
</g>
<g>
	<g transform="translate(360.5,0)">
		<line class="st0" x1="50" y1="675.4" x2="50" y2="681.4"/>
		<text transform="matrix(1 0 0 1 24.4287 691.5109)" class="st1 st2">Diseñadora</text>
	</g>
	<line class="st10" x1="410" y1="21.4" x2="410" y2="566.4"/>
	<line class="st11" x1="398.5" y1="21.4" x2="421.5" y2="21.4"/>
	<line class="st11" x1="398.5" y1="566.4" x2="421.5" y2="566.4"/>
	<rect x="398.5" y="97.7" class="st12" width="23" height="218"/>
	<line class="st9" x1="398.5" y1="239.4" x2="421.5" y2="239.4"/>
	<text transform="matrix(1 0 0 1 425.5 28.4109)" class="st1 st2">7</text>
	<text transform="matrix(1 0 0 1 425.5 564.4109)" class="st1 st2">4.5</text>
	<text transform="matrix(1 0 0 1 425.5 243.2103)" class="st1 st2">6</text>
	<text transform="matrix(1 0 0 1 376.1758 315.7109)" class="st1 st2">5.65</text>
	<text transform="matrix(1 0 0 1 376.1753 104.9739)" class="st1 st2">6.65</text>
</g>
<g>
	<text transform="matrix(1 0 0 1 584.2605 691.6207)" class="st1 st2">Diseñador con mención I y S</text>
	<line class="st13" x1="650" y1="65" x2="650" y2="566.4"/>
	<line class="st14" x1="638.5" y1="65" x2="661.5" y2="65"/>
	<line class="st14" x1="638.5" y1="566.4" x2="661.5" y2="566.4"/>
	<rect x="638.5" y="217.6" class="st15" width="23" height="98.1"/>
	<line class="st9" x1="638.5" y1="261.2" x2="661.5" y2="261.2"/>
	<text transform="matrix(1 0 0 1 665.5 73.0109)" class="st1 st2">6.8</text>
	<text transform="matrix(1 0 0 1 665.5 565.4109)" class="st1 st2">4.5</text>
	<text transform="matrix(1 0 0 1 665.5 264.2109)" class="st1 st2">5.9</text>
	<text transform="matrix(1 0 0 1 615.0371 315.7109)" class="st1 st2">5.65</text>
	<text transform="matrix(1 0 0 1 620.5986 224.8599)" class="st1 st2">6.1</text>
</g>
<g>
	<line class="st0" x1="890.5" y1="675.4" x2="890.5" y2="681.4"/>
	<text transform="matrix(1 0 0 1 819.8784 691.5109)" class="st1 st2">Diseñadora con mención I y S</text>
	<line class="st16" x1="890" y1="21.4" x2="890" y2="675.4"/>
	<line class="st17" x1="878.5" y1="21.4" x2="901.5" y2="21.4"/>
	<line class="st17" x1="878.5" y1="675.4" x2="901.5" y2="675.4"/>
	<rect x="878.5" y="97.7" class="st18" width="23" height="250.7"/>
	<line class="st9" x1="878.5" y1="239.4" x2="901.5" y2="239.4"/>
	<text transform="matrix(1 0 0 1 905.5 29.4109)" class="st1 st2">7</text>
	<text transform="matrix(1 0 0 1 905.5 673.4109)" class="st1 st2">4</text>
	<text transform="matrix(1 0 0 1 905.5 242.4109)" class="st1 st2">6</text>
	<text transform="matrix(1 0 0 1 860.5986 348.4109)" class="st1 st2">5.5</text>
	<text transform="matrix(1 0 0 1 855.0374 104.9438)" class="st1 st2">6.65</text>
</g>
<g>
	<line class="st0" x1="1130.5" y1="675.4" x2="1130.5" y2="681.4"/>
	<text transform="matrix(1 0 0 1 1050.0249 691.5109)" class="st1 st2">Diseñador con mención en V y M</text>
	<line class="st19" x1="1130" y1="130.4" x2="1130" y2="675.4"/>
	<line class="st20" x1="1118.5" y1="130.4" x2="1141.5" y2="130.4"/>
	<line class="st20" x1="1118.5" y1="675.4" x2="1141.5" y2="675.4"/>
	<rect x="1118.5" y="239.4" class="st21" width="23" height="109"/>
	<line class="st9" x1="1118.5" y1="283" x2="1141.5" y2="283"/>
	<text transform="matrix(1 0 0 1 1145.5 138.4109)" class="st1 st2">6.5</text>
	<text transform="matrix(1 0 0 1 1145.5 673.4109)" class="st1 st2">4</text>
	<text transform="matrix(1 0 0 1 1145.5 286.0109)" class="st1 st2">5.8</text>
	<text transform="matrix(1 0 0 1 1100.5986 348.4109)" class="st1 st2">5.5</text>
	<text transform="matrix(1 0 0 1 1108.9382 246.5355)" class="st1 st2">6</text>
</g>
<g>
	<g transform="translate(1320.5,0)">
		<line class="st0" x1="50" y1="675.4" x2="50" y2="681.4"/>
		<text transform="matrix(1 0 0 1 27.2095 691.5109)" class="st1 st2">Diseñador</text>
	</g>
	<line class="st22" x1="1370" y1="21.4" x2="1370" y2="522.8"/>
	<line class="st23" x1="1358.5" y1="21.4" x2="1381.5" y2="21.4"/>
	<line class="st23" x1="1358.5" y1="522.8" x2="1381.5" y2="522.8"/>
	<rect x="1358.5" y="195.8" class="st24" width="23" height="152.6"/>
	<line class="st9" x1="1358.5" y1="239.4" x2="1381.5" y2="239.4"/>
	<text transform="matrix(1 0 0 1 1385.5 29.4109)" class="st1 st2">7</text>
	<text transform="matrix(1 0 0 1 1385.5 520.8109)" class="st1 st2">4.7</text>
	<text transform="matrix(1 0 0 1 1385.5 242.4109)" class="st1 st2">6</text>
	<text transform="matrix(1 0 0 1 1340.5986 348.4109)" class="st1 st2">5.5</text>
	<text transform="matrix(1 0 0 1 1340.5991 203.0196)" class="st1 st2">6.2</text>
</g>
</svg>
