<?xml version="1.0" encoding="UTF-8"?>
<svg id="Layer_1" data-name="Layer 1" xmlns="http://www.w3.org/2000/svg" version="1.1" viewBox="0 0 999.5 705.4">
  <defs>
    <style>
      .cls-1 {
        fill: #9c31be;
      }

      .cls-1, .cls-2, .cls-3, .cls-4, .cls-5, .cls-6, .cls-7 {
        stroke-width: 0px;
      }

      .cls-8, .cls-9, .cls-10, .cls-11, .cls-12, .cls-13, .cls-14, .cls-15, .cls-16, .cls-17, .cls-18, .cls-19, .cls-20, .cls-21 {
        fill: none;
      }

      .cls-8, .cls-9, .cls-13, .cls-14, .cls-15, .cls-16 {
        stroke-dasharray: 0 4;
      }

      .cls-8, .cls-12 {
        stroke: #5e2c8b;
      }

      .cls-22 {
        fill: #606060;
        font-family: Arial-BoldMT, Arial;
        font-size: 13px;
        font-weight: 700;
      }

      .cls-22, .cls-23 {
        isolation: isolate;
      }

      .cls-23 {
        fill: #000;
        font-family: ArialMT, Arial;
        font-size: 10px;
      }

      .cls-9, .cls-19 {
        stroke: #c973da;
      }

      .cls-10, .cls-13 {
        stroke: #eda4ef;
      }

      .cls-11 {
        stroke: #fff;
      }

      .cls-2 {
        fill: #ca02d0;
      }

      .cls-3 {
        fill: #a46ad7;
      }

      .cls-4 {
        fill: #c973da;
      }

      .cls-14, .cls-21 {
        stroke: #ca02d0;
      }

      .cls-15, .cls-18 {
        stroke: #a46ad7;
      }

      .cls-5 {
        fill: #eda4ef;
      }

      .cls-16, .cls-20 {
        stroke: #9c31be;
      }

      .cls-17 {
        stroke: #000;
      }

      .cls-6 {
        fill: #5e2c8b;
      }

      .cls-7 {
        fill: #f9f9f9;
      }
    </style>
  </defs>
  <rect class="cls-7" x="679.1" y="21.8" width="320.4" height="683.6"/>
  <rect class="cls-7" x="38.2" y="22.7" width="320.4" height="682.7"/>
  <path class="cls-17" d="M31.7,675.9h6.5V21.9h-6.5"/>
  <g>
    <line class="cls-17" x1="37.7" y1="675.9" x2="31.7" y2="675.9"/>
    <text class="cls-23" transform="translate(14.8 679.1)"><tspan x="0" y="0">4.0</tspan></text>
  </g>
  <g>
    <line class="cls-17" x1="37.7" y1="632.3" x2="31.7" y2="632.3"/>
    <text class="cls-23" transform="translate(14.8 635.5)"><tspan x="0" y="0">4.2</tspan></text>
  </g>
  <g>
    <line class="cls-17" x1="37.7" y1="588.7" x2="31.7" y2="588.7"/>
    <text class="cls-23" transform="translate(14.8 591.9)"><tspan x="0" y="0">4.4</tspan></text>
  </g>
  <g>
    <line class="cls-17" x1="37.7" y1="545.1" x2="31.7" y2="545.1"/>
    <text class="cls-23" transform="translate(14.8 548.3)"><tspan x="0" y="0">4.6</tspan></text>
  </g>
  <g>
    <line class="cls-17" x1="37.7" y1="501.5" x2="31.7" y2="501.5"/>
    <text class="cls-23" transform="translate(14.8 504.7)"><tspan x="0" y="0">4.8</tspan></text>
  </g>
  <g>
    <line class="cls-17" x1="37.7" y1="457.9" x2="31.7" y2="457.9"/>
    <text class="cls-23" transform="translate(14.8 461.1)"><tspan x="0" y="0">5.0</tspan></text>
  </g>
  <g>
    <line class="cls-17" x1="37.7" y1="414.3" x2="31.7" y2="414.3"/>
    <text class="cls-23" transform="translate(14.8 417.5)"><tspan x="0" y="0">5.2</tspan></text>
  </g>
  <g>
    <line class="cls-17" x1="37.7" y1="370.7" x2="31.7" y2="370.7"/>
    <text class="cls-23" transform="translate(14.8 373.9)"><tspan x="0" y="0">5.4</tspan></text>
  </g>
  <g>
    <line class="cls-17" x1="37.7" y1="327.1" x2="31.7" y2="327.1"/>
    <text class="cls-23" transform="translate(14.8 330.3)"><tspan x="0" y="0">5.6</tspan></text>
  </g>
  <g>
    <line class="cls-17" x1="37.7" y1="283.5" x2="31.7" y2="283.5"/>
    <text class="cls-23" transform="translate(14.8 286.7)"><tspan x="0" y="0">5.8</tspan></text>
  </g>
  <g>
    <line class="cls-17" x1="37.7" y1="239.9" x2="31.7" y2="239.9"/>
    <text class="cls-23" transform="translate(14.8 243.1)"><tspan x="0" y="0">6.0</tspan></text>
  </g>
  <g>
    <line class="cls-17" x1="37.7" y1="196.3" x2="31.7" y2="196.3"/>
    <text class="cls-23" transform="translate(14.8 199.5)"><tspan x="0" y="0">6.2</tspan></text>
  </g>
  <g>
    <line class="cls-17" x1="37.7" y1="152.7" x2="31.7" y2="152.7"/>
    <text class="cls-23" transform="translate(14.8 155.9)"><tspan x="0" y="0">6.4</tspan></text>
  </g>
  <g>
    <line class="cls-17" x1="37.7" y1="109.1" x2="31.7" y2="109.1"/>
    <text class="cls-23" transform="translate(14.8 112.3)"><tspan x="0" y="0">6.6</tspan></text>
  </g>
  <g>
    <line class="cls-17" x1="37.7" y1="65.5" x2="31.7" y2="65.5"/>
    <text class="cls-23" transform="translate(14.8 68.7)"><tspan x="0" y="0">6.8</tspan></text>
  </g>
  <g>
    <line class="cls-17" x1="37.7" y1="21.9" x2="31.7" y2="21.9"/>
    <text class="cls-23" transform="translate(14.8 25.1)"><tspan x="0" y="0">7.0</tspan></text>
  </g>
  <text class="cls-22" transform="translate(31.7 15.6)"><tspan x="0" y="0">Nota Proyecto</tspan></text>
  <path class="cls-17" d="M38.2,681.4v-5.5h1440v5.5"/>
  <line class="cls-17" x1="921.1" y1="675.4" x2="921.1" y2="681.4"/>
  <g>
    <text class="cls-23" transform="translate(45.4 691.5)"><tspan x="0" y="0">Diseñadora con mención V y M</tspan></text>
    <g>
      <line class="cls-17" x1="122" y1="675.4" x2="122" y2="681.4"/>
      <g>
        <line class="cls-21" x1="110" y1="675.4" x2="133" y2="675.4"/>
        <g>
          <line class="cls-14" x1="121.5" y1="21.4" x2="121.5" y2="675.4"/>
          <rect class="cls-2" x="110" y="130.4" width="23" height="207.1"/>
          <line class="cls-11" x1="110" y1="239.4" x2="133" y2="239.4"/>
          <text class="cls-23" transform="translate(136.9 243)"><tspan x="0" y="0">6</tspan></text>
          <g>
            <line class="cls-21" x1="110" y1="21.4" x2="133" y2="21.4"/>
            <text class="cls-23" transform="translate(136.9 29.7)"><tspan x="0" y="0">7</tspan></text>
            <text class="cls-23" transform="translate(136.9 673.4)"><tspan x="0" y="0">4</tspan></text>
            <text class="cls-23" transform="translate(87.3 337.5)"><tspan x="0" y="0">5.55</tspan></text>
            <text class="cls-23" transform="translate(92.8 137.6)"><tspan x="0" y="0">6.5</tspan></text>
          </g>
        </g>
      </g>
    </g>
  </g>
  <g>
    <g>
      <line class="cls-17" x1="436.4" y1="675.4" x2="436.4" y2="681.4"/>
      <text class="cls-23" transform="translate(410.8 691.5)"><tspan x="0" y="0">Diseñadora</tspan></text>
    </g>
    <line class="cls-9" x1="435.9" y1="21.4" x2="435.9" y2="566.4"/>
    <line class="cls-19" x1="424.4" y1="21.4" x2="447.4" y2="21.4"/>
    <line class="cls-19" x1="424.4" y1="566.4" x2="447.4" y2="566.4"/>
    <rect class="cls-4" x="424.4" y="97.7" width="23" height="218"/>
    <line class="cls-11" x1="424.4" y1="239.4" x2="447.4" y2="239.4"/>
    <text class="cls-23" transform="translate(451.4 28.4)"><tspan x="0" y="0">7</tspan></text>
    <text class="cls-23" transform="translate(451.4 564.4)"><tspan x="0" y="0">4.5</tspan></text>
    <text class="cls-23" transform="translate(451.4 243.2)"><tspan x="0" y="0">6</tspan></text>
    <text class="cls-23" transform="translate(402.1 315.7)"><tspan x="0" y="0">5.65</tspan></text>
    <text class="cls-23" transform="translate(402.1 105)"><tspan x="0" y="0">6.65</tspan></text>
  </g>
  <g>
    <text class="cls-23" transform="translate(855.4 691.6)"><tspan x="0" y="0">Diseñador con mención I y S</tspan></text>
    <line class="cls-13" x1="921.1" y1="65" x2="921.1" y2="566.4"/>
    <line class="cls-10" x1="909.6" y1="65" x2="932.6" y2="65"/>
    <line class="cls-10" x1="909.6" y1="566.4" x2="932.6" y2="566.4"/>
    <rect class="cls-5" x="909.6" y="217.6" width="23" height="98.1"/>
    <line class="cls-11" x1="909.6" y1="261.2" x2="932.6" y2="261.2"/>
    <text class="cls-23" transform="translate(936.6 73)"><tspan x="0" y="0">6.8</tspan></text>
    <text class="cls-23" transform="translate(936.6 565.4)"><tspan x="0" y="0">4.5</tspan></text>
    <text class="cls-23" transform="translate(936.6 264.2)"><tspan x="0" y="0">5.9</tspan></text>
    <text class="cls-23" transform="translate(886.2 315.7)"><tspan x="0" y="0">5.65</tspan></text>
    <text class="cls-23" transform="translate(891.7 224.9)"><tspan x="0" y="0">6.1</tspan></text>
  </g>
  <g>
    <line class="cls-17" x1="764.1" y1="675.4" x2="764.1" y2="681.4"/>
    <text class="cls-23" transform="translate(693.5 691.5)"><tspan x="0" y="0">Diseñadora con mención I y S</tspan></text>
    <line class="cls-16" x1="763.6" y1="21.4" x2="763.6" y2="675.4"/>
    <line class="cls-20" x1="752.1" y1="21.4" x2="775.1" y2="21.4"/>
    <line class="cls-20" x1="752.1" y1="675.4" x2="775.1" y2="675.4"/>
    <rect class="cls-1" x="752.1" y="97.7" width="23" height="250.7"/>
    <line class="cls-11" x1="752.1" y1="239.4" x2="775.1" y2="239.4"/>
    <text class="cls-23" transform="translate(779.1 29.4)"><tspan x="0" y="0">7</tspan></text>
    <text class="cls-23" transform="translate(779.1 673.4)"><tspan x="0" y="0">4</tspan></text>
    <text class="cls-23" transform="translate(779.1 242.4)"><tspan x="0" y="0">6</tspan></text>
    <text class="cls-23" transform="translate(734.2 348.4)"><tspan x="0" y="0">5.5</tspan></text>
    <text class="cls-23" transform="translate(728.6 104.9)"><tspan x="0" y="0">6.65</tspan></text>
  </g>
  <g>
    <line class="cls-17" x1="284.6" y1="675.4" x2="284.6" y2="681.4"/>
    <text class="cls-23" transform="translate(204.1 691.5)"><tspan x="0" y="0">Diseñador con mención en V y M</tspan></text>
    <line class="cls-15" x1="284.1" y1="130.4" x2="284.1" y2="675.4"/>
    <line class="cls-18" x1="272.6" y1="130.4" x2="295.6" y2="130.4"/>
    <line class="cls-18" x1="272.6" y1="675.4" x2="295.6" y2="675.4"/>
    <rect class="cls-3" x="272.6" y="239.4" width="23" height="109"/>
    <line class="cls-11" x1="272.6" y1="283" x2="295.6" y2="283"/>
    <text class="cls-23" transform="translate(299.6 138.4)"><tspan x="0" y="0">6.5</tspan></text>
    <text class="cls-23" transform="translate(299.6 673.4)"><tspan x="0" y="0">4</tspan></text>
    <text class="cls-23" transform="translate(299.6 286)"><tspan x="0" y="0">5.8</tspan></text>
    <text class="cls-23" transform="translate(254.7 348.4)"><tspan x="0" y="0">5.5</tspan></text>
    <text class="cls-23" transform="translate(263 246.5)"><tspan x="0" y="0">6</tspan></text>
  </g>
  <g>
    <g>
      <line class="cls-17" x1="602.6" y1="675.4" x2="602.6" y2="681.4"/>
      <text class="cls-23" transform="translate(579.9 691.5)"><tspan x="0" y="0">Diseñador</tspan></text>
    </g>
    <line class="cls-8" x1="602.1" y1="21.4" x2="602.1" y2="522.8"/>
    <line class="cls-12" x1="590.6" y1="21.4" x2="613.6" y2="21.4"/>
    <line class="cls-12" x1="590.6" y1="522.8" x2="613.6" y2="522.8"/>
    <rect class="cls-6" x="590.6" y="195.8" width="23" height="152.6"/>
    <line class="cls-11" x1="590.6" y1="239.4" x2="613.6" y2="239.4"/>
    <text class="cls-23" transform="translate(617.6 29.4)"><tspan x="0" y="0">7</tspan></text>
    <text class="cls-23" transform="translate(617.6 520.8)"><tspan x="0" y="0">4.7</tspan></text>
    <text class="cls-23" transform="translate(617.6 242.4)"><tspan x="0" y="0">6</tspan></text>
    <text class="cls-23" transform="translate(572.7 348.4)"><tspan x="0" y="0">5.5</tspan></text>
    <text class="cls-23" transform="translate(572.7 203)"><tspan x="0" y="0">6.2</tspan></text>
  </g>
</svg>