<?xml version="1.0" encoding="utf-8"?>
<!-- Generator: Adobe Illustrator 28.1.0, SVG Export Plug-In . SVG Version: 6.00 Build 0)  -->
<svg version="1.1" id="Layer_1" xmlns="http://www.w3.org/2000/svg" xmlns:xlink="http://www.w3.org/1999/xlink" x="0px" y="0px"
	 viewBox="0 0 1285.2 927.2" style="enable-background:new 0 0 1285.2 927.2;" xml:space="preserve">
<style type="text/css">
	.st0{fill:none;stroke:#5E4FA2;stroke-width:40.2899;}
	.st1{fill:none;stroke:#5E4FA2;stroke-width:36.9324;}
	.st2{fill:none;stroke:#4478B2;stroke-width:6.715;}
	.st3{fill:none;stroke:#4BA0B1;stroke-width:3.3575;}
	.st4{fill:none;stroke:#4F63AB;stroke-width:50.3623;}
	.st5{fill:none;stroke:#5E4FA2;stroke-width:16.7874;}
	.st6{fill:none;stroke:#5E4FA2;stroke-width:6.715;}
	.st7{fill:none;stroke:#4F63AB;stroke-width:13.43;}
	.st8{fill:none;stroke:#4F63AB;stroke-width:3.3575;}
	.st9{fill:none;stroke:#5E4FA2;stroke-width:10.0725;}
	.st10{fill:none;stroke:#5E4FA2;stroke-width:57.0773;}
	.st11{fill:none;stroke:#438CB4;stroke-width:20.1449;}
	.st12{fill:none;stroke:#4F63AB;stroke-width:33.5749;}
	.st13{fill:none;stroke:#4F63AB;stroke-width:6.715;}
	.st14{fill:none;stroke:#5CB3AC;stroke-width:3.3575;}
	.st15{fill:none;stroke:#4BA0B1;stroke-width:6.715;}
	.st16{fill:none;stroke:#5CB3AC;stroke-width:6.715;}
	.st17{fill:none;stroke:#4478B2;stroke-width:3.3575;}
	.st18{fill:none;stroke:#438CB4;stroke-width:13.43;}
	.st19{fill:none;stroke:#4478B2;stroke-width:10.0725;}
	.st20{fill:none;stroke:#438CB4;stroke-width:6.715;}
	.st21{fill:none;stroke:#4F63AB;stroke-width:10.0725;}
	.st22{fill:none;stroke:#438CB4;stroke-width:3.3575;}
	.st23{fill:none;stroke:#5E4FA2;stroke-width:13.43;}
	.st24{fill:none;stroke:#5E4FA2;stroke-width:23.5024;}
	.st25{fill:none;stroke:#4F63AB;stroke-width:23.5024;}
	.st26{fill:none;stroke:#5E4FA2;stroke-width:3.3575;}
	.st27{fill:none;stroke:#CCEA9F;stroke-width:3.3575;}
	.st28{fill:none;stroke:#72C3A7;stroke-width:3.3575;}
	.st29{fill:none;stroke:#FDF2A8;stroke-width:3.3575;}
	.st30{fill:none;stroke:#EC6449;stroke-width:3.3575;}
	.st31{fill:none;stroke:#72C3A7;stroke-width:6.715;}
	.st32{fill:none;stroke:#9E0142;stroke-width:10.0725;}
	.st33{fill:none;stroke:#CCEA9F;stroke-width:6.715;}
	.st34{fill:none;stroke:#B11746;stroke-width:6.715;}
	.st35{fill:none;stroke:#72C3A7;stroke-width:23.5024;}
	.st36{fill:none;stroke:#FDCA79;stroke-width:3.3575;}
	.st37{fill:none;stroke:#FBF8B0;stroke-width:13.43;}
	.st38{fill:none;stroke:#F3784C;stroke-width:3.3575;}
	.st39{fill:none;stroke:#FBF8B0;stroke-width:10.0725;}
	.st40{fill:none;stroke:#89CFA5;stroke-width:3.3575;}
	.st41{fill:none;stroke:#A0D9A3;stroke-width:3.3575;}
	.st42{fill:none;stroke:#DDF1A0;stroke-width:6.715;}
	.st43{fill:none;stroke:#FEE89A;stroke-width:3.3575;}
	.st44{fill:none;stroke:#72C3A7;stroke-width:16.7874;}
	.st45{fill:none;stroke:#FBF8B0;stroke-width:16.7874;}
	.st46{fill:none;stroke:#FEDA89;stroke-width:3.3575;}
	.st47{fill:none;stroke:#FBF8B0;stroke-width:6.715;}
	.st48{fill:none;stroke:#CCEA9F;stroke-width:13.43;}
	.st49{fill:none;stroke:#FBF8B0;stroke-width:3.3575;}
	.st50{fill:none;stroke:#D43F4B;stroke-width:3.3575;}
	.st51{fill:none;stroke:#FDB76B;stroke-width:6.715;}
	.st52{fill:none;stroke:#F88E53;stroke-width:3.3575;}
	.st53{fill:none;stroke:#FDB76B;stroke-width:3.3575;}
	.st54{fill:none;stroke:#F5FAAD;stroke-width:3.3575;}
	.st55{fill:none;stroke:#F88E53;stroke-width:6.715;}
	.st56{fill:none;stroke:#9E0142;stroke-width:3.3575;}
	.st57{fill:none;stroke:#C42C4A;stroke-width:3.3575;}
	.st58{fill:none;stroke:#FEE89A;stroke-width:13.43;}
	.st59{fill:none;stroke:#E1524A;stroke-width:3.3575;}
	.st60{fill:none;stroke:#B11746;stroke-width:3.3575;}
	.st61{fill:none;stroke:#CCEA9F;stroke-width:10.0725;}
	.st62{fill:none;stroke:#EBF7A6;stroke-width:6.715;}
	.st63{fill:none;stroke:#FDB76B;stroke-width:10.0725;}
	.st64{fill:none;stroke:#DDF1A0;stroke-width:3.3575;}
	.st65{fill:none;stroke:#EBF7A6;stroke-width:3.3575;}
	.st66{fill:none;stroke:#FBA35E;stroke-width:3.3575;}
	.st67{fill:none;stroke:#B7E2A1;stroke-width:3.3575;}
	.st68{fill:none;stroke:#FFFFFF;stroke-width:2;}
	.st69{font-family:'ArialRoundedMTBold';}
	.st70{font-size:15px;}
	.st71{font-family:'Arial-BoldMT';}
	.st72{font-size:11px;}
	.st73{enable-background:new    ;}
	.st74{fill:#7B7B7B;}
	.st75{font-size:14px;}
</style>
<g>
	<rect x="602.5" y="71" width="5" height="20.1"/>
	<rect x="602.5" y="96.1" width="5" height="33.6"/>
	<rect x="602.5" y="134.7" width="5" height="10.1"/>
	<rect x="602.5" y="149.7" width="5" height="3.4"/>
	<rect x="602.5" y="158.1" width="5" height="13.4"/>
	<rect x="602.5" y="176.5" width="5" height="30.2"/>
	<rect x="602.5" y="211.8" width="5" height="6.7"/>
	<rect x="602.5" y="223.5" width="5" height="13.4"/>
	<rect x="602.5" y="241.9" width="5" height="3.4"/>
	<rect x="602.5" y="250.3" width="5" height="67.1"/>
	<rect x="602.5" y="322.4" width="5" height="13.4"/>
	<rect x="602.5" y="340.8" width="5" height="16.8"/>
	<rect x="602.5" y="362.6" width="5" height="36.9"/>
	<rect x="602.5" y="404.6" width="5" height="6.7"/>
	<rect x="602.5" y="416.3" width="5" height="130.9"/>
	<rect x="602.5" y="552.2" width="5" height="10.1"/>
	<rect x="602.5" y="567.3" width="5" height="23.5"/>
	<rect x="602.5" y="595.8" width="5" height="33.6"/>
	<rect x="602.5" y="634.4" width="5" height="83.9"/>
	<rect x="602.5" y="723.3" width="5" height="3.4"/>
	<rect x="602.5" y="731.7" width="5" height="16.8"/>
	<rect x="602.5" y="753.4" width="5" height="16.8"/>
	<rect x="602.5" y="775.2" width="5" height="100.7"/>
	<rect x="1090" y="33.5" width="5" height="33.6"/>
	<rect x="1090" y="72" width="5" height="6.7"/>
	<rect x="1090" y="83.7" width="5" height="30.2"/>
	<rect x="1090" y="119" width="5" height="30.2"/>
	<rect x="1090" y="154.2" width="5" height="23.5"/>
	<rect x="115" y="113.5" width="5" height="30.2"/>
	<rect x="115" y="148.7" width="5" height="36.9"/>
	<rect x="115" y="190.6" width="5" height="63.8"/>
	<rect x="115" y="259.4" width="5" height="50.4"/>
	<rect x="115" y="314.8" width="5" height="235"/>
	<rect x="115" y="554.8" width="5" height="278.7"/>
	<rect x="1090" y="182.7" width="5" height="83.9"/>
	<rect x="1090" y="271.6" width="5" height="23.5"/>
	<rect x="1090" y="300.1" width="5" height="40.3"/>
	<rect x="1090" y="345.4" width="5" height="20.1"/>
	<rect x="1090" y="370.6" width="5" height="10.1"/>
	<rect x="1090" y="385.6" width="5" height="43.6"/>
	<rect x="1090" y="434.3" width="5" height="6.7"/>
	<rect x="1090" y="446" width="5" height="13.4"/>
	<rect x="1090" y="464.4" width="5" height="6.7"/>
	<rect x="1090" y="476.1" width="5" height="10.1"/>
	<rect x="1090" y="491.2" width="5" height="13.4"/>
	<rect x="1090" y="509.6" width="5" height="3.4"/>
	<rect x="1090" y="518" width="5" height="3.4"/>
	<rect x="1090" y="526.4" width="5" height="20.1"/>
	<rect x="1090" y="551.5" width="5" height="6.7"/>
	<rect x="1090" y="563.2" width="5" height="13.4"/>
	<rect x="1090" y="581.6" width="5" height="50.4"/>
	<rect x="1090" y="637" width="5" height="23.5"/>
	<rect x="1090" y="665.5" width="5" height="16.8"/>
	<rect x="1090" y="687.3" width="5" height="6.7"/>
	<rect x="1090" y="699" width="5" height="6.7"/>
	<rect x="1090" y="710.7" width="5" height="10.1"/>
	<rect x="1090" y="725.8" width="5" height="10.1"/>
	<rect x="1090" y="740.9" width="5" height="3.4"/>
	<rect x="1090" y="749.2" width="5" height="3.4"/>
	<rect x="1090" y="757.6" width="5" height="3.4"/>
	<rect x="1090" y="765.9" width="5" height="26.9"/>
	<rect x="1090" y="797.8" width="5" height="3.4"/>
	<rect x="1090" y="806.2" width="5" height="13.4"/>
	<rect x="1090" y="824.6" width="5" height="6.7"/>
	<rect x="1090" y="836.3" width="5" height="36.9"/>
	<rect x="1090" y="878.2" width="5" height="20.1"/>
	<rect x="1090" y="903.4" width="5" height="10.1"/>
</g>
<g>
	<g>
		<path class="st0" d="M120,756.2c241.2,0,241.2-58.1,482.5-58.1"/>
	</g>
	<g>
		<path class="st1" d="M120,815c241.2,0,241.2,42.5,482.5,42.5"/>
	</g>
	<g>
		<path class="st2" d="M120,293c241.2,0,241.2,358.2,482.5,358.2"/>
	</g>
	<g>
		<path class="st3" d="M120,167.1c241.2,0,241.2,239.1,482.5,239.1"/>
	</g>
	<g>
		<path class="st4" d="M120,524.6c241.2,0,241.2,289.2,482.5,289.2"/>
	</g>
	<g>
		<path class="st5" d="M120,580c241.2,0,241.2-381.6,482.5-381.6"/>
	</g>
	<g>
		<path class="st6" d="M120,558.1c241.2,0,241.2-470.4,482.5-470.4"/>
	</g>
	<g>
		<path class="st7" d="M120,331.5c241.2,0,241.2-215.3,482.5-215.3"/>
	</g>
	<g>
		<path class="st8" d="M120,403.7c241.2,0,241.2,5.9,482.5,5.9"/>
	</g>
	<g>
		<path class="st9" d="M120,630.3c241.2,0,241.2-299.5,482.5-299.5"/>
	</g>
	<g>
		<path class="st10" d="M120,684c241.2,0,241.2-165.4,482.5-165.4"/>
	</g>
	<g>
		<path class="st6" d="M120,591.7c241.2,0,241.2-376.6,482.5-376.6"/>
	</g>
	<g>
		<path class="st11" d="M120,234.3c241.2,0,241.2,205.5,482.5,205.5"/>
	</g>
	<g>
		<path class="st8" d="M120,497.7c241.2,0,241.2,264.1,482.5,264.1"/>
	</g>
	<g>
		<path class="st12" d="M120,422.2c241.2,0,241.2,51.1,482.5,51.1"/>
	</g>
	<g>
		<path class="st13" d="M120,492.7c241.2,0,241.2,242.3,482.5,242.3"/>
	</g>
	<g>
		<path class="st7" d="M120,459.1c241.2,0,241.2,146.7,482.5,146.7"/>
	</g>
	<g>
		<path class="st13" d="M120,398.7c241.2,0,241.2-15.9,482.5-15.9"/>
	</g>
	<g>
		<path class="st14" d="M120,142c241.2,0,241.2,634.9,482.5,634.9"/>
	</g>
	<g>
		<path class="st9" d="M120,784.8c241.2,0,241.2-41.4,482.5-41.4"/>
	</g>
	<g>
		<path class="st6" d="M120,638.7c241.2,0,241.2-284.5,482.5-284.5"/>
	</g>
	<g>
		<path class="st15" d="M120,172.2c241.2,0,241.2,254.2,482.5,254.2"/>
	</g>
	<g>
		<path class="st16" d="M120,126.9c241.2,0,241.2,292.7,482.5,292.7"/>
	</g>
	<g>
		<path class="st14" d="M120,115.1c241.2,0,241.2,36.3,482.5,36.3"/>
	</g>
	<g>
		<path class="st15" d="M120,155.4c241.2,0,241.2,104.9,482.5,104.9"/>
	</g>
	<g>
		<path class="st17" d="M120,267.8c241.2,0,241.2-42.6,482.5-42.6"/>
	</g>
	<g>
		<path class="st18" d="M120,210.8c241.2,0,241.2,59.6,482.5,59.6"/>
	</g>
	<g>
		<path class="st19" d="M120,304.7c241.2,0,241.2,478.9,482.5,478.9"/>
	</g>
	<g>
		<path class="st6" d="M120,793.2c241.2,0,241.2-26.3,482.5-26.3"/>
	</g>
	<g>
		<path class="st20" d="M120,251c241.2,0,241.2,393.4,482.5,393.4"/>
	</g>
	<g>
		<path class="st8" d="M120,366.8c241.2,0,241.2-138.3,482.5-138.3"/>
	</g>
	<g>
		<path class="st13" d="M120,361.8c241.2,0,241.2-175.2,482.5-175.2"/>
	</g>
	<g>
		<path class="st21" d="M120,444c241.2,0,241.2,113.2,482.5,113.2"/>
	</g>
	<g>
		<path class="st6" d="M120,598.4c241.2,0,241.2-364.9,482.5-364.9"/>
	</g>
	<g>
		<path class="st21" d="M120,319.8c241.2,0,241.2-240.4,482.5-240.4"/>
	</g>
	<g>
		<path class="st16" d="M120,120.2c241.2,0,241.2,133.4,482.5,133.4"/>
	</g>
	<g>
		<path class="st3" d="M120,180.6c241.2,0,241.2,458.8,482.5,458.8"/>
	</g>
	<g>
		<path class="st21" d="M120,343.3c241.2,0,241.2-203.6,482.5-203.6"/>
	</g>
	<g>
		<path class="st22" d="M120,219.1c241.2,0,241.2,123.4,482.5,123.4"/>
	</g>
	<g>
		<path class="st23" d="M120,648.8c241.2,0,241.2-256,482.5-256"/>
	</g>
	<g>
		<path class="st15" d="M120,162.1c241.2,0,241.2,203.9,482.5,203.9"/>
	</g>
	<g>
		<path class="st24" d="M120,613.5c241.2,0,241.2-307.9,482.5-307.9"/>
	</g>
	<g>
		<path class="st17" d="M120,298c241.2,0,241.2,460.5,482.5,460.5"/>
	</g>
	<g>
		<path class="st21" d="M120,353.4c241.2,0,241.2-190.2,482.5-190.2"/>
	</g>
	<g>
		<path class="st14" d="M120,138.6c241.2,0,241.2,497.4,482.5,497.4"/>
	</g>
	<g>
		<path class="st8" d="M120,386.9c241.2,0,241.2-62.9,482.5-62.9"/>
	</g>
	<g>
		<path class="st7" d="M120,378.6c241.2,0,241.2-91.4,482.5-91.4"/>
	</g>
	<g>
		<path class="st3" d="M120,150.4c241.2,0,241.2-52.6,482.5-52.6"/>
	</g>
	<g>
		<path class="st25" d="M120,477.6c241.2,0,241.2,188.7,482.5,188.7"/>
	</g>
	<g>
		<path class="st2" d="M120,276.2c241.2,0,241.2,99.9,482.5,99.9"/>
	</g>
	<g>
		<path class="st26" d="M120,569.9c241.2,0,241.2-400,482.5-400"/>
	</g>
	<g>
		<path class="st17" d="M120,287.9c241.2,0,241.2,291.1,482.5,291.1"/>
	</g>
	<g>
		<path class="st22" d="M120,202.4c241.2,0,241.2-24.1,482.5-24.1"/>
	</g>
	<g>
		<path class="st6" d="M120,564.9c241.2,0,241.2-438.5,482.5-438.5"/>
	</g>
	<g>
		<path class="st5" d="M120,727.7c241.2,0,241.2-106.7,482.5-106.7"/>
	</g>
	<g>
		<path class="st22" d="M120,246c241.2,0,241.2,351.5,482.5,351.5"/>
	</g>
	<g>
		<path class="st20" d="M120,197.3c241.2,0,241.2-94.5,482.5-94.5"/>
	</g>
	<g>
		<path class="st13" d="M120,392c241.2,0,241.2-44.4,482.5-44.4"/>
	</g>
	<g>
		<path class="st17" d="M120,271.1c241.2,0,241.2,7.6,482.5,7.6"/>
	</g>
	<g>
		<path class="st22" d="M120,222.5c241.2,0,241.2,148.5,482.5,148.5"/>
	</g>
	<g>
		<path class="st8" d="M120,450.7c241.2,0,241.2,131.7,482.5,131.7"/>
	</g>
	<g>
		<path class="st8" d="M120,370.2c241.2,0,241.2-126.6,482.5-126.6"/>
	</g>
	<g>
		<path class="st26" d="M120,778.1c241.2,0,241.2-53.1,482.5-53.1"/>
	</g>
	<g>
		<path class="st6" d="M120,715.9c241.2,0,241.2-128.5,482.5-128.5"/>
	</g>
	<g>
		<path class="st3" d="M120,177.2c241.2,0,241.2,398.5,482.5,398.5"/>
	</g>
	<g>
		<path class="st17" d="M120,261.1c241.2,0,241.2-153.2,482.5-153.2"/>
	</g>
	<g>
		<path class="st16" d="M120,133.6c241.2,0,241.2,437,482.5,437"/>
	</g>
	<g>
		<path class="st2" d="M120,282.9c241.2,0,241.2,170.3,482.5,170.3"/>
	</g>
	<g>
		<path class="st3" d="M120,183.9c241.2,0,241.2,571.2,482.5,571.2"/>
	</g>
	<g>
		<path class="st22" d="M120,192.3c241.2,0,241.2-119.6,482.5-119.6"/>
	</g>
	<g>
		<path class="st17" d="M120,264.4c241.2,0,241.2-82.9,482.5-82.9"/>
	</g>
</g>
<g>
	<g>
		<path class="st27" d="M607.5,652.8c241.2,0,241.2-512,482.5-512"/>
	</g>
	<g>
		<path class="st28" d="M607.5,864.2c241.2,0,241.2-34.6,482.5-34.6"/>
	</g>
	<g>
		<path class="st27" d="M607.5,686.4c241.2,0,241.2-62.8,482.5-62.8"/>
	</g>
	<g>
		<path class="st29" d="M607.5,409.6c241.2,0,241.2,401.6,482.5,401.6"/>
	</g>
	<g>
		<path class="st28" d="M607.5,840.7c241.2,0,241.2-383,482.5-383"/>
	</g>
	<g>
		<path class="st30" d="M607.5,181.6c241.2,0,241.2-60.9,482.5-60.9"/>
	</g>
	<g>
		<path class="st31" d="M607.5,812.2c241.2,0,241.2-434.9,482.5-434.9"/>
	</g>
	<g>
		<path class="st32" d="M607.5,76c241.2,0,241.2,111.7,482.5,111.7"/>
	</g>
	<g>
		<path class="st33" d="M607.5,691.4c241.2,0,241.2-37.6,482.5-37.6"/>
	</g>
	<g>
		<path class="st34" d="M607.5,102.8c241.2,0,241.2,93.3,482.5,93.3"/>
	</g>
	<g>
		<path class="st35" d="M607.5,827.3c241.2,0,241.2-409.7,482.5-409.7"/>
	</g>
	<g>
		<path class="st31" d="M607.5,869.2c241.2,0,241.2,0.6,482.5,0.6"/>
	</g>
	<g>
		<path class="st28" d="M607.5,793.7c241.2,0,241.2-646.2,482.5-646.2"/>
	</g>
	<g>
		<path class="st29" d="M607.5,406.2C848.7,406.2,848.7,280,1090,280"/>
	</g>
	<g>
		<path class="st36" d="M607.5,334.2c241.2,0,241.2,259.2,482.5,259.2"/>
	</g>
	<g>
		<path class="st37" d="M607.5,503.6c241.2,0,241.2,104.9,482.5,104.9"/>
	</g>
	<g>
		<path class="st38" d="M607.5,213.4c241.2,0,241.2-128,482.5-128"/>
	</g>
	<g>
		<path class="st28" d="M607.5,807.1c241.2,0,241.2-468.4,482.5-468.4"/>
	</g>
	<g>
		<path class="st39" d="M607.5,515.3c241.2,0,241.2,130.1,482.5,130.1"/>
	</g>
	<g>
		<path class="st40" d="M607.5,758.5c241.2,0,241.2-500.3,482.5-500.3"/>
	</g>
	<g>
		<path class="st37" d="M607.5,436.4C848.7,436.4,848.7,233,1090,233"/>
	</g>
	<g>
		<path class="st41" d="M607.5,740c241.2,0,241.2-485.2,482.5-485.2"/>
	</g>
	<g>
		<path class="st42" d="M607.5,626c241.2,0,241.2,227.1,482.5,227.1"/>
	</g>
	<g>
		<path class="st43" d="M607.5,397.9c241.2,0,241.2,446.8,482.5,446.8"/>
	</g>
	<g>
		<path class="st44" d="M607.5,783.6c241.2,0,241.2-678.1,482.5-678.1"/>
	</g>
	<g>
		<path class="st45" d="M607.5,461.6c241.2,0,241.2-143,482.5-143"/>
	</g>
	<g>
		<path class="st33" d="M607.5,671.3c241.2,0,241.2-337.6,482.5-337.6"/>
	</g>
	<g>
		<path class="st41" d="M607.5,736.7c241.2,0,241.2-592.5,482.5-592.5"/>
	</g>
	<g>
		<path class="st46" d="M607.5,345.9c241.2,0,241.2-218.5,482.5-218.5"/>
	</g>
	<g>
		<path class="st47" d="M607.5,419.6c241.2,0,241.2-379.5,482.5-379.5"/>
	</g>
	<g>
		<path class="st48" d="M607.5,641.1c241.2,0,241.2-580.8,482.5-580.8"/>
	</g>
	<g>
		<path class="st49" d="M607.5,532.1C848.7,532.1,848.7,704,1090,704"/>
	</g>
	<g>
		<path class="st50" d="M607.5,151.4c241.2,0,241.2,579.4,482.5,579.4"/>
	</g>
	<g>
		<path class="st51" d="M607.5,260.3c241.2,0,241.2-40.7,482.5-40.7"/>
	</g>
	<g>
		<path class="st52" d="M607.5,225.1c241.2,0,241.2-13.9,482.5-13.9"/>
	</g>
	<g>
		<path class="st53" d="M607.5,272.1c241.2,0,241.2,197.4,482.5,197.4"/>
	</g>
	<g>
		<path class="st47" d="M607.5,493.5c241.2,0,241.2,76.4,482.5,76.4"/>
	</g>
	<g>
		<path class="st28" d="M607.5,847.4C848.7,847.4,848.7,575,1090,575"/>
	</g>
	<g>
		<path class="st40" d="M607.5,761.8C848.7,761.8,848.7,627,1090,627"/>
	</g>
	<g>
		<path class="st51" d="M607.5,253.6c241.2,0,241.2-92.7,482.5-92.7"/>
	</g>
	<g>
		<path class="st38" d="M607.5,216.8c241.2,0,241.2-92.8,482.5-92.8"/>
	</g>
	<g>
		<path class="st46" d="M607.5,355.9c241.2,0,241.2,552.5,482.5,552.5"/>
	</g>
	<g>
		<path class="st36" d="M607.5,324.1c241.2,0,241.2,23,482.5,23"/>
	</g>
	<g>
		<path class="st41" d="M607.5,743.4c241.2,0,241.2-339.3,482.5-339.3"/>
	</g>
	<g>
		<path class="st27" d="M607.5,703.2c241.2,0,241.2,84.6,482.5,84.6"/>
	</g>
	<g>
		<path class="st52" d="M607.5,228.5c241.2,0,241.2,158.8,482.5,158.8"/>
	</g>
	<g>
		<path class="st30" d="M607.5,184.9c241.2,0,241.2,22.9,482.5,22.9"/>
	</g>
	<g>
		<path class="st27" d="M607.5,676.3c241.2,0,241.2-312.5,482.5-312.5"/>
	</g>
	<g>
		<path class="st49" d="M607.5,428c241.2,0,241.2-262.1,482.5-262.1"/>
	</g>
	<g>
		<path class="st54" d="M607.5,553.9c241.2,0,241.2-384.6,482.5-384.6"/>
	</g>
	<g>
		<path class="st49" d="M607.5,485.1c241.2,0,241.2,56.4,482.5,56.4"/>
	</g>
	<g>
		<path class="st49" d="M607.5,535.5c241.2,0,241.2,198.7,482.5,198.7"/>
	</g>
	<g>
		<path class="st55" d="M607.5,233.5C848.7,233.5,848.7,776,1090,776"/>
	</g>
	<g>
		<path class="st56" d="M607.5,86.1c241.2,0,241.2,380,482.5,380"/>
	</g>
	<g>
		<path class="st54" d="M607.5,560.6c241.2,0,241.2-106.2,482.5-106.2"/>
	</g>
	<g>
		<path class="st51" d="M607.5,267c241.2,0,241.2,39.8,482.5,39.8"/>
	</g>
	<g>
		<path class="st27" d="M607.5,699.8c241.2,0,241.2,51.1,482.5,51.1"/>
	</g>
	<g>
		<path class="st57" d="M607.5,136.4c241.2,0,241.2,64.8,482.5,64.8"/>
	</g>
	<g>
		<path class="st49" d="M607.5,538.8c241.2,0,241.2,287.5,482.5,287.5"/>
	</g>
	<g>
		<path class="st27" d="M607.5,649.5c241.2,0,241.2-560.7,482.5-560.7"/>
	</g>
	<g>
		<path class="st46" d="M607.5,352.6c241.2,0,241.2,244.2,482.5,244.2"/>
	</g>
	<g>
		<path class="st58" d="M607.5,376.1c241.2,0,241.2-20.6,482.5-20.6"/>
	</g>
	<g>
		<path class="st43" d="M607.5,394.5c241.2,0,241.2,413.3,482.5,413.3"/>
	</g>
	<g>
		<path class="st40" d="M607.5,755.1c241.2,0,241.2-659.6,482.5-659.6"/>
	</g>
	<g>
		<path class="st49" d="M607.5,542.2c241.2,0,241.2,305.9,482.5,305.9"/>
	</g>
	<g>
		<path class="st59" d="M607.5,159.8c241.2,0,241.2,44.7,482.5,44.7"/>
	</g>
	<g>
		<path class="st28" d="M607.5,874.3c241.2,0,241.2,22.4,482.5,22.4"/>
	</g>
	<g>
		<path class="st27" d="M607.5,696.5c241.2,0,241.2,46.1,482.5,46.1"/>
	</g>
	<g>
		<path class="st36" d="M607.5,330.8c241.2,0,241.2,234.1,482.5,234.1"/>
	</g>
	<g>
		<path class="st43" d="M607.5,367.7c241.2,0,241.2-143,482.5-143"/>
	</g>
	<g>
		<path class="st60" d="M607.5,107.9c241.2,0,241.2,165.4,482.5,165.4"/>
	</g>
	<g>
		<path class="st31" d="M607.5,802.1c241.2,0,241.2-538.8,482.5-538.8"/>
	</g>
	<g>
		<path class="st51" d="M607.5,304c241.2,0,241.2,478.8,482.5,478.8"/>
	</g>
	<g>
		<path class="st61" d="M607.5,709.9c241.2,0,241.2,151.6,482.5,151.6"/>
	</g>
	<g>
		<path class="st39" d="M607.5,448.2c241.2,0,241.2-161.4,482.5-161.4"/>
	</g>
	<g>
		<path class="st43" d="M607.5,387.8c241.2,0,241.2,212.3,482.5,212.3"/>
	</g>
	<g>
		<path class="st59" d="M607.5,169.9c241.2,0,241.2,629.6,482.5,629.6"/>
	</g>
	<g>
		<path class="st62" d="M607.5,587.4c241.2,0,241.2,31.1,482.5,31.1"/>
	</g>
	<g>
		<path class="st63" d="M607.5,292.2c241.2,0,241.2,294.5,482.5,294.5"/>
	</g>
	<g>
		<path class="st30" d="M607.5,195c241.2,0,241.2,505.7,482.5,505.7"/>
	</g>
	<g>
		<path class="st34" d="M607.5,116.2c241.2,0,241.2,653.1,482.5,653.1"/>
	</g>
	<g>
		<path class="st27" d="M607.5,683c241.2,0,241.2-282.3,482.5-282.3"/>
	</g>
	<g>
		<path class="st64" d="M607.5,610.9c241.2,0,241.2-282.2,482.5-282.2"/>
	</g>
	<g>
		<path class="st61" d="M607.5,662.9c241.2,0,241.2-414.7,482.5-414.7"/>
	</g>
	<g>
		<path class="st64" d="M607.5,614.3c241.2,0,241.2-129.7,482.5-129.7"/>
	</g>
	<g>
		<path class="st34" d="M607.5,126.3c241.2,0,241.2,755.3,482.5,755.3"/>
	</g>
	<g>
		<path class="st42" d="M607.5,599.1c241.2,0,241.2-548.9,482.5-548.9"/>
	</g>
	<g>
		<path class="st46" d="M607.5,349.2c241.2,0,241.2-72.6,482.5-72.6"/>
	</g>
	<g>
		<path class="st39" d="M607.5,525.4c241.2,0,241.2,145.2,482.5,145.2"/>
	</g>
	<g>
		<path class="st28" d="M607.5,857.5c241.2,0,241.2-66.4,482.5-66.4"/>
	</g>
	<g>
		<path class="st49" d="M607.5,424.7c241.2,0,241.2-293.9,482.5-293.9"/>
	</g>
	<g>
		<path class="st28" d="M607.5,854.1c241.2,0,241.2-195.3,482.5-195.3"/>
	</g>
	<g>
		<path class="st53" d="M607.5,315.7c241.2,0,241.2,589.3,482.5,589.3"/>
	</g>
	<g>
		<path class="st27" d="M607.5,716.6c241.2,0,241.2,195.2,482.5,195.2"/>
	</g>
	<g>
		<path class="st65" d="M607.5,572.3c241.2,0,241.2-330.9,482.5-330.9"/>
	</g>
	<g>
		<path class="st66" d="M607.5,243.6c241.2,0,241.2-29,482.5-29"/>
	</g>
	<g>
		<path class="st43" d="M607.5,384.4c241.2,0,241.2,6.2,482.5,6.2"/>
	</g>
	<g>
		<path class="st42" d="M607.5,605.9c241.2,0,241.2-470.1,482.5-470.1"/>
	</g>
	<g>
		<path class="st59" d="M607.5,163.1c241.2,0,241.2,284.5,482.5,284.5"/>
	</g>
	<g>
		<path class="st67" d="M607.5,725c241.2,0,241.2-47.7,482.5-47.7"/>
	</g>
	<g>
		<path class="st27" d="M607.5,679.7c241.2,0,241.2-307.5,482.5-307.5"/>
	</g>
	<g>
		<path class="st49" d="M607.5,478.4c241.2,0,241.2-27.4,482.5-27.4"/>
	</g>
	<g>
		<path class="st47" d="M607.5,473.3c241.2,0,241.2-77.6,482.5-77.6"/>
	</g>
	<g>
		<path class="st40" d="M607.5,765.2c241.2,0,241.2-84.6,482.5-84.6"/>
	</g>
	<g>
		<path class="st60" d="M607.5,111.2c241.2,0,241.2,616.3,482.5,616.3"/>
	</g>
	<g>
		<path class="st43" d="M607.5,391.2c241.2,0,241.2,324.6,482.5,324.6"/>
	</g>
	<g>
		<path class="st59" d="M607.5,166.5c241.2,0,241.2,344.8,482.5,344.8"/>
	</g>
	<g>
		<path class="st30" d="M607.5,191.6c241.2,0,241.2,339.7,482.5,339.7"/>
	</g>
	<g>
		<path class="st27" d="M607.5,656.2c241.2,0,241.2-483.5,482.5-483.5"/>
	</g>
	<g>
		<path class="st62" d="M607.5,577.4c241.2,0,241.2-97.9,482.5-97.9"/>
	</g>
	<g>
		<path class="st30" d="M607.5,198.4c241.2,0,241.2,514,482.5,514"/>
	</g>
	<g>
		<path class="st49" d="M607.5,545.5c241.2,0,241.2,347.8,482.5,347.8"/>
	</g>
	<g>
		<path class="st41" d="M607.5,746.8c241.2,0,241.2-27.6,482.5-27.6"/>
	</g>
	<g>
		<path class="st64" d="M607.5,621c241.2,0,241.2,71.4,482.5,71.4"/>
	</g>
	<g>
		<path class="st60" d="M607.5,97.8c241.2,0,241.2,58.1,482.5,58.1"/>
	</g>
	<g>
		<path class="st28" d="M607.5,860.8c241.2,0,241.2-42.9,482.5-42.9"/>
	</g>
	<g>
		<path class="st28" d="M607.5,850.8c241.2,0,241.2-220.4,482.5-220.4"/>
	</g>
	<g>
		<path class="st51" d="M607.5,283.8c241.2,0,241.2,252.6,482.5,252.6"/>
	</g>
	<g>
		<path class="st40" d="M607.5,768.6c241.2,0,241.2,46,482.5,46"/>
	</g>
	<g>
		<path class="st56" d="M607.5,89.4C848.7,89.4,848.7,528,1090,528"/>
	</g>
	<g>
		<path class="st49" d="M607.5,488.5c241.2,0,241.2,64.7,482.5,64.7"/>
	</g>
	<g>
		<path class="st43" d="M607.5,364.3c241.2,0,241.2-329.2,482.5-329.2"/>
	</g>
	<g>
		<path class="st41" d="M607.5,733.3c241.2,0,241.2-641.2,482.5-641.2"/>
	</g>
	<g>
		<path class="st28" d="M607.5,844.1C848.7,844.1,848.7,503,1090,503"/>
	</g>
	<g>
		<path class="st51" d="M607.5,277.1c241.2,0,241.2,220.8,482.5,220.8"/>
	</g>
	<g>
		<path class="st65" d="M607.5,569C848.7,569,848.7,45.2,1090,45.2"/>
	</g>
	<g>
		<path class="st60" d="M607.5,121.3C848.7,121.3,848.7,838,1090,838"/>
	</g>
	<g>
		<path class="st53" d="M607.5,298.9c241.2,0,241.2,339.7,482.5,339.7"/>
	</g>
	<g>
		<path class="st57" d="M607.5,143.1C848.7,143.1,848.7,689,1090,689"/>
	</g>
	<g>
		<path class="st46" d="M607.5,342.5c241.2,0,241.2-265.4,482.5-265.4"/>
	</g>
	<g>
		<path class="st36" d="M607.5,327.4c241.2,0,241.2,111.9,482.5,111.9"/>
	</g>
	<g>
		<path class="st30" d="M607.5,178.2c241.2,0,241.2-104.5,482.5-104.5"/>
	</g>
	<g>
		<path class="st57" d="M607.5,139.7c241.2,0,241.2,353.2,482.5,353.2"/>
	</g>
	<g>
		<path class="st30" d="M607.5,205.1c241.2,0,241.2,681.6,482.5,681.6"/>
	</g>
	<g>
		<path class="st54" d="M607.5,557.2c241.2,0,241.2-263.8,482.5-263.8"/>
	</g>
	<g>
		<path class="st53" d="M607.5,312.4C848.7,312.4,848.7,890,1090,890"/>
	</g>
	<g>
		<path class="st56" d="M607.5,82.7c241.2,0,241.2,219.1,482.5,219.1"/>
	</g>
	<g>
		<path class="st30" d="M607.5,201.7c241.2,0,241.2,557.5,482.5,557.5"/>
	</g>
	<g>
		<path class="st49" d="M607.5,481.7c241.2,0,241.2,37.9,482.5,37.9"/>
	</g>
	<g>
		<path class="st65" d="M607.5,582.4c241.2,0,241.2-37.6,482.5-37.6"/>
	</g>
	<g>
		<path class="st64" d="M607.5,617.6c241.2,0,241.2-61.1,482.5-61.1"/>
	</g>
	<g>
		<path class="st53" d="M607.5,309c241.2,0,241.2,532.3,482.5,532.3"/>
	</g>
	<g>
		<path class="st28" d="M607.5,797.1C848.7,797.1,848.7,176,1090,176"/>
	</g>
	<g>
		<path class="st30" d="M607.5,188.3C848.7,188.3,848.7,436,1090,436"/>
	</g>
</g>
<g>
	<text transform="matrix(1 0 0 1 611.4802 86.5089)" class="st68 st69 st70">4</text>
</g>
<g>
	<text transform="matrix(1 0 0 1 611.4802 86.5089)" class="st69 st70">4</text>
</g>
<g>
	<text transform="matrix(1 0 0 1 611.4802 117.3688)" class="st68 st69 st70">4.5</text>
</g>
<g>
	<text transform="matrix(1 0 0 1 611.4802 117.3688)" class="st69 st70">4.5</text>
</g>
<g>
	<text transform="matrix(1 0 0 1 611.4802 146.1925)" class="st68 st69 st70">4.6</text>
</g>
<g>
	<text transform="matrix(1 0 0 1 611.4802 146.1925)" class="st69 st70">4.6</text>
</g>
<g>
	<text transform="matrix(1 0 0 1 611.4802 157.9075)" class="st68 st69 st70">4.7</text>
</g>
<g>
	<text transform="matrix(1 0 0 1 611.4802 157.9075)" class="st69 st70">4.7</text>
</g>
<g>
	<text transform="matrix(1 0 0 1 611.4802 171.3011)" class="st68 st69 st70">4.8</text>
</g>
<g>
	<text transform="matrix(1 0 0 1 611.4802 171.3011)" class="st69 st70">4.8</text>
</g>
<g>
	<text transform="matrix(1 0 0 1 611.4802 197.1249)" class="st68 st69 st70">5</text>
</g>
<g>
	<text transform="matrix(1 0 0 1 611.4802 197.1249)" class="st69 st70">5</text>
</g>
<g>
	<text transform="matrix(1 0 0 1 611.4802 220.5911)" class="st68 st69 st70">5.2</text>
</g>
<g>
	<text transform="matrix(1 0 0 1 611.4802 220.5911)" class="st69 st70">5.2</text>
</g>
<g>
	<text transform="matrix(1 0 0 1 611.4802 234.6635)" class="st68 st69 st70">5.3</text>
</g>
<g>
	<text transform="matrix(1 0 0 1 611.4802 234.6635)" class="st69 st70">5.3</text>
</g>
<g>
	<text transform="matrix(1 0 0 1 611.4802 249.0573)" class="st68 st69 st70">5.4</text>
</g>
<g>
	<text transform="matrix(1 0 0 1 611.4802 249.0573)" class="st69 st70">5.4</text>
</g>
<g>
	<text transform="matrix(1 0 0 1 611.4802 286.3109)" class="st68 st69 st70">5.5</text>
</g>
<g>
	<text transform="matrix(1 0 0 1 611.4802 286.3109)" class="st69 st70">5.5</text>
</g>
<g>
	<text transform="matrix(1 0 0 1 611.4802 333.6007)" class="st68 st69 st70">5.6</text>
</g>
<g>
	<text transform="matrix(1 0 0 1 611.4802 333.6007)" class="st69 st70">5.6</text>
</g>
<g>
	<text transform="matrix(1 0 0 1 611.4802 353.7094)" class="st68 st69 st70">5.7</text>
</g>
<g>
	<text transform="matrix(1 0 0 1 611.4802 353.7094)" class="st69 st70">5.7</text>
</g>
<g>
	<text transform="matrix(1 0 0 1 611.4802 384.5693)" class="st68 st69 st70">5.8</text>
</g>
<g>
	<text transform="matrix(1 0 0 1 611.4802 384.5693)" class="st69 st70">5.8</text>
</g>
<g>
	<text transform="matrix(1 0 0 1 611.4802 412.3929)" class="st68 st69 st70">5.9</text>
</g>
<g>
	<text transform="matrix(1 0 0 1 611.4802 412.3929)" class="st69 st70">5.9</text>
</g>
<g>
	<text transform="matrix(1 0 0 1 611.4802 481.2215)" class="st68 st69 st70">6</text>
</g>
<g>
	<text transform="matrix(1 0 0 1 611.4802 481.2215)" class="st69 st70">6</text>
</g>
<g>
	<text transform="matrix(1 0 0 1 611.4802 562.7288)" class="st68 st69 st70">6.1</text>
</g>
<g>
	<text transform="matrix(1 0 0 1 611.4802 562.7288)" class="st69 st70">6.1</text>
</g>
<g>
	<text transform="matrix(1 0 0 1 611.4802 584.5162)" class="st68 st69 st70">6.2</text>
</g>
<g>
	<text transform="matrix(1 0 0 1 611.4802 584.5162)" class="st69 st70">6.2</text>
</g>
<g>
	<text transform="matrix(1 0 0 1 611.4802 617.0548)" class="st68 st69 st70">6.3</text>
</g>
<g>
	<text transform="matrix(1 0 0 1 611.4802 617.0548)" class="st69 st70">6.3</text>
</g>
<g>
	<text transform="matrix(1 0 0 1 611.4802 682.8109)" class="st68 st69 st70">6.5</text>
</g>
<g>
	<text transform="matrix(1 0 0 1 611.4802 682.8109)" class="st69 st70">6.5</text>
</g>
<g>
	<text transform="matrix(1 0 0 1 611.4802 730.4582)" class="st68 st69 st70">6.6</text>
</g>
<g>
	<text transform="matrix(1 0 0 1 611.4802 730.4582)" class="st69 st70">6.6</text>
</g>
<g>
	<text transform="matrix(1 0 0 1 611.4802 745.5306)" class="st68 st69 st70">6.7</text>
</g>
<g>
	<text transform="matrix(1 0 0 1 611.4802 745.5306)" class="st69 st70">6.7</text>
</g>
<g>
	<text transform="matrix(1 0 0 1 611.4802 766.3181)" class="st68 st69 st70">6.8</text>
</g>
<g>
	<text transform="matrix(1 0 0 1 611.4802 766.3181)" class="st69 st70">6.8</text>
</g>
<g>
	<text transform="matrix(1 0 0 1 611.4802 833.0742)" class="st68 st69 st70">7</text>
</g>
<g>
	<text transform="matrix(1 0 0 1 611.4802 833.0742)" class="st69 st70">7</text>
</g>
<text transform="matrix(1 0 0 1 1104.3596 52.7239)" class="st71 st72">Abud Carrillo, Jenny</text>
<text transform="matrix(1 0 0 1 1104.3586 79.8688)" class="st71 st72">Benavides Bermúdez, Paola</text>
<text transform="matrix(1 0 0 1 1104.3596 103.335)" class="st71 st72">Castillo Espinoza, Eduardo</text>
<text transform="matrix(1 0 0 1 1104.3586 137.5524)" class="st71 st72">Cortez Orellana, Felipe</text>
<text transform="matrix(1 0 0 1 1104.3596 168.4123)" class="st71 st72">De la Sotta Lazzerini, Paola</text>
<text transform="matrix(1 0 0 1 53.7816 128.0452)" class="st71 st72">Diseñador</text>
<text transform="matrix(1 0 0 1 31.1693 162.62)" class="st73"><tspan x="0" y="0" class="st71 st72">Diseñador con</tspan><tspan x="5.5" y="13.2" class="st71 st72">mención I y S</tspan></text>
<text transform="matrix(1 0 0 1 31.1693 220.9824)" class="st73"><tspan x="0" y="0" class="st71 st72">Diseñador con</tspan><tspan x="-16.5" y="13.2" class="st71 st72">mención en V y M</tspan></text>
<text transform="matrix(1 0 0 1 47.6639 285.0596)" class="st71 st72">Diseñadora</text>
<text transform="matrix(1 0 0 1 25.0516 427.7529)" class="st73"><tspan x="0" y="0" class="st71 st72">Diseñadora con</tspan><tspan x="11.6" y="13.2" class="st71 st72">mención I y S</tspan></text>
<text transform="matrix(1 0 0 1 25.0516 693.6007)" class="st73"><tspan x="0" y="0" class="st71 st72">Diseñadora con</tspan><tspan x="-10.4" y="13.2" class="st71 st72">mención en V y M</tspan></text>
<text transform="matrix(1 0 0 1 1104.3586 224.1321)" class="st71 st72">Domínguez González, Pablo</text>
<text transform="matrix(1 0 0 1 1104.3596 285.8519)" class="st71 st72">Donoso Cisternas, Sergio</text>
<text transform="matrix(1 0 0 1 1104.3596 323.748)" class="st71 st72">Dueñas Santander, Rodrigo</text>
<text transform="matrix(1 0 0 1 1104.3586 356.9655)" class="st71 st72">Gatica Ramírez, Pamela</text>
<text transform="matrix(1 0 0 1 1104.3586 377.0742)" class="st71 st72">Gómez Moya, Cristián</text>
<text transform="matrix(1 0 0 1 1104.3596 408.934)" class="st71 st72">Jacob Dazarola, Rubén</text>
<text transform="matrix(1 0 0 1 1104.3596 439.1152)" class="st71 st72">Jove Avilés, Trinidad</text>
<text transform="matrix(1 0 0 1 1104.3586 454.1877)" class="st71 st72">Lares López, Lorna</text>
<text transform="matrix(1 0 0 1 1104.3586 469.2601)" class="st71 st72">Lepe Muñoz, Juan Carlos</text>
<text transform="matrix(1 0 0 1 1104.3586 482.6538)" class="st71 st72">Maldonado de la Fuente, Felix</text>
<text transform="matrix(1 0 0 1 1104.3586 499.405)" class="st71 st72">Marín Pacheco, Antonio</text>
<text transform="matrix(1 0 0 1 1104.3596 514.7988)" class="st71 st72">Molina Oyarzún, Raúl</text>
<text transform="matrix(1 0 0 1 1104.3586 523.1562)" class="st71 st72">Mora Briones, Alfredo</text>
<text transform="matrix(1 0 0 1 1104.3596 539.9075)" class="st71 st72">Morales Mujica, María Paz</text>
<text transform="matrix(1 0 0 1 1104.3586 559.3374)" class="st71 st72">Méndez Olivares, Iván</text>
<text transform="matrix(1 0 0 1 1104.3596 574.4099)" class="st71 st72">Nuñez Gutiérrez, Pablo</text>
<text transform="matrix(1 0 0 1 1104.3596 606.306)" class="st71 st72">Ode Saleh, Verónica</text>
<text transform="matrix(1 0 0 1 1104.3596 651.2384)" class="st71 st72">Osses Flores, Roberto</text>
<text transform="matrix(1 0 0 1 1104.3596 673.3833)" class="st71 st72">Pagueguy Fenner, Sebastián</text>
<text transform="matrix(1 0 0 1 1104.3586 690.1345)" class="st71 st72">Perea Morales, René</text>
<text transform="matrix(1 0 0 1 1104.3596 701.8495)" class="st71 st72">Perelli Soto, Bruno</text>
<text transform="matrix(1 0 0 1 1104.3586 715.2432)" class="st71 st72">Pradenas Guentherodt, Gabriela</text>
<text transform="matrix(1 0 0 1 1104.3596 733.3157)" class="st71 st72">Reyes León, Daniel</text>
<text transform="matrix(1 0 0 1 1104.3596 745.0306)" class="st71 st72">Ruiz Balart, Macarena</text>
<text transform="matrix(1 0 0 1 1104.3596 754.3882)" class="st71 st72">Santibañez Boric, Mónica</text>
<text transform="matrix(1 0 0 1 1104.3596 763.7457)" class="st71 st72">Silva Roquefort, Rebeca</text>
<text transform="matrix(1 0 0 1 1104.3596 780.8543)" class="st71 st72">Soto Calquín, Leonardo</text>
<text transform="matrix(1 0 0 1 1104.3596 802.963)" class="st71 st72">Stange Marcus, Hans</text>
<text transform="matrix(1 0 0 1 1104.3596 816.3568)" class="st71 st72">Tapia Reyes, Mauricio</text>
<text transform="matrix(1 0 0 1 1104.3586 832.4292)" class="st71 st72">Vico Sánchez, Mauricio</text>
<text transform="matrix(1 0 0 1 1104.3586 858.2529)" class="st71 st72">Wechsler Pizarro, Andrea</text>
<text transform="matrix(1 0 0 1 1104.3743 887.7916)" class="st71 st72">Young Araya, Mariana</text>
<text transform="matrix(1 0 0 1 1104.3596 911.9002)" class="st71 st72">Zorzano Betancourt, Osvaldo</text>
<g>
	<text transform="matrix(1 0 0 1 560.6394 29.4554)" class="st74 st71 st75">Nota Proyecto</text>
	<text transform="matrix(1 0 0 1 1044.8093 29.4554)" class="st74 st71 st75">Profesor Guia</text>
	<text transform="matrix(1 0 0 1 55.1452 29.4554)" class="st74 st71 st75">Titulo Profesional</text>
</g>
</svg>
