<?xml version="1.0" encoding="UTF-8"?>
<svg id="Capa_1" data-name="Capa 1" xmlns="http://www.w3.org/2000/svg" version="1.1" viewBox="0 0 1245.6 601">
  <defs>
    <style>
      .cls-1 {
        font-family: Helvetica, Helvetica;
      }

      .cls-1, .cls-2 {
        font-size: 10px;
      }

      .cls-1, .cls-2, .cls-3, .cls-4 {
        fill: #000;
      }

      .cls-1, .cls-2, .cls-3, .cls-4, .cls-5 {
        isolation: isolate;
      }

      .cls-2, .cls-3, .cls-4 {
        font-family: ArialMT, Arial;
      }

      .cls-6 {
        fill: #0a5054;
      }

      .cls-6, .cls-7, .cls-8, .cls-9, .cls-10 {
        stroke-width: 0px;
      }

      .cls-7 {
        fill: #aaaaa9;
      }

      .cls-3, .cls-4 {
        font-size: 12px;
      }

      .cls-8 {
        fill: #0f7e86;
      }

      .cls-9 {
        fill: #1f77b4;
      }

      .cls-11 {
        fill: none;
        stroke: #000;
      }

      .cls-4 {
        letter-spacing: 0em;
      }

      .cls-10 {
        fill: #00b3bf;
      }
    </style>
  </defs>
  <rect id="undefined_-_aprueba" data-name="undefined - aprueba" class="cls-9" x="116.2" y="556.5" width="39.8" height="24"/>
  <rect id="undefined_-_reprueban" data-name="undefined - reprueban" class="cls-7" x="156" y="372.5" width="39.8" height="208"/>
  <rect id="undefined_-_meción_v_y_m" data-name="undefined - meción v y m" class="cls-10" x="116.2" y="564.5" width="39.8" height="16"/>
  <rect id="undefined_-_diseño" data-name="undefined - diseño" class="cls-6" x="116.2" y="556.5" width="39.8" height="8"/>
  <rect id="undefined_-_aprueba-2" data-name="undefined - aprueba-2" class="cls-9" x="260.4" y="500.5" width="39.8" height="80"/>
  <rect id="undefined_-_reprueban-2" data-name="undefined - reprueban-2" class="cls-7" x="300.2" y="308.5" width="39.8" height="272"/>
  <rect id="undefined_-_meción_v_y_m-2" data-name="undefined - meción v y m-2" class="cls-10" x="260.4" y="540.5" width="39.8" height="40"/>
  <rect id="undefined_-_mención_i_y_s" data-name="undefined - mención i y s" class="cls-8" x="260.4" y="500.5" width="39.8" height="40"/>
  <rect id="undefined_-_aprueba-3" data-name="undefined - aprueba-3" class="cls-9" x="404.6" y="492.5" width="39.8" height="88"/>
  <rect id="undefined_-_reprueban-3" data-name="undefined - reprueban-3" class="cls-7" x="444.4" y="108.5" width="39.8" height="472"/>
  <rect id="undefined_-_meción_v_y_m-3" data-name="undefined - meción v y m-3" class="cls-10" x="404.6" y="524.5" width="39.8" height="56"/>
  <rect id="undefined_-_mención_i_y_s-2" data-name="undefined - mención i y s-2" class="cls-8" x="404.6" y="492.5" width="39.8" height="32"/>
  <rect id="undefined_-_aprueba-4" data-name="undefined - aprueba-4" class="cls-9" x="548.8" y="420.5" width="39.8" height="160"/>
  <rect id="undefined_-_reprueban-4" data-name="undefined - reprueban-4" class="cls-7" x="588.6" y="204.5" width="39.8" height="376"/>
  <rect id="undefined_-_meción_v_y_m-4" data-name="undefined - meción v y m-4" class="cls-10" x="548.8" y="508.5" width="39.8" height="72"/>
  <rect id="undefined_-_mención_i_y_s-3" data-name="undefined - mención i y s-3" class="cls-8" x="548.8" y="452.5" width="39.8" height="56"/>
  <rect id="undefined_-_diseño-2" data-name="undefined - diseño-2" class="cls-6" x="548.8" y="420.5" width="39.8" height="32"/>
  <rect id="undefined_-_aprueba-5" data-name="undefined - aprueba-5" class="cls-9" x="693.2" y="140.5" width="39.8" height="440"/>
  <rect id="undefined_-_reprueban-5" data-name="undefined - reprueban-5" class="cls-7" x="733" y="236.5" width="39.8" height="344"/>
  <rect id="undefined_-_meción_v_y_m-5" data-name="undefined - meción v y m-5" class="cls-10" x="693.2" y="380.5" width="39.8" height="200"/>
  <rect id="undefined_-_mención_i_y_s-4" data-name="undefined - mención i y s-4" class="cls-8" x="693.1" y="196.3" width="39.8" height="184"/>
  <rect id="undefined_-_diseño-3" data-name="undefined - diseño-3" class="cls-6" x="693.2" y="140.5" width="39.8" height="56"/>
  <rect id="undefined_-_aprueba-6" data-name="undefined - aprueba-6" class="cls-9" x="837.5" y="268.5" width="39.8" height="312"/>
  <rect id="undefined_-_reprueban-6" data-name="undefined - reprueban-6" class="cls-7" x="877.2" y="412.5" width="39.8" height="168"/>
  <rect id="undefined_-_meción_v_y_m-6" data-name="undefined - meción v y m-6" class="cls-10" x="837.5" y="412.5" width="39.8" height="168"/>
  <rect id="undefined_-_mención_i_y_s-5" data-name="undefined - mención i y s-5" class="cls-8" x="837.5" y="300.5" width="39.8" height="112"/>
  <rect id="undefined_-_diseño-4" data-name="undefined - diseño-4" class="cls-6" x="837.5" y="268.5" width="39.8" height="32"/>
  <rect id="undefined_-_aprueba-7" data-name="undefined - aprueba-7" class="cls-9" x="981.7" y="28.5" width="39.8" height="552"/>
  <rect id="undefined_-_reprueban-7" data-name="undefined - reprueban-7" class="cls-7" x="1021.5" y="172.5" width="39.8" height="408"/>
  <rect id="undefined_-_meción_v_y_m-7" data-name="undefined - meción v y m-7" class="cls-10" x="981.7" y="316.5" width="39.8" height="264"/>
  <rect id="undefined_-_mención_i_y_s-6" data-name="undefined - mención i y s-6" class="cls-8" x="981.7" y="92.7" width="39.8" height="224"/>
  <rect id="undefined_-_diseño-5" data-name="undefined - diseño-5" class="cls-6" x="981.7" y="28.5" width="39.8" height="64"/>
  <path class="cls-11" d="M50.5,580.5h1117.4"/>
  <line class="cls-11" x1="155.9" y1="580.5" x2="155.9" y2="586.5"/>
  <g class="cls-5">
    <text class="cls-1" transform="translate(138.9 596.6)"><tspan x="0" y="0">2021-2</tspan></text>
  </g>
  <line class="cls-11" x1="299.8" y1="580.5" x2="299.8" y2="586.5"/>
  <g class="cls-5">
    <text class="cls-1" transform="translate(282.8 596.6)"><tspan x="0" y="0">2022-1</tspan></text>
  </g>
  <line class="cls-11" x1="445.2" y1="580.5" x2="445.2" y2="586.5"/>
  <g class="cls-5">
    <text class="cls-1" transform="translate(428.2 596.6)"><tspan x="0" y="0">2022-2</tspan></text>
  </g>
  <line class="cls-11" x1="589.1" y1="580.5" x2="589.1" y2="586.5"/>
  <g class="cls-5">
    <text class="cls-1" transform="translate(572.1 596.6)"><tspan x="0" y="0">2023-1</tspan></text>
  </g>
  <line class="cls-11" x1="733" y1="580.5" x2="733" y2="586.5"/>
  <g class="cls-5">
    <text class="cls-1" transform="translate(716 596.6)"><tspan x="0" y="0">2023-2</tspan></text>
  </g>
  <line class="cls-11" x1="878.3" y1="580.5" x2="878.3" y2="586.5"/>
  <g class="cls-5">
    <text class="cls-1" transform="translate(861.3 596.6)"><tspan x="0" y="0">2024-1</tspan></text>
  </g>
  <line class="cls-11" x1="1022.2" y1="580.5" x2="1022.2" y2="586.5"/>
  <g class="cls-5">
    <text class="cls-1" transform="translate(1005.2 596.6)"><tspan x="0" y="0">2024-2</tspan></text>
  </g>
  <g id="yAxis">
    <path class="cls-11" d="M50.5,580.5V20.5"/>
    <line class="cls-11" x1="50.5" y1="580.5" x2="44.5" y2="580.5"/>
    <g class="cls-5">
      <text class="cls-1" transform="translate(35.5 583.7)"><tspan x="0" y="0">0</tspan></text>
    </g>
    <line class="cls-11" x1="50.5" y1="540.5" x2="44.5" y2="540.5"/>
    <g class="cls-5">
      <text class="cls-1" transform="translate(35.5 543.7)"><tspan x="0" y="0">5</tspan></text>
    </g>
    <line class="cls-11" x1="50.5" y1="500.5" x2="44.5" y2="500.5"/>
    <g class="cls-5">
      <text class="cls-1" transform="translate(29.5 503.7)"><tspan x="0" y="0">10</tspan></text>
    </g>
    <line class="cls-11" x1="50.5" y1="460.5" x2="44.5" y2="460.5"/>
    <g class="cls-5">
      <text class="cls-1" transform="translate(29.5 463.7)"><tspan x="0" y="0">15</tspan></text>
    </g>
    <line class="cls-11" x1="50.5" y1="420.5" x2="44.5" y2="420.5"/>
    <g class="cls-5">
      <text class="cls-1" transform="translate(29.5 423.7)"><tspan x="0" y="0">20</tspan></text>
    </g>
    <line class="cls-11" x1="50.5" y1="380.5" x2="44.5" y2="380.5"/>
    <g class="cls-5">
      <text class="cls-1" transform="translate(29.5 383.7)"><tspan x="0" y="0">25</tspan></text>
    </g>
    <line class="cls-11" x1="50.5" y1="340.5" x2="44.5" y2="340.5"/>
    <g class="cls-5">
      <text class="cls-1" transform="translate(29.5 343.7)"><tspan x="0" y="0">30</tspan></text>
    </g>
    <line class="cls-11" x1="50.5" y1="300.5" x2="44.5" y2="300.5"/>
    <g class="cls-5">
      <text class="cls-1" transform="translate(29.5 303.7)"><tspan x="0" y="0">35</tspan></text>
    </g>
    <line class="cls-11" x1="50.5" y1="260.5" x2="44.5" y2="260.5"/>
    <g class="cls-5">
      <text class="cls-1" transform="translate(29.5 263.7)"><tspan x="0" y="0">40</tspan></text>
    </g>
    <line class="cls-11" x1="50.5" y1="220.5" x2="44.5" y2="220.5"/>
    <g class="cls-5">
      <text class="cls-1" transform="translate(29.5 223.7)"><tspan x="0" y="0">45</tspan></text>
    </g>
    <line class="cls-11" x1="50.5" y1="180.5" x2="44.5" y2="180.5"/>
    <g class="cls-5">
      <text class="cls-1" transform="translate(29.5 183.7)"><tspan x="0" y="0">50</tspan></text>
    </g>
    <line class="cls-11" x1="50.5" y1="140.5" x2="44.5" y2="140.5"/>
    <g class="cls-5">
      <text class="cls-1" transform="translate(29.5 143.7)"><tspan x="0" y="0">55</tspan></text>
    </g>
    <line class="cls-11" x1="50.5" y1="100.5" x2="44.5" y2="100.5"/>
    <g class="cls-5">
      <text class="cls-1" transform="translate(29.5 103.7)"><tspan x="0" y="0">60</tspan></text>
    </g>
    <line class="cls-11" x1="50.5" y1="60.5" x2="44.5" y2="60.5"/>
    <g class="cls-5">
      <text class="cls-1" transform="translate(29.5 63.7)"><tspan x="0" y="0">65</tspan></text>
    </g>
    <line class="cls-11" x1="50.5" y1="20.5" x2="44.5" y2="20.5"/>
    <g class="cls-5">
      <text class="cls-1" transform="translate(29.5 23.7)"><tspan x="0" y="0">70</tspan></text>
    </g>
  </g>
  <rect class="cls-6" x="1152" y="32.6" width="15" height="15"/>
  <g class="cls-5">
    <g class="cls-5">
      <text class="cls-2" transform="translate(1172 45.1)"><tspan x="0" y="0">diseño</tspan></text>
    </g>
  </g>
  <rect class="cls-10" x="1152" y="74" width="15" height="15"/>
  <g class="cls-5">
    <g class="cls-5">
      <text class="cls-2" transform="translate(1172 86.5)"><tspan x="0" y="0">meción v y m</tspan></text>
    </g>
  </g>
  <rect class="cls-8" x="1152" y="53.3" width="15" height="15"/>
  <g class="cls-5">
    <g class="cls-5">
      <text class="cls-2" transform="translate(1172 65.8)"><tspan x="0" y="0">mención i y s</tspan></text>
    </g>
  </g>
  <rect class="cls-7" x="1152" y="94.8" width="15" height="15"/>
  <g class="cls-5">
    <g class="cls-5">
      <text class="cls-2" transform="translate(1172 107.3)"><tspan x="0" y="0">reprobados</tspan></text>
    </g>
  </g>
  <g class="cls-5">
    <text class="cls-3" transform="translate(132.7 554.5)"><tspan x="0" y="0">3</tspan></text>
  </g>
  <g class="cls-5">
    <text class="cls-3" transform="translate(169.2 370.5)"><tspan x="0" y="0">26</tspan></text>
  </g>
  <g class="cls-5">
    <text class="cls-3" transform="translate(273.6 498.5)"><tspan x="0" y="0">10</tspan></text>
  </g>
  <g class="cls-5">
    <text class="cls-3" transform="translate(313.4 306.5)"><tspan x="0" y="0">34</tspan></text>
  </g>
  <g class="cls-5">
    <text class="cls-4" transform="translate(417.8 490.5)"><tspan x="0" y="0">1</tspan></text>
    <text class="cls-3" transform="translate(423.6 490.5)"><tspan x="0" y="0">1</tspan></text>
  </g>
  <g class="cls-5">
    <text class="cls-3" transform="translate(457.6 106.5)"><tspan x="0" y="0">59</tspan></text>
  </g>
  <g class="cls-5">
    <text class="cls-3" transform="translate(562.1 418.5)"><tspan x="0" y="0">20</tspan></text>
  </g>
  <g class="cls-5">
    <text class="cls-3" transform="translate(601.8 202.5)"><tspan x="0" y="0">47</tspan></text>
  </g>
  <g class="cls-5">
    <text class="cls-3" transform="translate(706.3 138.7)"><tspan x="0" y="0">55</tspan></text>
  </g>
  <g class="cls-5">
    <text class="cls-3" transform="translate(746.2 234.5)"><tspan x="0" y="0">43</tspan></text>
  </g>
  <g class="cls-5">
    <text class="cls-3" transform="translate(850.7 266.5)"><tspan x="0" y="0">39</tspan></text>
  </g>
  <g class="cls-5">
    <text class="cls-3" transform="translate(890.5 410.5)"><tspan x="0" y="0">21</tspan></text>
  </g>
  <g class="cls-5">
    <text class="cls-3" transform="translate(994.9 26.5)"><tspan x="0" y="0">69</tspan></text>
  </g>
  <g class="cls-5">
    <text class="cls-3" transform="translate(1034.7 170.5)"><tspan x="0" y="0">51</tspan></text>
  </g>
</svg>