<?xml version="1.0" encoding="UTF-8"?><svg id="Capa_1" xmlns="http://www.w3.org/2000/svg" viewBox="0 0 1700.5 601"><defs><style>.cls-1,.cls-2{font-size:10px;}.cls-1,.cls-2,.cls-3{fill:#000;}.cls-1,.cls-2,.cls-4{isolation:isolate;}.cls-1,.cls-3{font-family:ArialMT, Arial;}.cls-5{fill:#0a5054;}.cls-5,.cls-6,.cls-7,.cls-8,.cls-9,.cls-10{stroke-width:0px;}.cls-6{fill:#aaaaa9;}.cls-2{font-family:Helvetica-Condensed-Oblique, Helvetica;font-style:oblique;}.cls-11{letter-spacing:-.07em;}.cls-3{font-size:12px;}.cls-7{fill:#0f7e86;}.cls-8{fill:#1f77b4;}.cls-12{stroke:#000;}.cls-12,.cls-13{fill:none;}.cls-13{stroke:#ccc;}.cls-9{fill:#00b3bf;}.cls-10{fill:#fff;}</style></defs><rect id="background" class="cls-10" x=".5" y=".5" width="1700" height="600"/><rect id="undefined_-_aprueba" class="cls-8" x="116.19" y="556.5" width="39.78" height="24"/><rect id="undefined_-_reprueban" class="cls-6" x="155.96" y="372.5" width="39.78" height="208"/><rect id="undefined_-_meción_v_y_m" class="cls-9" x="116.19" y="564.5" width="39.78" height="16"/><rect id="undefined_-_diseño" class="cls-5" x="116.19" y="556.5" width="39.78" height="8"/><rect id="undefined_-_aprueba-2" class="cls-8" x="260.4" y="500.5" width="39.78" height="80"/><rect id="undefined_-_reprueban-2" class="cls-6" x="300.18" y="308.5" width="39.78" height="272"/><rect id="undefined_-_meción_v_y_m-2" class="cls-9" x="260.4" y="540.5" width="39.78" height="40"/><rect id="undefined_-_mención_i_y_s" class="cls-7" x="260.4" y="500.5" width="39.78" height="40"/><rect id="undefined_-_aprueba-3" class="cls-8" x="404.62" y="492.5" width="39.78" height="88"/><rect id="undefined_-_reprueban-3" class="cls-6" x="444.4" y="108.5" width="39.78" height="472"/><rect id="undefined_-_meción_v_y_m-3" class="cls-9" x="404.62" y="524.5" width="39.78" height="56"/><rect id="undefined_-_mención_i_y_s-2" class="cls-7" x="404.62" y="492.5" width="39.78" height="32"/><rect id="undefined_-_aprueba-4" class="cls-8" x="548.84" y="420.5" width="39.78" height="160"/><rect id="undefined_-_reprueban-4" class="cls-6" x="588.62" y="204.5" width="39.78" height="376"/><rect id="undefined_-_meción_v_y_m-4" class="cls-9" x="548.84" y="508.5" width="39.78" height="72"/><rect id="undefined_-_mención_i_y_s-3" class="cls-7" x="548.84" y="452.5" width="39.78" height="56"/><rect id="undefined_-_diseño-2" class="cls-5" x="548.84" y="420.5" width="39.78" height="32"/><rect id="undefined_-_aprueba-5" class="cls-8" x="693.24" y="140.5" width="39.78" height="440"/><rect id="undefined_-_reprueban-5" class="cls-6" x="733.02" y="236.5" width="39.78" height="344"/><rect id="undefined_-_meción_v_y_m-5" class="cls-9" x="693.24" y="380.5" width="39.78" height="200"/><rect id="undefined_-_mención_i_y_s-4" class="cls-7" x="693.06" y="196.32" width="39.78" height="184"/><rect id="undefined_-_diseño-3" class="cls-5" x="693.24" y="140.5" width="39.78" height="56"/><rect id="undefined_-_aprueba-6" class="cls-8" x="837.46" y="268.5" width="39.78" height="312"/><rect id="undefined_-_reprueban-6" class="cls-6" x="877.24" y="412.5" width="39.78" height="168"/><rect id="undefined_-_meción_v_y_m-6" class="cls-9" x="837.46" y="412.5" width="39.78" height="168"/><rect id="undefined_-_mención_i_y_s-5" class="cls-7" x="837.46" y="300.5" width="39.78" height="112"/><rect id="undefined_-_diseño-4" class="cls-5" x="837.46" y="268.5" width="39.78" height="32"/><rect id="undefined_-_aprueba-7" class="cls-8" x="981.68" y="28.5" width="39.78" height="552"/><rect id="undefined_-_reprueban-7" class="cls-6" x="1021.46" y="172.5" width="39.78" height="408"/><rect id="undefined_-_meción_v_y_m-7" class="cls-9" x="981.68" y="316.5" width="39.78" height="264"/><rect id="undefined_-_mención_i_y_s-6" class="cls-7" x="981.68" y="92.7" width="39.78" height="224"/><rect id="undefined_-_diseño-5" class="cls-5" x="981.68" y="28.5" width="39.78" height="64"/><path class="cls-12" d="M50.5,580.5h1117.43"/><line class="cls-12" x1="155.92" y1="580.5" x2="155.92" y2="586.5"/><text class="cls-2" transform="translate(138.92 596.6)"><tspan x="0" y="0">2021-2</tspan></text><line class="cls-12" x1="299.83" y1="580.5" x2="299.83" y2="586.5"/><text class="cls-2" transform="translate(282.84 596.6)"><tspan x="0" y="0">2022-1</tspan></text><line class="cls-12" x1="445.17" y1="580.5" x2="445.17" y2="586.5"/><text class="cls-2" transform="translate(428.17 596.6)"><tspan x="0" y="0">2022-2</tspan></text><line class="cls-12" x1="589.08" y1="580.5" x2="589.08" y2="586.5"/><text class="cls-2" transform="translate(572.08 596.6)"><tspan x="0" y="0">2023-1</tspan></text><line class="cls-12" x1="733" y1="580.5" x2="733" y2="586.5"/><text class="cls-2" transform="translate(716 596.6)"><tspan x="0" y="0">2023-2</tspan></text><line class="cls-12" x1="878.33" y1="580.5" x2="878.33" y2="586.5"/><text class="cls-2" transform="translate(861.33 596.6)"><tspan x="0" y="0">2024-1</tspan></text><line class="cls-12" x1="1022.25" y1="580.5" x2="1022.25" y2="586.5"/><text class="cls-2" transform="translate(1005.25 596.6)"><tspan x="0" y="0">2024-2</tspan></text><g id="yAxis"><path class="cls-12" d="M50.5,580.5V20.5"/><line class="cls-12" x1="50.5" y1="580.5" x2="44.5" y2="580.5"/><text class="cls-2" transform="translate(35.5 583.7)"><tspan x="0" y="0">0</tspan></text><line class="cls-12" x1="50.5" y1="540.5" x2="44.5" y2="540.5"/><text class="cls-2" transform="translate(35.5 543.7)"><tspan x="0" y="0">5</tspan></text><line class="cls-12" x1="50.5" y1="500.5" x2="44.5" y2="500.5"/><text class="cls-2" transform="translate(29.5 503.7)"><tspan x="0" y="0">10</tspan></text><line class="cls-12" x1="50.5" y1="460.5" x2="44.5" y2="460.5"/><text class="cls-2" transform="translate(29.5 463.7)"><tspan x="0" y="0">15</tspan></text><line class="cls-12" x1="50.5" y1="420.5" x2="44.5" y2="420.5"/><text class="cls-2" transform="translate(29.5 423.7)"><tspan x="0" y="0">20</tspan></text><line class="cls-12" x1="50.5" y1="380.5" x2="44.5" y2="380.5"/><text class="cls-2" transform="translate(29.5 383.7)"><tspan x="0" y="0">25</tspan></text><line class="cls-12" x1="50.5" y1="340.5" x2="44.5" y2="340.5"/><text class="cls-2" transform="translate(29.5 343.7)"><tspan x="0" y="0">30</tspan></text><line class="cls-12" x1="50.5" y1="300.5" x2="44.5" y2="300.5"/><text class="cls-2" transform="translate(29.5 303.7)"><tspan x="0" y="0">35</tspan></text><line class="cls-12" x1="50.5" y1="260.5" x2="44.5" y2="260.5"/><text class="cls-2" transform="translate(29.5 263.7)"><tspan x="0" y="0">40</tspan></text><line class="cls-12" x1="50.5" y1="220.5" x2="44.5" y2="220.5"/><text class="cls-2" transform="translate(29.5 223.7)"><tspan x="0" y="0">45</tspan></text><line class="cls-12" x1="50.5" y1="180.5" x2="44.5" y2="180.5"/><text class="cls-2" transform="translate(29.5 183.7)"><tspan x="0" y="0">50</tspan></text><line class="cls-12" x1="50.5" y1="140.5" x2="44.5" y2="140.5"/><text class="cls-2" transform="translate(29.5 143.7)"><tspan x="0" y="0">55</tspan></text><line class="cls-12" x1="50.5" y1="100.5" x2="44.5" y2="100.5"/><text class="cls-2" transform="translate(29.5 103.7)"><tspan x="0" y="0">60</tspan></text><line class="cls-12" x1="50.5" y1="60.5" x2="44.5" y2="60.5"/><text class="cls-2" transform="translate(29.5 63.7)"><tspan x="0" y="0">65</tspan></text><line class="cls-12" x1="50.5" y1="20.5" x2="44.5" y2="20.5"/><text class="cls-2" transform="translate(29.5 23.7)"><tspan x="0" y="0">70</tspan></text></g><g id="grid"><rect class="cls-13" x=".5" y=".5" width="1500" height="600"/></g><rect class="cls-5" x="1152" y="32.57" width="15" height="15"/><g class="cls-4"><text class="cls-1" transform="translate(1172 45.07)"><tspan x="0" y="0">diseño</tspan></text></g><rect class="cls-9" x="1152" y="74.04" width="15" height="15"/><g class="cls-4"><text class="cls-1" transform="translate(1172 86.54)"><tspan x="0" y="0">meción v y m</tspan></text></g><rect class="cls-7" x="1152" y="53.31" width="15" height="15"/><g class="cls-4"><text class="cls-1" transform="translate(1172 65.81)"><tspan x="0" y="0">mención i y s</tspan></text></g><rect class="cls-6" x="1152" y="94.78" width="15" height="15"/><g class="cls-4"><text class="cls-1" transform="translate(1172 107.28)"><tspan x="0" y="0">reprobados</tspan></text></g><text class="cls-3" transform="translate(132.74 554.5)"><tspan x="0" y="0">3</tspan></text><text class="cls-3" transform="translate(169.18 370.5)"><tspan x="0" y="0">26</tspan></text><text class="cls-3" transform="translate(273.62 498.5)"><tspan x="0" y="0">10</tspan></text><text class="cls-3" transform="translate(313.4 306.5)"><tspan x="0" y="0">34</tspan></text><text class="cls-3" transform="translate(417.84 490.5)"><tspan class="cls-11" x="0" y="0">1</tspan><tspan x="5.78" y="0">1</tspan></text><text class="cls-3" transform="translate(457.61 106.5)"><tspan x="0" y="0">59</tspan></text><text class="cls-3" transform="translate(562.06 418.5)"><tspan x="0" y="0">20</tspan></text><text class="cls-3" transform="translate(601.83 202.5)"><tspan x="0" y="0">47</tspan></text><text class="cls-3" transform="translate(706.27 138.69)"><tspan x="0" y="0">55</tspan></text><text class="cls-3" transform="translate(746.23 234.5)"><tspan x="0" y="0">43</tspan></text><text class="cls-3" transform="translate(850.68 266.5)"><tspan x="0" y="0">39</tspan></text><text class="cls-3" transform="translate(890.45 410.5)"><tspan x="0" y="0">21</tspan></text><text class="cls-3" transform="translate(994.89 26.5)"><tspan x="0" y="0">69</tspan></text><text class="cls-3" transform="translate(1034.67 170.5)"><tspan x="0" y="0">51</tspan></text></svg>